<svg width="352" height="263" viewBox="0 0 352 263" fill="none" xmlns="http://www.w3.org/2000/svg">
<g clip-path="url(#clip0_88_68)">
<path d="M158.08 21.26H157.76C157.213 21.26 156.693 21.2 156.2 21.08C155.72 20.9733 155.353 20.8333 155.1 20.66L156.12 18.22H156.22C156.407 19.1133 156.713 19.8067 157.14 20.3C157.567 20.78 157.987 21.02 158.4 21.02C158.76 21.0067 159.047 20.8333 159.26 20.5C159.487 20.1533 159.6 19.62 159.6 18.9L159.62 8.2C159.62 7.90667 159.527 7.64667 159.34 7.42C159.167 7.19333 158.94 7.08 158.66 7.08V7.04H162.5V7.08C162.207 7.08 161.973 7.19333 161.8 7.42C161.627 7.63333 161.533 7.89333 161.52 8.2V18.3C161.52 19.0067 161.353 19.5733 161.02 20C160.687 20.4133 160.26 20.72 159.74 20.92C159.22 21.12 158.667 21.2333 158.08 21.26ZM169.821 21.24C168.927 21.2267 168.141 21.0533 167.461 20.72C166.781 20.3867 166.227 19.92 165.801 19.32C165.387 18.72 165.181 17.9867 165.181 17.12V8.2C165.181 7.90667 165.094 7.64667 164.921 7.42C164.747 7.19333 164.514 7.08 164.221 7.08V7.04H168.061V7.08C167.767 7.08 167.534 7.19333 167.361 7.42C167.187 7.64667 167.101 7.90667 167.101 8.2V17.02C167.101 17.8067 167.254 18.4667 167.561 19C167.881 19.52 168.287 19.9133 168.781 20.18C169.274 20.4467 169.807 20.5867 170.381 20.6C170.981 20.6 171.561 20.4467 172.121 20.14C172.681 19.8333 173.141 19.3667 173.501 18.74C173.861 18.1133 174.041 17.3267 174.041 16.38V10.88C174.041 10.3467 174.014 9.78667 173.961 9.2C173.907 8.61333 173.774 8.11333 173.561 7.7C173.361 7.28667 173.034 7.08 172.581 7.08V7.04H175.761L183.001 18.4L182.981 10.28C182.981 9.82667 182.954 9.35333 182.901 8.86C182.847 8.36667 182.714 7.95333 182.501 7.62C182.301 7.27333 181.974 7.09333 181.521 7.08V7.04H184.881V7.08C184.427 7.09333 184.094 7.27333 183.881 7.62C183.681 7.95333 183.554 8.36667 183.501 8.86C183.447 9.35333 183.421 9.82667 183.421 10.28V21H182.161L174.481 8.8L174.461 16.84C174.461 17.8267 174.234 18.6467 173.781 19.3C173.327 19.9533 172.747 20.44 172.041 20.76C171.334 21.08 170.594 21.24 169.821 21.24ZM195.164 21H186.604V20.94C186.897 20.94 187.13 20.8267 187.304 20.6C187.477 20.3733 187.564 20.12 187.564 19.84V8.2C187.564 7.90667 187.477 7.65333 187.304 7.44C187.13 7.21333 186.897 7.09333 186.604 7.08V7.04H194.644L195.084 9.98H194.944C194.744 9.40667 194.557 8.96667 194.384 8.66C194.17 8.26 193.864 7.93333 193.464 7.68C193.064 7.42667 192.484 7.3 191.724 7.3H190.404C190.137 7.3 189.917 7.38667 189.744 7.56C189.57 7.72 189.484 7.98667 189.484 8.36V13.82H192.524C192.91 13.82 193.23 13.6867 193.484 13.42C193.75 13.1533 193.884 12.8267 193.884 12.44H193.964V15.58H193.884C193.884 15.1933 193.75 14.8733 193.484 14.62C193.23 14.3533 192.91 14.22 192.524 14.22H189.484V19.36C189.484 19.7067 189.53 20.02 189.624 20.3C189.73 20.58 190.004 20.72 190.444 20.72H192.084C192.75 20.72 193.304 20.5867 193.744 20.32C194.197 20.0533 194.557 19.72 194.824 19.32C195.104 18.9067 195.317 18.48 195.464 18.04H195.604L195.164 21Z" fill="#1F1F1F"/>
<path d="M32.8796 46.8182V57H31.6467V48.1108H31.587L29.1012 49.7614V48.5085L31.6467 46.8182H32.8796Z" fill="#1F1F1F"/>
<path d="M75.3157 57V56.1051L78.6765 52.4261C79.0709 51.9953 79.3957 51.6207 79.6509 51.3026C79.9061 50.9811 80.0951 50.6795 80.2177 50.3977C80.3436 50.1127 80.4066 49.8144 80.4066 49.5028C80.4066 49.1449 80.3204 48.835 80.1481 48.5732C79.979 48.3113 79.747 48.1091 79.4521 47.9666C79.1571 47.8241 78.8256 47.7528 78.4577 47.7528C78.0666 47.7528 77.7253 47.834 77.4336 47.9964C77.1452 48.1555 76.9215 48.3793 76.7624 48.6676C76.6067 48.956 76.5288 49.294 76.5288 49.6818H75.3555C75.3555 49.0852 75.493 48.5616 75.7681 48.1108C76.0432 47.66 76.4177 47.3087 76.8917 47.0568C77.369 46.8049 77.9042 46.679 78.4975 46.679C79.0941 46.679 79.6228 46.8049 80.0835 47.0568C80.5442 47.3087 80.9054 47.6484 81.1673 48.076C81.4291 48.5036 81.56 48.9792 81.56 49.5028C81.56 49.8774 81.4921 50.2436 81.3562 50.6016C81.2236 50.9562 80.9916 51.3523 80.6602 51.7898C80.332 52.224 79.8763 52.7543 79.293 53.3807L77.006 55.8267V55.9062H81.739V57H75.3157Z" fill="#1F1F1F"/>
<path d="M126.704 57.1392C126.048 57.1392 125.463 57.0265 124.949 56.8011C124.439 56.5758 124.033 56.2625 123.731 55.8615C123.433 55.4571 123.27 54.9882 123.244 54.4545H124.497C124.523 54.7827 124.636 55.0661 124.835 55.3047C125.034 55.54 125.294 55.7223 125.615 55.8516C125.937 55.9808 126.293 56.0455 126.684 56.0455C127.122 56.0455 127.509 55.9692 127.847 55.8168C128.186 55.6643 128.451 55.4522 128.643 55.1804C128.835 54.9086 128.931 54.5938 128.931 54.2358C128.931 53.8613 128.838 53.5315 128.653 53.2464C128.467 52.9581 128.195 52.7327 127.837 52.5703C127.48 52.4079 127.042 52.3267 126.525 52.3267H125.71V51.233H126.525C126.929 51.233 127.284 51.16 127.589 51.0142C127.897 50.8684 128.137 50.6629 128.31 50.3977C128.485 50.1326 128.573 49.821 128.573 49.4631C128.573 49.1184 128.497 48.8184 128.345 48.5632C128.192 48.308 127.977 48.1091 127.698 47.9666C127.423 47.8241 127.098 47.7528 126.724 47.7528C126.373 47.7528 126.041 47.8175 125.73 47.9467C125.421 48.0727 125.169 48.2566 124.974 48.4986C124.778 48.7372 124.672 49.0256 124.656 49.3636H123.462C123.482 48.83 123.643 48.3627 123.945 47.9616C124.246 47.5573 124.641 47.2424 125.128 47.017C125.619 46.7917 126.157 46.679 126.744 46.679C127.373 46.679 127.914 46.8066 128.364 47.0618C128.815 47.3137 129.162 47.6468 129.404 48.0611C129.645 48.4754 129.766 48.9228 129.766 49.4034C129.766 49.9768 129.616 50.4657 129.314 50.87C129.016 51.2744 128.61 51.5545 128.096 51.7102V51.7898C128.739 51.8958 129.241 52.1693 129.602 52.6101C129.964 53.0476 130.144 53.5895 130.144 54.2358C130.144 54.7893 129.994 55.2865 129.692 55.7273C129.394 56.1648 128.986 56.5095 128.469 56.7614C127.952 57.0133 127.364 57.1392 126.704 57.1392Z" fill="#1F1F1F"/>
<path d="M171.158 54.9119V53.8977L175.632 46.8182H176.368V48.3892H175.871L172.49 53.7386V53.8182H178.515V54.9119H171.158ZM175.95 57V54.6037V54.1314V46.8182H177.123V57H175.95Z" fill="#1F1F1F"/>
<path d="M222.977 57.1392C222.394 57.1392 221.868 57.0232 221.401 56.7912C220.934 56.5592 220.559 56.241 220.277 55.8366C219.996 55.4323 219.842 54.9716 219.815 54.4545H221.008C221.055 54.9152 221.263 55.2964 221.635 55.598C222.009 55.8963 222.457 56.0455 222.977 56.0455C223.395 56.0455 223.766 55.9477 224.091 55.7521C224.419 55.5566 224.676 55.2881 224.861 54.9467C225.05 54.602 225.145 54.2126 225.145 53.7784C225.145 53.3343 225.047 52.9382 224.851 52.5902C224.659 52.2389 224.394 51.9621 224.056 51.7599C223.718 51.5578 223.332 51.455 222.897 51.4517C222.586 51.4484 222.266 51.4964 221.938 51.5959C221.61 51.692 221.34 51.8163 221.128 51.9688L219.974 51.8295L220.591 46.8182H225.88V47.9119H221.625L221.267 50.9148H221.326C221.535 50.7491 221.797 50.6115 222.112 50.5021C222.427 50.3928 222.755 50.3381 223.096 50.3381C223.719 50.3381 224.275 50.4872 224.762 50.7855C225.252 51.0805 225.637 51.4848 225.915 51.9986C226.197 52.5123 226.338 53.099 226.338 53.7585C226.338 54.4081 226.192 54.9882 225.9 55.4986C225.612 56.0057 225.214 56.4067 224.707 56.7017C224.2 56.9934 223.623 57.1392 222.977 57.1392Z" fill="#1F1F1F"/>
<path d="M271.233 57.1392C270.816 57.1326 270.398 57.053 269.98 56.9006C269.563 56.7481 269.182 56.4912 268.837 56.13C268.492 55.7654 268.215 55.2732 268.007 54.6534C267.798 54.0303 267.693 53.2481 267.693 52.3068C267.693 51.4053 267.778 50.6065 267.947 49.9105C268.116 49.2112 268.361 48.6229 268.683 48.1456C269.004 47.665 269.392 47.3004 269.846 47.0518C270.303 46.8033 270.819 46.679 271.392 46.679C271.962 46.679 272.469 46.7933 272.914 47.022C273.361 47.2474 273.726 47.5623 274.007 47.9666C274.289 48.371 274.471 48.8366 274.554 49.3636H273.341C273.228 48.9062 273.01 48.5268 272.685 48.2251C272.36 47.9235 271.929 47.7727 271.392 47.7727C270.603 47.7727 269.982 48.1158 269.528 48.8018C269.077 49.4879 268.85 50.4508 268.847 51.6903H268.926C269.112 51.4086 269.332 51.1683 269.588 50.9695C269.846 50.7673 270.131 50.6115 270.443 50.5021C270.754 50.3928 271.084 50.3381 271.432 50.3381C272.015 50.3381 272.549 50.4839 273.033 50.7756C273.517 51.0639 273.905 51.4633 274.196 51.9737C274.488 52.4808 274.634 53.0625 274.634 53.7188C274.634 54.3485 274.493 54.9252 274.211 55.4489C273.929 55.9692 273.533 56.3835 273.023 56.6918C272.516 56.9967 271.919 57.1458 271.233 57.1392ZM271.233 56.0455C271.651 56.0455 272.025 55.9411 272.357 55.7322C272.692 55.5234 272.955 55.2434 273.147 54.892C273.343 54.5407 273.441 54.1496 273.441 53.7188C273.441 53.2978 273.346 52.915 273.157 52.5703C272.972 52.2223 272.715 51.9455 272.387 51.7401C272.062 51.5346 271.691 51.4318 271.273 51.4318C270.958 51.4318 270.665 51.4948 270.393 51.6207C270.121 51.7434 269.883 51.9124 269.677 52.1278C269.475 52.3433 269.316 52.5902 269.2 52.8686C269.084 53.1437 269.026 53.4337 269.026 53.7386C269.026 54.143 269.12 54.5208 269.309 54.8722C269.501 55.2235 269.763 55.5069 270.095 55.7223C270.429 55.9377 270.809 56.0455 271.233 56.0455Z" fill="#1F1F1F"/>
<path d="M316.207 57L320.76 47.9915V47.9119H315.51V46.8182H322.033V47.9716L317.499 57H316.207Z" fill="#1F1F1F"/>
<path d="M31.5019 105.139C30.8191 105.139 30.2159 105.018 29.6922 104.776C29.1718 104.531 28.7658 104.195 28.4742 103.767C28.1825 103.336 28.0383 102.846 28.0416 102.295C28.0383 101.865 28.1228 101.467 28.2952 101.102C28.4675 100.734 28.7029 100.428 29.0012 100.183C29.3028 99.9339 29.6392 99.7765 30.0104 99.7102V99.6506C29.5232 99.5246 29.1354 99.2512 28.847 98.8303C28.5587 98.406 28.4162 97.9238 28.4195 97.3835C28.4162 96.8665 28.5471 96.4041 28.8122 95.9964C29.0774 95.5888 29.442 95.2673 29.906 95.032C30.3733 94.7966 30.9053 94.679 31.5019 94.679C32.0918 94.679 32.6188 94.7966 33.0828 95.032C33.5468 95.2673 33.9114 95.5888 34.1766 95.9964C34.445 96.4041 34.5809 96.8665 34.5843 97.3835C34.5809 97.9238 34.4334 98.406 34.1418 98.8303C33.8534 99.2512 33.4706 99.5246 32.9933 99.6506V99.7102C33.3612 99.7765 33.6927 99.9339 33.9877 100.183C34.2826 100.428 34.518 100.734 34.6936 101.102C34.8693 101.467 34.9588 101.865 34.9621 102.295C34.9588 102.846 34.8096 103.336 34.5146 103.767C34.223 104.195 33.817 104.531 33.2966 104.776C32.7796 105.018 32.1813 105.139 31.5019 105.139ZM31.5019 104.045C31.9626 104.045 32.3603 103.971 32.695 103.822C33.0298 103.673 33.2883 103.462 33.4706 103.19C33.6529 102.919 33.7457 102.6 33.749 102.236C33.7457 101.851 33.6463 101.512 33.4507 101.217C33.2552 100.922 32.9884 100.69 32.6503 100.521C32.3155 100.352 31.9327 100.267 31.5019 100.267C31.0677 100.267 30.6799 100.352 30.3385 100.521C30.0004 100.69 29.7336 100.922 29.5381 101.217C29.3459 101.512 29.2514 101.851 29.2547 102.236C29.2514 102.6 29.3392 102.919 29.5182 103.19C29.7005 103.462 29.9607 103.673 30.2987 103.822C30.6368 103.971 31.0378 104.045 31.5019 104.045ZM31.5019 99.2131C31.8664 99.2131 32.1896 99.1402 32.4713 98.9943C32.7564 98.8485 32.9801 98.6446 33.1425 98.3828C33.3049 98.121 33.3878 97.8144 33.3911 97.4631C33.3878 97.1184 33.3066 96.8184 33.1475 96.5632C32.9884 96.3047 32.768 96.1058 32.4862 95.9666C32.2045 95.8241 31.8764 95.7528 31.5019 95.7528C31.1207 95.7528 30.7876 95.8241 30.5026 95.9666C30.2175 96.1058 29.9971 96.3047 29.8414 96.5632C29.6856 96.8184 29.6093 97.1184 29.6127 97.4631C29.6093 97.8144 29.6872 98.121 29.8463 98.3828C30.0087 98.6446 30.2325 98.8485 30.5175 98.9943C30.8025 99.1402 31.1307 99.2131 31.5019 99.2131Z" fill="#1F1F1F"/>
<path d="M79.4273 94.679C79.8449 94.6823 80.2625 94.7618 80.6801 94.9176C81.0977 95.0734 81.4789 95.3319 81.8236 95.6932C82.1683 96.0511 82.445 96.54 82.6539 97.1598C82.8627 97.7796 82.9671 98.5568 82.9671 99.4915C82.9671 100.396 82.8809 101.2 82.7085 101.903C82.5395 102.602 82.2942 103.192 81.9727 103.673C81.6546 104.153 81.2668 104.518 80.8094 104.766C80.3553 105.015 79.8416 105.139 79.2682 105.139C78.6981 105.139 78.1894 105.027 77.7419 104.801C77.2978 104.572 76.9332 104.256 76.6482 103.852C76.3664 103.444 76.1858 102.972 76.1063 102.435H77.3193C77.4287 102.902 77.6458 103.288 77.9706 103.593C78.2987 103.895 78.7313 104.045 79.2682 104.045C80.0537 104.045 80.6735 103.702 81.1276 103.016C81.585 102.33 81.8137 101.361 81.8137 100.108H81.7341C81.5485 100.386 81.3281 100.627 81.0729 100.829C80.8177 101.031 80.5343 101.187 80.2227 101.296C79.9112 101.406 79.5798 101.46 79.2284 101.46C78.6451 101.46 78.1098 101.316 77.6226 101.028C77.1387 100.736 76.7509 100.337 76.4593 99.8295C76.1709 99.3191 76.0267 98.7358 76.0267 98.0795C76.0267 97.4564 76.1659 96.8864 76.4443 96.3693C76.7261 95.849 77.1205 95.4347 77.6276 95.1264C78.138 94.8182 78.7379 94.669 79.4273 94.679ZM79.4273 95.7727C79.0097 95.7727 78.6335 95.8771 78.2987 96.0859C77.9673 96.2914 77.7038 96.5698 77.5083 96.9212C77.316 97.2692 77.2199 97.6553 77.2199 98.0795C77.2199 98.5038 77.3127 98.8899 77.4983 99.2379C77.6872 99.5826 77.9441 99.8577 78.2689 100.063C78.597 100.265 78.9699 100.366 79.3875 100.366C79.7024 100.366 79.9957 100.305 80.2675 100.183C80.5393 100.057 80.7762 99.8859 80.9784 99.6705C81.1839 99.4517 81.3447 99.2048 81.4607 98.9297C81.5767 98.6513 81.6347 98.3613 81.6347 98.0597C81.6347 97.6619 81.5386 97.2891 81.3463 96.9411C81.1574 96.593 80.8956 96.3113 80.5608 96.0959C80.2294 95.8804 79.8515 95.7727 79.4273 95.7727Z" fill="#1F1F1F"/>
<path d="M124.005 94.8182V105H122.772V96.1108H122.712L120.226 97.7614V96.5085L122.772 94.8182H124.005ZM130.254 105.139C129.505 105.139 128.867 104.935 128.34 104.528C127.813 104.117 127.41 103.522 127.132 102.743C126.853 101.961 126.714 101.016 126.714 99.9091C126.714 98.8087 126.853 97.8691 127.132 97.0902C127.413 96.308 127.818 95.7114 128.345 95.3004C128.875 94.8861 129.511 94.679 130.254 94.679C130.996 94.679 131.631 94.8861 132.158 95.3004C132.688 95.7114 133.093 96.308 133.371 97.0902C133.653 97.8691 133.794 98.8087 133.794 99.9091C133.794 101.016 133.654 101.961 133.376 102.743C133.098 103.522 132.695 104.117 132.168 104.528C131.641 104.935 131.003 105.139 130.254 105.139ZM130.254 104.045C130.996 104.045 131.573 103.687 131.984 102.972C132.395 102.256 132.6 101.235 132.6 99.9091C132.6 99.0275 132.506 98.2768 132.317 97.657C132.132 97.0372 131.863 96.5649 131.512 96.2401C131.164 95.9152 130.744 95.7528 130.254 95.7528C129.518 95.7528 128.943 96.1158 128.529 96.8416C128.114 97.5642 127.907 98.5866 127.907 99.9091C127.907 100.791 128 101.54 128.186 102.156C128.371 102.773 128.638 103.242 128.986 103.563C129.337 103.885 129.76 104.045 130.254 104.045Z" fill="#1F1F1F"/>
<path d="M173.126 94.8182V105H171.893V96.1108H171.833L169.347 97.7614V96.5085L171.893 94.8182H173.126ZM179.634 94.8182V105H178.401V96.1108H178.341L175.855 97.7614V96.5085L178.401 94.8182H179.634Z" fill="#1F1F1F"/>
<path d="M220.641 94.8182V105H219.408V96.1108H219.349L216.863 97.7614V96.5085L219.408 94.8182H220.641ZM223.57 105V104.105L226.93 100.426C227.325 99.9953 227.65 99.6207 227.905 99.3026C228.16 98.9811 228.349 98.6795 228.472 98.3977C228.598 98.1127 228.661 97.8144 228.661 97.5028C228.661 97.1449 228.574 96.835 228.402 96.5732C228.233 96.3113 228.001 96.1091 227.706 95.9666C227.411 95.8241 227.08 95.7528 226.712 95.7528C226.321 95.7528 225.979 95.834 225.688 95.9964C225.399 96.1555 225.175 96.3793 225.016 96.6676C224.861 96.956 224.783 97.294 224.783 97.6818H223.609C223.609 97.0852 223.747 96.5616 224.022 96.1108C224.297 95.66 224.672 95.3087 225.146 95.0568C225.623 94.8049 226.158 94.679 226.751 94.679C227.348 94.679 227.877 94.8049 228.337 95.0568C228.798 95.3087 229.159 95.6484 229.421 96.076C229.683 96.5036 229.814 96.9792 229.814 97.5028C229.814 97.8774 229.746 98.2436 229.61 98.6016C229.478 98.9562 229.246 99.3523 228.914 99.7898C228.586 100.224 228.13 100.754 227.547 101.381L225.26 103.827V103.906H229.993V105H223.57Z" fill="#1F1F1F"/>
<path d="M267.923 94.8182V105H266.69V96.1108H266.63L264.144 97.7614V96.5085L266.69 94.8182H267.923ZM274.291 105.139C273.635 105.139 273.05 105.027 272.536 104.801C272.026 104.576 271.62 104.263 271.318 103.862C271.02 103.457 270.857 102.988 270.831 102.455H272.084C272.11 102.783 272.223 103.066 272.422 103.305C272.621 103.54 272.881 103.722 273.202 103.852C273.524 103.981 273.88 104.045 274.271 104.045C274.709 104.045 275.097 103.969 275.435 103.817C275.773 103.664 276.038 103.452 276.23 103.18C276.422 102.909 276.518 102.594 276.518 102.236C276.518 101.861 276.426 101.531 276.24 101.246C276.054 100.958 275.783 100.733 275.425 100.57C275.067 100.408 274.629 100.327 274.112 100.327H273.297V99.233H274.112C274.517 99.233 274.871 99.16 275.176 99.0142C275.484 98.8684 275.725 98.6629 275.897 98.3977C276.073 98.1326 276.161 97.821 276.161 97.4631C276.161 97.1184 276.084 96.8184 275.932 96.5632C275.779 96.308 275.564 96.1091 275.286 95.9666C275.01 95.8241 274.686 95.7528 274.311 95.7528C273.96 95.7528 273.628 95.8175 273.317 95.9467C273.009 96.0727 272.757 96.2566 272.561 96.4986C272.366 96.7372 272.259 97.0256 272.243 97.3636H271.05C271.07 96.83 271.23 96.3627 271.532 95.9616C271.834 95.5573 272.228 95.2424 272.715 95.017C273.206 94.7917 273.744 94.679 274.331 94.679C274.961 94.679 275.501 94.8066 275.952 95.0618C276.402 95.3137 276.749 95.6468 276.991 96.0611C277.233 96.4754 277.354 96.9228 277.354 97.4034C277.354 97.9768 277.203 98.4657 276.901 98.87C276.603 99.2744 276.197 99.5545 275.683 99.7102V99.7898C276.326 99.8958 276.828 100.169 277.19 100.61C277.551 101.048 277.732 101.589 277.732 102.236C277.732 102.789 277.581 103.286 277.279 103.727C276.981 104.165 276.573 104.509 276.056 104.761C275.539 105.013 274.951 105.139 274.291 105.139Z" fill="#1F1F1F"/>
<path d="M315.888 94.8182V105H314.655V96.1108H314.596L312.11 97.7614V96.5085L314.655 94.8182H315.888ZM318.578 102.912V101.898L323.052 94.8182H323.788V96.3892H323.291L319.91 101.739V101.818H325.936V102.912H318.578ZM323.371 105V102.604V102.131V94.8182H324.544V105H323.371Z" fill="#1F1F1F"/>
<path d="M28.1208 142.818V153H26.8879V144.111H26.8282L24.3424 145.761V144.509L26.8879 142.818H28.1208ZM34.2309 153.139C33.6476 153.139 33.1222 153.023 32.6549 152.791C32.1876 152.559 31.8131 152.241 31.5313 151.837C31.2496 151.432 31.0955 150.972 31.069 150.455H32.2622C32.3086 150.915 32.5174 151.296 32.8886 151.598C33.2631 151.896 33.7106 152.045 34.2309 152.045C34.6485 152.045 35.0197 151.948 35.3445 151.752C35.6727 151.557 35.9295 151.288 36.1151 150.947C36.3041 150.602 36.3985 150.213 36.3985 149.778C36.3985 149.334 36.3008 148.938 36.1052 148.59C35.913 148.239 35.6478 147.962 35.3097 147.76C34.9717 147.558 34.5856 147.455 34.1514 147.452C33.8398 147.448 33.52 147.496 33.1919 147.596C32.8637 147.692 32.5936 147.816 32.3815 147.969L31.2281 147.83L31.8445 142.818H37.1343V143.912H32.8786L32.5207 146.915H32.5803C32.7892 146.749 33.051 146.612 33.3659 146.502C33.6807 146.393 34.0088 146.338 34.3502 146.338C34.9733 146.338 35.5285 146.487 36.0157 146.786C36.5062 147.08 36.8907 147.485 37.1691 147.999C37.4508 148.512 37.5917 149.099 37.5917 149.759C37.5917 150.408 37.4459 150.988 37.1542 151.499C36.8659 152.006 36.4681 152.407 35.961 152.702C35.4539 152.993 34.8772 153.139 34.2309 153.139Z" fill="#1F1F1F"/>
<path d="M76.0115 142.818V153H74.7785V144.111H74.7188L72.233 145.761V144.509L74.7785 142.818H76.0115ZM82.3204 153.139C81.9028 153.133 81.4852 153.053 81.0676 152.901C80.6499 152.748 80.2688 152.491 79.9241 152.13C79.5794 151.765 79.3026 151.273 79.0938 150.653C78.885 150.03 78.7806 149.248 78.7806 148.307C78.7806 147.405 78.8651 146.607 79.0342 145.911C79.2032 145.211 79.4485 144.623 79.77 144.146C80.0915 143.665 80.4793 143.3 80.9333 143.052C81.3907 142.803 81.9061 142.679 82.4795 142.679C83.0496 142.679 83.5567 142.793 84.0008 143.022C84.4482 143.247 84.8128 143.562 85.0945 143.967C85.3763 144.371 85.5586 144.837 85.6414 145.364H84.4284C84.3157 144.906 84.0969 144.527 83.7721 144.225C83.4473 143.924 83.0164 143.773 82.4795 143.773C81.6907 143.773 81.0692 144.116 80.6151 144.802C80.1644 145.488 79.9374 146.451 79.934 147.69H80.0136C80.1992 147.409 80.4196 147.168 80.6748 146.969C80.9333 146.767 81.2184 146.612 81.5299 146.502C81.8415 146.393 82.1713 146.338 82.5193 146.338C83.1026 146.338 83.6362 146.484 84.1201 146.776C84.604 147.064 84.9918 147.463 85.2835 147.974C85.5751 148.481 85.721 149.062 85.721 149.719C85.721 150.348 85.5801 150.925 85.2984 151.449C85.0167 151.969 84.6206 152.384 84.1102 152.692C83.6031 152.997 83.0065 153.146 82.3204 153.139ZM82.3204 152.045C82.738 152.045 83.1125 151.941 83.444 151.732C83.7787 151.523 84.0422 151.243 84.2345 150.892C84.43 150.541 84.5278 150.15 84.5278 149.719C84.5278 149.298 84.4333 148.915 84.2444 148.57C84.0588 148.222 83.8019 147.946 83.4738 147.74C83.149 147.535 82.7778 147.432 82.3602 147.432C82.0453 147.432 81.752 147.495 81.4802 147.621C81.2084 147.743 80.9698 147.912 80.7643 148.128C80.5621 148.343 80.403 148.59 80.287 148.869C80.171 149.144 80.113 149.434 80.113 149.739C80.113 150.143 80.2075 150.521 80.3964 150.872C80.5886 151.223 80.8505 151.507 81.1819 151.722C81.5167 151.938 81.8962 152.045 82.3204 152.045Z" fill="#1F1F1F"/>
<path d="M124.881 142.818V153H123.648V144.111H123.588L121.102 145.761V144.509L123.648 142.818H124.881ZM128.127 153L132.681 143.991V143.912H127.431V142.818H133.954V143.972L129.42 153H128.127Z" fill="#1F1F1F"/>
<path d="M172.066 142.818V153H170.833V144.111H170.774L168.288 145.761V144.509L170.833 142.818H172.066ZM178.256 153.139C177.573 153.139 176.97 153.018 176.446 152.776C175.926 152.531 175.52 152.195 175.228 151.767C174.936 151.336 174.792 150.846 174.796 150.295C174.792 149.865 174.877 149.467 175.049 149.102C175.221 148.734 175.457 148.428 175.755 148.183C176.057 147.934 176.393 147.777 176.764 147.71V147.651C176.277 147.525 175.889 147.251 175.601 146.83C175.313 146.406 175.17 145.924 175.173 145.384C175.17 144.866 175.301 144.404 175.566 143.996C175.831 143.589 176.196 143.267 176.66 143.032C177.127 142.797 177.659 142.679 178.256 142.679C178.846 142.679 179.373 142.797 179.837 143.032C180.301 143.267 180.665 143.589 180.93 143.996C181.199 144.404 181.335 144.866 181.338 145.384C181.335 145.924 181.187 146.406 180.896 146.83C180.607 147.251 180.225 147.525 179.747 147.651V147.71C180.115 147.777 180.447 147.934 180.742 148.183C181.037 148.428 181.272 148.734 181.448 149.102C181.623 149.467 181.713 149.865 181.716 150.295C181.713 150.846 181.564 151.336 181.269 151.767C180.977 152.195 180.571 152.531 180.051 152.776C179.533 153.018 178.935 153.139 178.256 153.139ZM178.256 152.045C178.716 152.045 179.114 151.971 179.449 151.822C179.784 151.673 180.042 151.462 180.225 151.19C180.407 150.919 180.5 150.6 180.503 150.236C180.5 149.851 180.4 149.512 180.205 149.217C180.009 148.922 179.742 148.69 179.404 148.521C179.069 148.352 178.687 148.267 178.256 148.267C177.822 148.267 177.434 148.352 177.092 148.521C176.754 148.69 176.488 148.922 176.292 149.217C176.1 149.512 176.005 149.851 176.009 150.236C176.005 150.6 176.093 150.919 176.272 151.19C176.454 151.462 176.715 151.673 177.053 151.822C177.391 151.971 177.792 152.045 178.256 152.045ZM178.256 147.213C178.62 147.213 178.944 147.14 179.225 146.994C179.51 146.848 179.734 146.645 179.896 146.383C180.059 146.121 180.142 145.814 180.145 145.463C180.142 145.118 180.06 144.818 179.901 144.563C179.742 144.305 179.522 144.106 179.24 143.967C178.958 143.824 178.63 143.753 178.256 143.753C177.875 143.753 177.542 143.824 177.256 143.967C176.971 144.106 176.751 144.305 176.595 144.563C176.439 144.818 176.363 145.118 176.367 145.463C176.363 145.814 176.441 146.121 176.6 146.383C176.763 146.645 176.986 146.848 177.271 146.994C177.556 147.14 177.885 147.213 178.256 147.213Z" fill="#1F1F1F"/>
<path d="M220.011 142.818V153H218.778V144.111H218.719L216.233 145.761V144.509L218.778 142.818H220.011ZM226.181 142.679C226.599 142.682 227.016 142.762 227.434 142.918C227.852 143.073 228.233 143.332 228.578 143.693C228.922 144.051 229.199 144.54 229.408 145.16C229.617 145.78 229.721 146.557 229.721 147.491C229.721 148.396 229.635 149.2 229.462 149.903C229.293 150.602 229.048 151.192 228.727 151.673C228.408 152.153 228.021 152.518 227.563 152.766C227.109 153.015 226.595 153.139 226.022 153.139C225.452 153.139 224.943 153.027 224.496 152.801C224.052 152.572 223.687 152.256 223.402 151.852C223.12 151.444 222.94 150.972 222.86 150.435H224.073C224.183 150.902 224.4 151.288 224.725 151.593C225.053 151.895 225.485 152.045 226.022 152.045C226.808 152.045 227.427 151.702 227.881 151.016C228.339 150.33 228.568 149.361 228.568 148.108H228.488C228.302 148.386 228.082 148.627 227.827 148.829C227.572 149.031 227.288 149.187 226.977 149.296C226.665 149.406 226.334 149.46 225.982 149.46C225.399 149.46 224.864 149.316 224.377 149.028C223.893 148.736 223.505 148.337 223.213 147.83C222.925 147.319 222.781 146.736 222.781 146.08C222.781 145.456 222.92 144.886 223.198 144.369C223.48 143.849 223.874 143.435 224.381 143.126C224.892 142.818 225.492 142.669 226.181 142.679ZM226.181 143.773C225.764 143.773 225.387 143.877 225.053 144.086C224.721 144.291 224.458 144.57 224.262 144.921C224.07 145.269 223.974 145.655 223.974 146.08C223.974 146.504 224.067 146.89 224.252 147.238C224.441 147.583 224.698 147.858 225.023 148.063C225.351 148.265 225.724 148.366 226.141 148.366C226.456 148.366 226.75 148.305 227.021 148.183C227.293 148.057 227.53 147.886 227.732 147.67C227.938 147.452 228.099 147.205 228.215 146.93C228.331 146.651 228.389 146.361 228.389 146.06C228.389 145.662 228.292 145.289 228.1 144.941C227.911 144.593 227.649 144.311 227.315 144.096C226.983 143.88 226.605 143.773 226.181 143.773Z" fill="#1F1F1F"/>
<path d="M250 147.989C250 135.845 259.845 126 271.989 126H296V170H272.011C259.855 170 250 160.145 250 147.989V147.989Z" fill="white"/>
<path d="M263.441 153V152.105L266.801 148.426C267.196 147.995 267.521 147.621 267.776 147.303C268.031 146.981 268.22 146.679 268.343 146.398C268.469 146.113 268.532 145.814 268.532 145.503C268.532 145.145 268.445 144.835 268.273 144.573C268.104 144.311 267.872 144.109 267.577 143.967C267.282 143.824 266.951 143.753 266.583 143.753C266.192 143.753 265.85 143.834 265.559 143.996C265.27 144.156 265.047 144.379 264.887 144.668C264.732 144.956 264.654 145.294 264.654 145.682H263.48C263.48 145.085 263.618 144.562 263.893 144.111C264.168 143.66 264.543 143.309 265.017 143.057C265.494 142.805 266.029 142.679 266.623 142.679C267.219 142.679 267.748 142.805 268.208 143.057C268.669 143.309 269.03 143.648 269.292 144.076C269.554 144.504 269.685 144.979 269.685 145.503C269.685 145.877 269.617 146.244 269.481 146.602C269.349 146.956 269.117 147.352 268.785 147.79C268.457 148.224 268.001 148.754 267.418 149.381L265.131 151.827V151.906H269.864V153H263.441ZM275.238 153.139C274.489 153.139 273.851 152.935 273.324 152.528C272.797 152.117 272.395 151.522 272.116 150.743C271.838 149.961 271.699 149.016 271.699 147.909C271.699 146.809 271.838 145.869 272.116 145.09C272.398 144.308 272.802 143.711 273.329 143.3C273.859 142.886 274.496 142.679 275.238 142.679C275.981 142.679 276.615 142.886 277.142 143.3C277.673 143.711 278.077 144.308 278.355 145.09C278.637 145.869 278.778 146.809 278.778 147.909C278.778 149.016 278.639 149.961 278.36 150.743C278.082 151.522 277.679 152.117 277.152 152.528C276.625 152.935 275.987 153.139 275.238 153.139ZM275.238 152.045C275.981 152.045 276.557 151.687 276.968 150.972C277.379 150.256 277.585 149.235 277.585 147.909C277.585 147.027 277.49 146.277 277.301 145.657C277.116 145.037 276.847 144.565 276.496 144.24C276.148 143.915 275.729 143.753 275.238 143.753C274.502 143.753 273.927 144.116 273.513 144.842C273.099 145.564 272.892 146.587 272.892 147.909C272.892 148.791 272.984 149.54 273.17 150.156C273.356 150.773 273.623 151.242 273.971 151.563C274.322 151.885 274.744 152.045 275.238 152.045Z" fill="#1F1F1F"/>
<rect x="296" y="126" width="48" height="44" fill="white"/>
<path d="M313.062 153V152.105L316.423 148.426C316.817 147.995 317.142 147.621 317.397 147.303C317.652 146.981 317.841 146.679 317.964 146.398C318.09 146.113 318.153 145.814 318.153 145.503C318.153 145.145 318.067 144.835 317.894 144.573C317.725 144.311 317.493 144.109 317.198 143.967C316.903 143.824 316.572 143.753 316.204 143.753C315.813 143.753 315.471 143.834 315.18 143.996C314.891 144.156 314.668 144.379 314.509 144.668C314.353 144.956 314.275 145.294 314.275 145.682H313.102C313.102 145.085 313.239 144.562 313.514 144.111C313.789 143.66 314.164 143.309 314.638 143.057C315.115 142.805 315.65 142.679 316.244 142.679C316.84 142.679 317.369 142.805 317.83 143.057C318.29 143.309 318.652 143.648 318.913 144.076C319.175 144.504 319.306 144.979 319.306 145.503C319.306 145.877 319.238 146.244 319.102 146.602C318.97 146.956 318.738 147.352 318.406 147.79C318.078 148.224 317.622 148.754 317.039 149.381L314.752 151.827V151.906H319.485V153H313.062ZM325.118 142.818V153H323.885V144.111H323.825L321.339 145.761V144.509L323.885 142.818H325.118Z" fill="#1F1F1F"/>
<path d="M8 174H32C44.1503 174 54 183.85 54 196V196C54 208.15 44.1503 218 32 218H8V174Z" fill="white"/>
<path d="M24.0774 201V200.105L27.4382 196.426C27.8326 195.995 28.1574 195.621 28.4126 195.303C28.6679 194.981 28.8568 194.679 28.9794 194.398C29.1054 194.113 29.1683 193.814 29.1683 193.503C29.1683 193.145 29.0821 192.835 28.9098 192.573C28.7408 192.311 28.5088 192.109 28.2138 191.967C27.9188 191.824 27.5874 191.753 27.2195 191.753C26.8284 191.753 26.487 191.834 26.1953 191.996C25.907 192.156 25.6832 192.379 25.5241 192.668C25.3684 192.956 25.2905 193.294 25.2905 193.682H24.1172C24.1172 193.085 24.2547 192.562 24.5298 192.111C24.8049 191.66 25.1795 191.309 25.6534 191.057C26.1307 190.805 26.666 190.679 27.2592 190.679C27.8558 190.679 28.3845 190.805 28.8452 191.057C29.3059 191.309 29.6671 191.648 29.929 192.076C30.1908 192.504 30.3217 192.979 30.3217 193.503C30.3217 193.877 30.2538 194.244 30.1179 194.602C29.9853 194.956 29.7533 195.352 29.4219 195.79C29.0938 196.224 28.638 196.754 28.0547 197.381L25.7678 199.827V199.906H30.5007V201H24.0774ZM32.554 201V200.105L35.9148 196.426C36.3092 195.995 36.634 195.621 36.8892 195.303C37.1444 194.981 37.3333 194.679 37.456 194.398C37.5819 194.113 37.6449 193.814 37.6449 193.503C37.6449 193.145 37.5587 192.835 37.3864 192.573C37.2173 192.311 36.9853 192.109 36.6903 191.967C36.3954 191.824 36.0639 191.753 35.696 191.753C35.3049 191.753 34.9635 191.834 34.6719 191.996C34.3835 192.156 34.1598 192.379 34.0007 192.668C33.8449 192.956 33.767 193.294 33.767 193.682H32.5938C32.5938 193.085 32.7313 192.562 33.0064 192.111C33.2815 191.66 33.656 191.309 34.13 191.057C34.6072 190.805 35.1425 190.679 35.7358 190.679C36.3324 190.679 36.861 190.805 37.3217 191.057C37.7824 191.309 38.1437 191.648 38.4055 192.076C38.6674 192.504 38.7983 192.979 38.7983 193.503C38.7983 193.877 38.7304 194.244 38.5945 194.602C38.4619 194.956 38.2299 195.352 37.8984 195.79C37.5703 196.224 37.1146 196.754 36.5312 197.381L34.2443 199.827V199.906H38.9773V201H32.554Z" fill="#1F1F1F"/>
<path d="M71.3587 201V200.105L74.7195 196.426C75.1139 195.995 75.4387 195.621 75.6939 195.303C75.9491 194.981 76.138 194.679 76.2607 194.398C76.3866 194.113 76.4496 193.814 76.4496 193.503C76.4496 193.145 76.3634 192.835 76.1911 192.573C76.022 192.311 75.79 192.109 75.495 191.967C75.2 191.824 74.8686 191.753 74.5007 191.753C74.1096 191.753 73.7682 191.834 73.4766 191.996C73.1882 192.156 72.9645 192.379 72.8054 192.668C72.6496 192.956 72.5717 193.294 72.5717 193.682H71.3984C71.3984 193.085 71.536 192.562 71.8111 192.111C72.0862 191.66 72.4607 191.309 72.9347 191.057C73.4119 190.805 73.9472 190.679 74.5405 190.679C75.1371 190.679 75.6657 190.805 76.1264 191.057C76.5871 191.309 76.9484 191.648 77.2102 192.076C77.4721 192.504 77.603 192.979 77.603 193.503C77.603 193.877 77.535 194.244 77.3991 194.602C77.2666 194.956 77.0346 195.352 76.7031 195.79C76.375 196.224 75.9193 196.754 75.3359 197.381L73.049 199.827V199.906H77.782V201H71.3587ZM83.2756 201.139C82.6193 201.139 82.0343 201.027 81.5206 200.801C81.0102 200.576 80.6042 200.263 80.3026 199.862C80.0043 199.457 79.8419 198.988 79.8153 198.455H81.0682C81.0947 198.783 81.2074 199.066 81.4062 199.305C81.6051 199.54 81.8653 199.722 82.1868 199.852C82.5083 199.981 82.8646 200.045 83.2557 200.045C83.6932 200.045 84.081 199.969 84.419 199.817C84.7571 199.664 85.0223 199.452 85.2145 199.18C85.4067 198.909 85.5028 198.594 85.5028 198.236C85.5028 197.861 85.41 197.531 85.2244 197.246C85.0388 196.958 84.767 196.733 84.4091 196.57C84.0511 196.408 83.6136 196.327 83.0966 196.327H82.2812V195.233H83.0966C83.5009 195.233 83.8556 195.16 84.1605 195.014C84.4688 194.868 84.709 194.663 84.8814 194.398C85.0571 194.133 85.1449 193.821 85.1449 193.463C85.1449 193.118 85.0687 192.818 84.9162 192.563C84.7637 192.308 84.5483 192.109 84.2699 191.967C83.9948 191.824 83.67 191.753 83.2955 191.753C82.9441 191.753 82.6127 191.817 82.3011 191.947C81.9929 192.073 81.741 192.257 81.5455 192.499C81.3499 192.737 81.2438 193.026 81.2273 193.364H80.0341C80.054 192.83 80.2147 192.363 80.5163 191.962C80.8179 191.557 81.2124 191.242 81.6996 191.017C82.1901 190.792 82.7287 190.679 83.3153 190.679C83.9451 190.679 84.4853 190.807 84.9361 191.062C85.3868 191.314 85.7332 191.647 85.9751 192.061C86.2171 192.475 86.3381 192.923 86.3381 193.403C86.3381 193.977 86.1873 194.466 85.8857 194.87C85.5874 195.274 85.1813 195.554 84.6676 195.71V195.79C85.3106 195.896 85.8127 196.169 86.174 196.61C86.5353 197.048 86.7159 197.589 86.7159 198.236C86.7159 198.789 86.5651 199.286 86.2635 199.727C85.9652 200.165 85.5575 200.509 85.0405 200.761C84.5234 201.013 83.9351 201.139 83.2756 201.139Z" fill="#1F1F1F"/>
<path d="M119.434 201V200.105L122.795 196.426C123.189 195.995 123.514 195.621 123.769 195.303C124.024 194.981 124.213 194.679 124.336 194.398C124.462 194.113 124.525 193.814 124.525 193.503C124.525 193.145 124.439 192.835 124.266 192.573C124.097 192.311 123.865 192.109 123.57 191.967C123.275 191.824 122.944 191.753 122.576 191.753C122.185 191.753 121.843 191.834 121.552 191.996C121.263 192.156 121.04 192.379 120.881 192.668C120.725 192.956 120.647 193.294 120.647 193.682H119.474C119.474 193.085 119.611 192.562 119.886 192.111C120.161 191.66 120.536 191.309 121.01 191.057C121.487 190.805 122.022 190.679 122.616 190.679C123.212 190.679 123.741 190.805 124.202 191.057C124.662 191.309 125.024 191.648 125.285 192.076C125.547 192.504 125.678 192.979 125.678 193.503C125.678 193.877 125.61 194.244 125.474 194.602C125.342 194.956 125.11 195.352 124.778 195.79C124.45 196.224 123.994 196.754 123.411 197.381L121.124 199.827V199.906H125.857V201H119.434ZM127.453 198.912V197.898L131.927 190.818H132.663V192.389H132.166L128.785 197.739V197.818H134.811V198.912H127.453ZM132.246 201V198.604V198.131V190.818H133.419V201H132.246Z" fill="#1F1F1F"/>
<path d="M168.057 201V200.105L171.418 196.426C171.812 195.995 172.137 195.621 172.392 195.303C172.647 194.981 172.836 194.679 172.959 194.398C173.085 194.113 173.148 193.814 173.148 193.503C173.148 193.145 173.062 192.835 172.889 192.573C172.72 192.311 172.488 192.109 172.193 191.967C171.898 191.824 171.567 191.753 171.199 191.753C170.808 191.753 170.466 191.834 170.175 191.996C169.886 192.156 169.663 192.379 169.504 192.668C169.348 192.956 169.27 193.294 169.27 193.682H168.097C168.097 193.085 168.234 192.562 168.509 192.111C168.784 191.66 169.159 191.309 169.633 191.057C170.11 190.805 170.645 190.679 171.239 190.679C171.835 190.679 172.364 190.805 172.825 191.057C173.285 191.309 173.647 191.648 173.908 192.076C174.17 192.504 174.301 192.979 174.301 193.503C174.301 193.877 174.233 194.244 174.097 194.602C173.965 194.956 173.733 195.352 173.401 195.79C173.073 196.224 172.618 196.754 172.034 197.381L169.747 199.827V199.906H174.48V201H168.057ZM179.715 201.139C179.132 201.139 178.607 201.023 178.139 200.791C177.672 200.559 177.297 200.241 177.016 199.837C176.734 199.432 176.58 198.972 176.553 198.455H177.747C177.793 198.915 178.002 199.296 178.373 199.598C178.747 199.896 179.195 200.045 179.715 200.045C180.133 200.045 180.504 199.948 180.829 199.752C181.157 199.557 181.414 199.288 181.6 198.947C181.788 198.602 181.883 198.213 181.883 197.778C181.883 197.334 181.785 196.938 181.59 196.59C181.397 196.239 181.132 195.962 180.794 195.76C180.456 195.558 180.07 195.455 179.636 195.452C179.324 195.448 179.004 195.496 178.676 195.596C178.348 195.692 178.078 195.816 177.866 195.969L176.712 195.83L177.329 190.818H182.619V191.912H178.363L178.005 194.915H178.065C178.274 194.749 178.535 194.612 178.85 194.502C179.165 194.393 179.493 194.338 179.835 194.338C180.458 194.338 181.013 194.487 181.5 194.786C181.991 195.08 182.375 195.485 182.653 195.999C182.935 196.512 183.076 197.099 183.076 197.759C183.076 198.408 182.93 198.988 182.639 199.499C182.35 200.006 181.953 200.407 181.445 200.702C180.938 200.993 180.362 201.139 179.715 201.139Z" fill="#1F1F1F"/>
<path d="M215.448 201V200.105L218.808 196.426C219.203 195.995 219.528 195.621 219.783 195.303C220.038 194.981 220.227 194.679 220.35 194.398C220.475 194.113 220.538 193.814 220.538 193.503C220.538 193.145 220.452 192.835 220.28 192.573C220.111 192.311 219.879 192.109 219.584 191.967C219.289 191.824 218.957 191.753 218.59 191.753C218.198 191.753 217.857 191.834 217.565 191.996C217.277 192.156 217.053 192.379 216.894 192.668C216.738 192.956 216.661 193.294 216.661 193.682H215.487C215.487 193.085 215.625 192.562 215.9 192.111C216.175 191.66 216.55 191.309 217.024 191.057C217.501 190.805 218.036 190.679 218.629 190.679C219.226 190.679 219.755 190.805 220.215 191.057C220.676 191.309 221.037 191.648 221.299 192.076C221.561 192.504 221.692 192.979 221.692 193.503C221.692 193.877 221.624 194.244 221.488 194.602C221.355 194.956 221.123 195.352 220.792 195.79C220.464 196.224 220.008 196.754 219.425 197.381L217.138 199.827V199.906H221.871V201H215.448ZM227.305 201.139C226.887 201.133 226.47 201.053 226.052 200.901C225.634 200.748 225.253 200.491 224.908 200.13C224.564 199.765 224.287 199.273 224.078 198.653C223.869 198.03 223.765 197.248 223.765 196.307C223.765 195.405 223.85 194.607 224.019 193.911C224.188 193.211 224.433 192.623 224.754 192.146C225.076 191.665 225.464 191.3 225.918 191.052C226.375 190.803 226.89 190.679 227.464 190.679C228.034 190.679 228.541 190.793 228.985 191.022C229.433 191.247 229.797 191.562 230.079 191.967C230.361 192.371 230.543 192.837 230.626 193.364H229.413C229.3 192.906 229.081 192.527 228.756 192.225C228.432 191.924 228.001 191.773 227.464 191.773C226.675 191.773 226.054 192.116 225.6 192.802C225.149 193.488 224.922 194.451 224.918 195.69H224.998C225.184 195.409 225.404 195.168 225.659 194.969C225.918 194.767 226.203 194.612 226.514 194.502C226.826 194.393 227.156 194.338 227.504 194.338C228.087 194.338 228.621 194.484 229.104 194.776C229.588 195.064 229.976 195.463 230.268 195.974C230.56 196.481 230.705 197.062 230.705 197.719C230.705 198.348 230.564 198.925 230.283 199.449C230.001 199.969 229.605 200.384 229.095 200.692C228.587 200.997 227.991 201.146 227.305 201.139ZM227.305 200.045C227.722 200.045 228.097 199.941 228.428 199.732C228.763 199.523 229.027 199.243 229.219 198.892C229.414 198.541 229.512 198.15 229.512 197.719C229.512 197.298 229.418 196.915 229.229 196.57C229.043 196.222 228.786 195.946 228.458 195.74C228.133 195.535 227.762 195.432 227.345 195.432C227.03 195.432 226.736 195.495 226.465 195.621C226.193 195.743 225.954 195.912 225.749 196.128C225.546 196.343 225.387 196.59 225.271 196.869C225.155 197.144 225.097 197.434 225.097 197.739C225.097 198.143 225.192 198.521 225.381 198.872C225.573 199.223 225.835 199.507 226.166 199.722C226.501 199.938 226.881 200.045 227.305 200.045Z" fill="#1F1F1F"/>
<path d="M264.317 201V200.105L267.677 196.426C268.072 195.995 268.397 195.621 268.652 195.303C268.907 194.981 269.096 194.679 269.219 194.398C269.345 194.113 269.408 193.814 269.408 193.503C269.408 193.145 269.321 192.835 269.149 192.573C268.98 192.311 268.748 192.109 268.453 191.967C268.158 191.824 267.827 191.753 267.459 191.753C267.068 191.753 266.726 191.834 266.435 191.996C266.146 192.156 265.922 192.379 265.763 192.668C265.608 192.956 265.53 193.294 265.53 193.682H264.356C264.356 193.085 264.494 192.562 264.769 192.111C265.044 191.66 265.419 191.309 265.893 191.057C266.37 190.805 266.905 190.679 267.498 190.679C268.095 190.679 268.624 190.805 269.084 191.057C269.545 191.309 269.906 191.648 270.168 192.076C270.43 192.504 270.561 192.979 270.561 193.503C270.561 193.877 270.493 194.244 270.357 194.602C270.225 194.956 269.993 195.352 269.661 195.79C269.333 196.224 268.877 196.754 268.294 197.381L266.007 199.827V199.906H270.74V201H264.317ZM273.111 201L277.665 191.991V191.912H272.415V190.818H278.938V191.972L274.404 201H273.111Z" fill="#1F1F1F"/>
<path d="M311.502 201V200.105L314.863 196.426C315.257 195.995 315.582 195.621 315.837 195.303C316.093 194.981 316.282 194.679 316.404 194.398C316.53 194.113 316.593 193.814 316.593 193.503C316.593 193.145 316.507 192.835 316.335 192.573C316.166 192.311 315.934 192.109 315.639 191.967C315.344 191.824 315.012 191.753 314.644 191.753C314.253 191.753 313.912 191.834 313.62 191.996C313.332 192.156 313.108 192.379 312.949 192.668C312.793 192.956 312.715 193.294 312.715 193.682H311.542C311.542 193.085 311.68 192.562 311.955 192.111C312.23 191.66 312.604 191.309 313.078 191.057C313.555 190.805 314.091 190.679 314.684 190.679C315.281 190.679 315.809 190.805 316.27 191.057C316.731 191.309 317.092 191.648 317.354 192.076C317.616 192.504 317.747 192.979 317.747 193.503C317.747 193.877 317.679 194.244 317.543 194.602C317.41 194.956 317.178 195.352 316.847 195.79C316.519 196.224 316.063 196.754 315.479 197.381L313.193 199.827V199.906H317.926V201H311.502ZM323.24 201.139C322.557 201.139 321.954 201.018 321.43 200.776C320.91 200.531 320.504 200.195 320.212 199.767C319.921 199.336 319.777 198.846 319.78 198.295C319.777 197.865 319.861 197.467 320.033 197.102C320.206 196.734 320.441 196.428 320.739 196.183C321.041 195.934 321.377 195.777 321.749 195.71V195.651C321.261 195.525 320.874 195.251 320.585 194.83C320.297 194.406 320.154 193.924 320.158 193.384C320.154 192.866 320.285 192.404 320.551 191.996C320.816 191.589 321.18 191.267 321.644 191.032C322.112 190.797 322.644 190.679 323.24 190.679C323.83 190.679 324.357 190.797 324.821 191.032C325.285 191.267 325.65 191.589 325.915 191.996C326.183 192.404 326.319 192.866 326.323 193.384C326.319 193.924 326.172 194.406 325.88 194.83C325.592 195.251 325.209 195.525 324.732 195.651V195.71C325.1 195.777 325.431 195.934 325.726 196.183C326.021 196.428 326.256 196.734 326.432 197.102C326.608 197.467 326.697 197.865 326.7 198.295C326.697 198.846 326.548 199.336 326.253 199.767C325.961 200.195 325.555 200.531 325.035 200.776C324.518 201.018 323.92 201.139 323.24 201.139ZM323.24 200.045C323.701 200.045 324.099 199.971 324.433 199.822C324.768 199.673 325.027 199.462 325.209 199.19C325.391 198.919 325.484 198.6 325.487 198.236C325.484 197.851 325.385 197.512 325.189 197.217C324.993 196.922 324.727 196.69 324.389 196.521C324.054 196.352 323.671 196.267 323.24 196.267C322.806 196.267 322.418 196.352 322.077 196.521C321.739 196.69 321.472 196.922 321.276 197.217C321.084 197.512 320.99 197.851 320.993 198.236C320.99 198.6 321.078 198.919 321.256 199.19C321.439 199.462 321.699 199.673 322.037 199.822C322.375 199.971 322.776 200.045 323.24 200.045ZM323.24 195.213C323.605 195.213 323.928 195.14 324.21 194.994C324.495 194.848 324.718 194.645 324.881 194.383C325.043 194.121 325.126 193.814 325.129 193.463C325.126 193.118 325.045 192.818 324.886 192.563C324.727 192.305 324.506 192.106 324.225 191.967C323.943 191.824 323.615 191.753 323.24 191.753C322.859 191.753 322.526 191.824 322.241 191.967C321.956 192.106 321.735 192.305 321.58 192.563C321.424 192.818 321.348 193.118 321.351 193.463C321.348 193.814 321.426 194.121 321.585 194.383C321.747 194.645 321.971 194.848 322.256 194.994C322.541 195.14 322.869 195.213 323.24 195.213Z" fill="#1F1F1F"/>
<path d="M23.4475 249V248.105L26.8083 244.426C27.2027 243.995 27.5276 243.621 27.7828 243.303C28.038 242.981 28.2269 242.679 28.3495 242.398C28.4755 242.113 28.5384 241.814 28.5384 241.503C28.5384 241.145 28.4523 240.835 28.2799 240.573C28.1109 240.311 27.8789 240.109 27.5839 239.967C27.2889 239.824 26.9575 239.753 26.5896 239.753C26.1985 239.753 25.8571 239.834 25.5654 239.996C25.2771 240.156 25.0534 240.379 24.8943 240.668C24.7385 240.956 24.6606 241.294 24.6606 241.682H23.4873C23.4873 241.085 23.6249 240.562 23.8999 240.111C24.175 239.66 24.5496 239.309 25.0235 239.057C25.5008 238.805 26.0361 238.679 26.6294 238.679C27.2259 238.679 27.7546 238.805 28.2153 239.057C28.676 239.309 29.0373 239.648 29.2991 240.076C29.5609 240.504 29.6919 240.979 29.6919 241.503C29.6919 241.877 29.6239 242.244 29.488 242.602C29.3554 242.956 29.1234 243.352 28.792 243.79C28.4639 244.224 28.0081 244.754 27.4248 245.381L25.1379 247.827V247.906H29.8708V249H23.4475ZM35.1656 238.679C35.5832 238.682 36.0008 238.762 36.4184 238.918C36.836 239.073 37.2172 239.332 37.5619 239.693C37.9066 240.051 38.1833 240.54 38.3921 241.16C38.6009 241.78 38.7053 242.557 38.7053 243.491C38.7053 244.396 38.6192 245.2 38.4468 245.903C38.2778 246.602 38.0325 247.192 37.711 247.673C37.3928 248.153 37.0051 248.518 36.5477 248.766C36.0936 249.015 35.5799 249.139 35.0065 249.139C34.4364 249.139 33.9276 249.027 33.4802 248.801C33.0361 248.572 32.6715 248.256 32.3865 247.852C32.1047 247.444 31.9241 246.972 31.8445 246.435H33.0576C33.167 246.902 33.3841 247.288 33.7089 247.593C34.037 247.895 34.4695 248.045 35.0065 248.045C35.792 248.045 36.4118 247.702 36.8659 247.016C37.3232 246.33 37.5519 245.361 37.5519 244.108H37.4724C37.2868 244.386 37.0664 244.627 36.8112 244.829C36.556 245.031 36.2726 245.187 35.961 245.296C35.6495 245.406 35.318 245.46 34.9667 245.46C34.3834 245.46 33.8481 245.316 33.3609 245.028C32.877 244.736 32.4892 244.337 32.1975 243.83C31.9092 243.319 31.765 242.736 31.765 242.08C31.765 241.456 31.9042 240.886 32.1826 240.369C32.4643 239.849 32.8588 239.435 33.3659 239.126C33.8763 238.818 34.4762 238.669 35.1656 238.679ZM35.1656 239.773C34.748 239.773 34.3718 239.877 34.037 240.086C33.7056 240.291 33.4421 240.57 33.2465 240.921C33.0543 241.269 32.9582 241.655 32.9582 242.08C32.9582 242.504 33.051 242.89 33.2366 243.238C33.4255 243.583 33.6824 243.858 34.0072 244.063C34.3353 244.265 34.7082 244.366 35.1258 244.366C35.4407 244.366 35.734 244.305 36.0058 244.183C36.2776 244.057 36.5145 243.886 36.7167 243.67C36.9222 243.452 37.0829 243.205 37.199 242.93C37.315 242.651 37.373 242.361 37.373 242.06C37.373 241.662 37.2768 241.289 37.0846 240.941C36.8957 240.593 36.6338 240.311 36.2991 240.096C35.9677 239.88 35.5898 239.773 35.1656 239.773Z" fill="#1F1F1F"/>
<path d="M74.6623 249.139C74.006 249.139 73.421 249.027 72.9073 248.801C72.3969 248.576 71.9909 248.263 71.6893 247.862C71.391 247.457 71.2286 246.988 71.2021 246.455H72.4549C72.4814 246.783 72.5941 247.066 72.793 247.305C72.9918 247.54 73.252 247.722 73.5735 247.852C73.895 247.981 74.2513 248.045 74.6424 248.045C75.0799 248.045 75.4677 247.969 75.8058 247.817C76.1438 247.664 76.409 247.452 76.6012 247.18C76.7934 246.909 76.8896 246.594 76.8896 246.236C76.8896 245.861 76.7968 245.531 76.6112 245.246C76.4255 244.958 76.1538 244.733 75.7958 244.57C75.4379 244.408 75.0004 244.327 74.4833 244.327H73.668V243.233H74.4833C74.8877 243.233 75.2423 243.16 75.5472 243.014C75.8555 242.868 76.0958 242.663 76.2681 242.398C76.4438 242.133 76.5316 241.821 76.5316 241.463C76.5316 241.118 76.4554 240.818 76.3029 240.563C76.1504 240.308 75.935 240.109 75.6566 239.967C75.3815 239.824 75.0567 239.753 74.6822 239.753C74.3308 239.753 73.9994 239.817 73.6879 239.947C73.3796 240.073 73.1277 240.257 72.9322 240.499C72.7366 240.737 72.6306 241.026 72.614 241.364H71.4208C71.4407 240.83 71.6014 240.363 71.9031 239.962C72.2047 239.557 72.5991 239.242 73.0863 239.017C73.5768 238.792 74.1154 238.679 74.7021 238.679C75.3318 238.679 75.872 238.807 76.3228 239.062C76.7736 239.314 77.1199 239.647 77.3619 240.061C77.6038 240.475 77.7248 240.923 77.7248 241.403C77.7248 241.977 77.574 242.466 77.2724 242.87C76.9741 243.274 76.5681 243.554 76.0543 243.71V243.79C76.6973 243.896 77.1995 244.169 77.5607 244.61C77.922 245.048 78.1026 245.589 78.1026 246.236C78.1026 246.789 77.9518 247.286 77.6502 247.727C77.3519 248.165 76.9442 248.509 76.4272 248.761C75.9102 249.013 75.3219 249.139 74.6623 249.139ZM83.457 249.139C82.708 249.139 82.07 248.935 81.543 248.528C81.016 248.117 80.6133 247.522 80.3349 246.743C80.0565 245.961 79.9173 245.016 79.9173 243.909C79.9173 242.809 80.0565 241.869 80.3349 241.09C80.6166 240.308 81.021 239.711 81.5479 239.3C82.0782 238.886 82.7146 238.679 83.457 238.679C84.1995 238.679 84.8342 238.886 85.3612 239.3C85.8915 239.711 86.2958 240.308 86.5742 241.09C86.8559 241.869 86.9968 242.809 86.9968 243.909C86.9968 245.016 86.8576 245.961 86.5792 246.743C86.3008 247.522 85.8981 248.117 85.3711 248.528C84.8441 248.935 84.2061 249.139 83.457 249.139ZM83.457 248.045C84.1995 248.045 84.7762 247.687 85.1871 246.972C85.5981 246.256 85.8036 245.235 85.8036 243.909C85.8036 243.027 85.7092 242.277 85.5202 241.657C85.3346 241.037 85.0662 240.565 84.7148 240.24C84.3668 239.915 83.9476 239.753 83.457 239.753C82.7212 239.753 82.1462 240.116 81.7319 240.842C81.3176 241.564 81.1104 242.587 81.1104 243.909C81.1104 244.791 81.2032 245.54 81.3888 246.156C81.5745 246.773 81.8413 247.242 82.1893 247.563C82.5406 247.885 82.9632 248.045 83.457 248.045Z" fill="#1F1F1F"/>
<g clip-path="url(#clip1_88_68)">
<path d="M297.204 45.6245C297.204 45.6245 297.204 45.628 297.204 45.6315C297.201 45.3189 297.197 45.5437 297.204 45.6245Z" fill="#C681A7"/>
<path d="M340.232 38.314C339.377 36.0306 337.919 33.972 335.863 32.623C333.8 31.267 331.212 30.7541 328.776 31.1089C326.322 31.4672 324.121 32.6406 322.364 34.3689C320.621 36.0798 319.378 38.2789 318.636 40.5904C318.621 40.6326 318.611 40.6747 318.597 40.7134C316.981 37.4217 314.28 34.5586 310.728 33.4169C308.636 32.7424 306.429 32.6862 304.309 33.2588C302.264 33.8139 300.429 34.9697 299.046 36.5751C296.074 40.0283 295.194 45.1503 296.775 49.408C298.271 53.4374 301.549 56.3988 305.101 58.6647C306.932 59.8345 308.844 60.8708 310.678 62.0336C311.587 62.6097 312.481 63.2105 313.33 63.8709C313.534 64.029 313.734 64.1871 313.932 64.3522C313.932 64.3522 314.023 64.4295 314.037 64.44C314.08 64.4751 314.122 64.5138 314.164 64.5489C314.27 64.6402 314.375 64.7316 314.477 64.8264C314.879 65.1883 315.263 65.5642 315.629 65.9611C316.002 66.3616 316.35 66.7796 316.681 67.2152C317.009 67.6473 317.407 67.1169 317.495 66.7902C317.636 66.2703 317.622 65.6133 317.28 65.1672C314.668 61.7315 310.826 59.6307 307.186 57.4632C306.309 56.9433 305.439 56.4129 304.594 55.8402C304.193 55.5697 303.799 55.2852 303.411 54.9971C303.218 54.8496 303.024 54.702 302.834 54.551C302.746 54.4807 302.661 54.414 302.573 54.3437C302.521 54.3016 302.471 54.2594 302.418 54.2172C302.397 54.1997 302.373 54.1821 302.352 54.161C302.345 54.154 302.33 54.1435 302.306 54.1224C301.559 53.4795 300.845 52.798 300.197 52.0533C299.873 51.6809 299.56 51.2945 299.271 50.894C299.141 50.7148 299.014 50.5356 298.894 50.3495C298.887 50.3389 298.88 50.3249 298.873 50.3178C298.838 50.2616 298.803 50.2054 298.767 50.1492C298.7 50.0368 298.634 49.9244 298.567 49.812C298.317 49.3764 298.091 48.9267 297.894 48.463C297.852 48.3611 297.813 48.2592 297.771 48.1574C297.88 48.4138 297.789 48.203 297.771 48.1503C297.75 48.0871 297.725 48.0274 297.704 47.9642C297.623 47.7358 297.553 47.5004 297.489 47.2651C297.454 47.1351 297.419 47.0051 297.391 46.8751C297.38 46.8365 297.373 46.7943 297.363 46.7557C297.313 46.4922 297.267 46.2287 297.236 45.9618C297.222 45.8529 297.211 45.744 297.201 45.635C297.201 45.6491 297.201 45.6596 297.201 45.6737C297.201 45.6175 297.194 45.5613 297.19 45.5051C297.179 45.2486 297.176 44.9887 297.183 44.7322C297.183 44.6479 297.186 44.5601 297.19 44.4758C297.19 44.4687 297.19 44.4582 297.19 44.4442C297.197 44.3774 297.201 44.3107 297.208 44.2439C297.236 43.9769 297.271 43.7099 297.317 43.4465C297.331 43.3727 297.348 43.2989 297.363 43.2251C297.363 43.197 297.37 43.1619 297.373 43.1408C297.373 43.1408 297.373 43.1338 297.373 43.1303C297.373 43.1268 297.373 43.1233 297.373 43.1162C297.373 43.1198 297.373 43.1233 297.373 43.1268C297.384 43.0881 297.391 43.046 297.401 43.0073C297.465 42.7474 297.535 42.4874 297.616 42.2345C297.651 42.1291 297.683 42.0237 297.722 41.9183C297.743 41.8551 297.767 41.7919 297.789 41.7286C297.796 41.704 297.81 41.6584 297.817 41.6267C297.884 41.416 298 41.2087 298.091 41.0155C298.299 40.5764 298.521 40.1021 298.81 39.7087C298.679 39.8878 298.877 39.6103 298.908 39.5646C298.982 39.4557 299.06 39.3503 299.137 39.2449C299.281 39.0517 299.429 38.8655 299.584 38.6829C299.905 38.3035 300.257 37.9487 300.63 37.6184C300.63 37.6184 300.669 37.5833 300.7 37.5587C300.728 37.5341 300.785 37.4885 300.785 37.4885C300.89 37.4042 300.996 37.3198 301.105 37.239C301.309 37.088 301.517 36.944 301.732 36.8069C302.176 36.5259 302.644 36.28 303.126 36.0692C304.084 35.6547 304.943 35.4263 305.982 35.3069C306.971 35.191 307.978 35.2156 308.96 35.3737C309.932 35.5317 310.809 35.8057 311.735 36.2449C312.608 36.6594 313.425 37.1863 314.171 37.7941C314.21 37.8257 314.245 37.8573 314.284 37.8854C314.305 37.903 314.372 37.9592 314.379 37.9662C314.46 38.0365 314.541 38.1103 314.622 38.184C314.815 38.3597 315.002 38.5424 315.185 38.7321C315.523 39.0798 315.843 39.4417 316.143 39.8211C316.294 40.0108 316.442 40.2075 316.583 40.4042C316.646 40.4956 316.71 40.5869 316.773 40.6782C316.812 40.7345 316.847 40.7907 316.886 40.8434C316.889 40.8504 316.893 40.8539 316.896 40.8609C316.903 40.8715 316.914 40.889 316.928 40.9136C317.195 41.3387 317.445 41.7778 317.667 42.2275C317.776 42.4488 317.882 42.6736 317.981 42.8984C318.026 43.0003 318.069 43.1057 318.114 43.2076C318.139 43.2708 318.164 43.3341 318.192 43.3938C318.192 43.3938 318.192 43.4008 318.192 43.4043C318.283 43.6502 318.445 44.0612 318.783 43.9699C319.125 43.8786 319.216 43.4184 319.276 43.1268C319.29 43.0636 319.304 43.0003 319.319 42.9371C319.354 42.7825 319.392 42.6279 319.435 42.4734C319.509 42.1994 319.59 41.9289 319.678 41.6584C319.72 41.5284 319.766 41.4019 319.811 41.2719C319.836 41.2087 319.857 41.1455 319.882 41.0822C319.892 41.0506 319.907 41.019 319.917 40.9874C319.914 40.9979 319.91 41.012 319.907 41.0225C319.907 41.019 319.91 41.012 319.914 41.0085C320.019 40.7485 320.132 40.4885 320.252 40.2356C320.495 39.7192 320.766 39.2168 321.068 38.7321C321.075 38.7215 321.097 38.6829 321.118 38.6513C321.128 38.6372 321.188 38.5424 321.202 38.5248C321.29 38.3948 321.378 38.2683 321.466 38.1419C321.628 37.917 321.794 37.6992 321.97 37.4849C322.322 37.0529 322.702 36.6418 323.107 36.2589C323.202 36.1711 323.297 36.0798 323.396 35.9954C323.445 35.9533 323.494 35.9111 323.544 35.8655C323.544 35.8655 323.547 35.862 323.551 35.8584C323.582 35.8303 323.618 35.8022 323.649 35.7776C323.857 35.609 324.072 35.4439 324.294 35.2893C325.251 34.6149 326.314 34.0949 327.438 33.7612C327.916 33.6207 328.54 33.4977 329.103 33.4345C329.695 33.3677 330.293 33.3502 330.885 33.3853C332.092 33.4556 333.156 33.7085 334.247 34.2038C334.779 34.4427 335.286 34.7343 335.761 35.068C335.867 35.1418 335.969 35.2156 336.071 35.2929C336.12 35.3315 336.173 35.3701 336.222 35.4123C336.247 35.4334 336.271 35.4509 336.296 35.472C336.303 35.479 336.363 35.5282 336.384 35.5458C336.412 35.5704 336.458 35.6125 336.472 35.6231C336.521 35.6652 336.567 35.7074 336.617 35.7531C336.719 35.8479 336.821 35.9428 336.919 36.0446C337.31 36.4346 337.666 36.8561 337.99 37.3058C338.067 37.4112 338.141 37.5201 338.215 37.629C338.218 37.636 338.226 37.643 338.229 37.6501C338.229 37.6536 338.233 37.6571 338.236 37.6641C338.282 37.7379 338.328 37.8117 338.373 37.8889C338.514 38.1243 338.648 38.3632 338.775 38.6091C338.905 38.8655 339.025 39.1255 339.134 39.389C339.155 39.4452 339.176 39.5014 339.201 39.5576C339.201 39.5646 339.208 39.5752 339.211 39.5822C339.261 39.7157 339.306 39.8527 339.352 39.9897C339.44 40.2637 339.518 40.5412 339.585 40.8223C339.595 40.8679 339.606 40.9136 339.616 40.9593C339.616 40.9698 339.62 40.9804 339.623 40.9909C339.651 41.1314 339.676 41.2754 339.697 41.416C339.718 41.5495 339.736 41.6794 339.75 41.8129C339.757 41.8797 339.764 41.9464 339.771 42.0132C339.775 42.0624 339.782 42.1748 339.782 42.2099C339.789 42.4277 339.796 42.6455 339.792 42.8668C339.792 42.9336 339.792 43.0003 339.785 43.0671C339.785 43.0881 339.782 43.1514 339.778 43.1935C339.778 43.2076 339.778 43.2181 339.778 43.2251C339.771 43.3235 339.761 43.4184 339.75 43.5167C339.715 43.8118 339.641 44.1069 339.609 44.402V44.409C339.592 44.4793 339.578 44.5495 339.56 44.6198C339.521 44.7814 339.475 44.9465 339.43 45.1046C339.349 45.3751 339.257 45.6386 339.162 45.902C339.152 45.9266 339.141 45.9582 339.134 45.9828C339.106 46.0496 339.081 46.1163 339.053 46.1831C338.99 46.3376 338.919 46.4922 338.849 46.6433C338.722 46.9138 338.588 47.1808 338.444 47.4442C338.296 47.7182 338.138 47.9887 337.976 48.2522C337.937 48.3119 337.898 48.3752 337.859 48.4349C337.937 48.3084 337.859 48.4384 337.824 48.4911C337.74 48.6211 337.652 48.7475 337.56 48.8775C337.212 49.3729 336.838 49.8506 336.444 50.3108C334.705 52.3413 332.599 54.01 330.575 55.7419C328.853 57.2138 327.159 58.7314 325.526 60.3017C323.959 61.8053 322.47 63.3931 321.185 65.1461C319.745 67.1063 318.59 69.2282 317.727 71.4976C317.509 72.0737 317.312 72.6568 317.136 73.247C317.051 73.5316 317.034 73.8688 317.076 74.1604C317.107 74.3747 317.185 74.7049 317.35 74.87C317.727 75.2494 318.051 74.8208 318.164 74.445C318.255 74.1358 318.354 73.8267 318.459 73.521C318.512 73.37 318.565 73.2189 318.618 73.0714C318.667 72.9344 318.755 72.7763 318.783 72.6323C318.79 72.6112 318.801 72.5901 318.808 72.569C318.836 72.5023 318.861 72.4355 318.889 72.3688C318.949 72.2283 319.005 72.0842 319.069 71.9437C319.192 71.6557 319.322 71.3676 319.459 71.0865C319.713 70.5526 319.988 70.0327 320.28 69.5198C320.424 69.2703 320.572 69.0209 320.723 68.775C320.797 68.6521 320.875 68.5326 320.952 68.4097C320.959 68.3991 320.963 68.3921 320.966 68.3886C320.966 68.3851 320.973 68.3816 320.973 68.3745C321.016 68.3113 321.058 68.2481 321.1 68.1813C322.343 66.323 323.822 64.6367 325.406 63.0629C327.001 61.4751 328.688 59.9785 330.378 58.4925C332.441 56.6763 334.638 54.9971 336.511 52.9701C338.282 51.0556 339.739 48.7897 340.472 46.2744C341.225 43.6889 341.172 40.8609 340.225 38.3316L340.232 38.314ZM338.254 37.6536C338.268 37.6711 338.282 37.6887 338.289 37.7063C338.289 37.7063 338.268 37.6747 338.254 37.6536Z" fill="#DAB7FF"/>
<path d="M319.931 41.0225C319.907 41.0963 319.892 41.1174 319.931 41.0225Z" fill="#C681A7"/>
<path d="M297.377 43.2251C297.37 43.2954 297.377 43.334 297.391 43.1268C297.391 43.1584 297.384 43.19 297.377 43.2216V43.2251Z" fill="#C681A7"/>
</g>
</g>
<defs>
<clipPath id="clip0_88_68">
<rect width="352" height="263" fill="white"/>
</clipPath>
<clipPath id="clip1_88_68">
<rect width="45" height="44" fill="white" transform="translate(296 30)"/>
</clipPath>
</defs>
</svg>
