<svg width="377" height="373" viewBox="0 0 377 373" fill="none" xmlns="http://www.w3.org/2000/svg">
<path d="M183.08 70.26H182.76C182.213 70.26 181.693 70.2 181.2 70.08C180.72 69.9733 180.353 69.8333 180.1 69.66L181.12 67.22H181.22C181.407 68.1133 181.713 68.8067 182.14 69.3C182.567 69.78 182.987 70.02 183.4 70.02C183.76 70.0067 184.047 69.8333 184.26 69.5C184.487 69.1533 184.6 68.62 184.6 67.9L184.62 57.2C184.62 56.9067 184.527 56.6467 184.34 56.42C184.167 56.1933 183.94 56.08 183.66 56.08V56.04H187.5V56.08C187.207 56.08 186.973 56.1933 186.8 56.42C186.627 56.6333 186.533 56.8933 186.52 57.2V67.3C186.52 68.0067 186.353 68.5733 186.02 69C185.687 69.4133 185.26 69.72 184.74 69.92C184.22 70.12 183.667 70.2333 183.08 70.26ZM194.821 70.24C193.927 70.2267 193.141 70.0533 192.461 69.72C191.781 69.3867 191.227 68.92 190.801 68.32C190.387 67.72 190.181 66.9867 190.181 66.12V57.2C190.181 56.9067 190.094 56.6467 189.921 56.42C189.747 56.1933 189.514 56.08 189.221 56.08V56.04H193.061V56.08C192.767 56.08 192.534 56.1933 192.361 56.42C192.187 56.6467 192.101 56.9067 192.101 57.2V66.02C192.101 66.8067 192.254 67.4667 192.561 68C192.881 68.52 193.287 68.9133 193.781 69.18C194.274 69.4467 194.807 69.5867 195.381 69.6C195.981 69.6 196.561 69.4467 197.121 69.14C197.681 68.8333 198.141 68.3667 198.501 67.74C198.861 67.1133 199.041 66.3267 199.041 65.38V59.88C199.041 59.3467 199.014 58.7867 198.961 58.2C198.907 57.6133 198.774 57.1133 198.561 56.7C198.361 56.2867 198.034 56.08 197.581 56.08V56.04H200.761L208.001 67.4L207.981 59.28C207.981 58.8267 207.954 58.3533 207.901 57.86C207.847 57.3667 207.714 56.9533 207.501 56.62C207.301 56.2733 206.974 56.0933 206.521 56.08V56.04H209.881V56.08C209.427 56.0933 209.094 56.2733 208.881 56.62C208.681 56.9533 208.554 57.3667 208.501 57.86C208.447 58.3533 208.421 58.8267 208.421 59.28V70H207.161L199.481 57.8L199.461 65.84C199.461 66.8267 199.234 67.6467 198.781 68.3C198.327 68.9533 197.747 69.44 197.041 69.76C196.334 70.08 195.594 70.24 194.821 70.24ZM220.164 70H211.604V69.94C211.897 69.94 212.13 69.8267 212.304 69.6C212.477 69.3733 212.564 69.12 212.564 68.84V57.2C212.564 56.9067 212.477 56.6533 212.304 56.44C212.13 56.2133 211.897 56.0933 211.604 56.08V56.04H219.644L220.084 58.98H219.944C219.744 58.4067 219.557 57.9667 219.384 57.66C219.17 57.26 218.864 56.9333 218.464 56.68C218.064 56.4267 217.484 56.3 216.724 56.3H215.404C215.137 56.3 214.917 56.3867 214.744 56.56C214.57 56.72 214.484 56.9867 214.484 57.36V62.82H217.524C217.91 62.82 218.23 62.6867 218.484 62.42C218.75 62.1533 218.884 61.8267 218.884 61.44H218.964V64.58H218.884C218.884 64.1933 218.75 63.8733 218.484 63.62C218.23 63.3533 217.91 63.22 217.524 63.22H214.484V68.36C214.484 68.7067 214.53 69.02 214.624 69.3C214.73 69.58 215.004 69.72 215.444 69.72H217.084C217.75 69.72 218.304 69.5867 218.744 69.32C219.197 69.0533 219.557 68.72 219.824 68.32C220.104 67.9067 220.317 67.48 220.464 67.04H220.604L220.164 70Z" fill="#1F1F1F"/>
<g clip-path="url(#clip0_72_75)">
<path d="M-12.1186 182.317C-14.2492 182.731 -16.5311 181.563 -17.6531 179.704C-18.7751 177.845 -18.8508 175.471 -18.0944 173.436C-17.3379 171.401 -15.8503 169.705 -14.1106 168.411C-12.5599 167.256 -10.7067 166.376 -8.76519 166.389C-6.82372 166.389 -4.8192 167.457 -4.10061 169.253C-3.70979 170.233 -3.87368 171.577 -4.83181 172.004C-5.34869 172.23 -5.96644 172.117 -6.4329 171.803C-6.89935 171.489 -7.22714 170.999 -7.42885 170.484C-8.18527 168.6 -7.36581 166.213 -5.60084 165.195C-3.83586 164.178 -1.35228 164.63 -0.078974 166.213C1.18172 167.771 1.18172 170.007 0.765692 171.966C-0.835395 179.453 -7.55492 185.194 -8.48784 192.932C-9.49639 197.529 -9.00472 202.441 -7.07585 206.749C-5.48737 210.304 -2.90294 213.621 -2.76426 217.515C2.37939 214.374 6.45144 209.551 8.68288 203.986C10.9143 198.408 11.2799 192.115 9.76708 186.349C8.25424 182.267 5.79588 178.548 2.5811 175.458C2.2281 175.119 1.87511 174.767 1.52211 174.428C0.0218824 177.154 0.0723065 180.47 0.513551 183.561C0.916975 186.387 1.61036 189.201 1.57254 192.065C1.57254 192.58 1.54732 193.107 1.57254 193.622C1.74904 200.117 0.790908 206.636 -1.22621 212.804C2.11464 206.385 3.64008 199.049 3.14841 191.839C2.71977 185.671 0.853939 179.491 2.06421 173.386C2.20289 172.695 2.44242 172.029 2.87106 171.476C4.3839 169.517 6.5523 170.321 8.09035 171.439C10.8765 173.461 12.7675 176.513 13.9148 179.754C14.646 181.852 15.0872 184.025 15.2889 186.274C15.7302 191.424 17.3439 196.449 20.2309 200.745C25.0594 207.955 32.447 213.482 40.8559 215.769C39.3305 211.209 41.108 206.222 40.6038 201.448C40.1121 196.763 37.4646 192.605 34.7289 188.761C32.6866 185.872 30.4678 182.983 27.4547 181.136C23.3196 178.599 17.9112 178.159 14.5199 174.705C14.8729 177.832 16.2597 180.772 17.9868 183.397C19.7266 186.023 21.8068 188.409 23.7356 190.909C27.0765 195.243 29.9509 199.928 32.2958 204.878C33.0396 206.46 33.7456 208.068 34.7415 209.513C35.7375 210.958 37.0864 212.214 38.7505 212.766C33.8338 208.207 32.2075 201.197 28.7532 195.456C26.7991 192.216 24.2651 189.377 22.0211 186.337C16.9405 179.465 13.171 171.351 6.21191 166.2C4.37129 165.133 2.92149 163.399 2.20289 161.389C1.93814 160.636 1.81207 159.668 2.42981 159.166C2.82063 158.852 3.37534 158.839 3.8544 158.952C4.33347 159.065 4.78732 159.304 5.26639 159.442C6.76662 159.869 8.39292 159.317 9.64101 158.387C10.8891 157.457 11.8346 156.201 12.818 154.995C13.8013 153.789 14.8855 152.609 16.2723 151.918C19.1593 150.498 22.6388 151.516 25.778 150.825C27.4421 150.461 29.0432 149.556 29.9887 148.137C30.9342 146.717 31.1359 144.77 30.2786 143.3C29.144 141.378 26.5596 140.776 24.3534 141.09C22.1471 141.404 20.0922 142.434 17.9238 143.012C14.2552 144.004 10.2335 143.702 6.64055 142.17C4.43432 140.926 2.10203 139.658 -0.431973 139.67C-2.83991 139.67 -5.14698 140.863 -7.55492 140.738C-11.274 140.524 -14.3501 137.233 -18.0691 137.246C-18.9642 137.246 -19.8972 137.472 -20.5779 138.05C-21.2587 138.627 -21.6243 139.632 -21.2965 140.461C-20.8931 141.466 -19.7207 141.894 -18.8886 142.61C-17.9683 143.413 -17.5018 144.632 -17.2245 145.825C-16.9471 147.019 -16.8211 148.25 -16.4176 149.418C-15.4721 152.119 -13.1524 154.053 -10.9336 155.862C-7.69359 158.5 -4.15103 161.238 0.0218794 161.54C1.30779 161.628 2.78281 161.377 3.50141 160.296C3.77876 159.869 3.91744 159.354 4.18218 158.915C4.79993 157.935 6.02281 157.558 7.0944 157.131C8.55681 156.553 9.91836 155.762 11.1412 154.782C12.238 153.915 13.297 152.571 12.8432 151.265C12.4776 150.197 11.2673 149.669 10.1453 149.481C9.02327 149.292 7.83821 149.267 6.85487 148.702C5.63199 147.998 5.02685 146.592 4.2074 145.436C2.15246 142.547 -1.73049 141.064 -5.19741 141.868C-6.93718 142.27 -8.51305 143.162 -10.1646 143.815C-11.8287 144.456 -13.7071 144.846 -15.3712 144.192C-15.989 143.954 -16.5815 143.564 -17.2497 143.539C-18.523 143.489 -19.4685 144.871 -19.4559 146.139C-19.4433 147.408 -18.7499 148.564 -17.8296 149.506C-16.9849 151.729 -16.052 154.066 -14.1232 155.473C-12.9507 156.327 -11.5009 156.767 -10.4545 157.771C-8.90386 159.266 -8.66433 161.929 -9.95025 163.663C-11.2236 165.396 -13.8458 165.974 -15.7369 164.944C-16.9345 164.291 -17.8044 163.123 -19.0777 162.608C-20.9057 161.879 -22.9985 162.746 -24.9147 162.356C-26.4276 162.055 -27.7387 160.937 -28.2808 159.492C-28.7599 158.211 -28.6338 156.792 -28.949 155.46C-29.5919 152.734 -32.2898 150.649 -35.1012 150.687C-36.3745 150.699 -37.6226 151.114 -38.8959 151.202C-40.1692 151.29 -41.6064 150.95 -42.2872 149.87C-42.7536 149.129 -42.804 148.137 -43.4218 147.509C-44.0395 146.881 -45.0355 146.805 -45.691 146.227C-46.334 145.649 -46.4853 144.67 -46.2962 143.828C-46.1071 142.986 -45.6154 142.233 -45.1868 141.529C-44.7203 140.474 -45.565 139.293 -46.5231 138.653C-47.4812 138.012 -48.6411 137.597 -49.3219 136.668C-49.9648 135.789 -50.0405 134.62 -49.9018 133.54C-49.7631 132.46 -49.4479 131.405 -49.3849 130.324C-49.3093 128.993 -49.6118 127.636 -50.28 126.48C-50.6204 125.877 -51.049 125.325 -51.2507 124.659C-51.4524 124.006 -51.3516 123.177 -50.7969 122.787C-50.343 122.461 -49.7001 122.511 -49.1832 122.712C-48.6663 122.913 -48.1998 123.265 -47.7082 123.528C-46.5483 124.144 -45.1615 124.295 -43.9008 123.943C-42.9427 123.679 -42.0728 123.139 -41.0895 122.988C-39.3497 122.737 -37.6352 123.842 -36.6392 125.287C-35.6433 126.732 -35.202 128.478 -34.7482 130.173C-33.5001 134.771 -31.8864 139.431 -28.6338 142.924C-27.1588 144.519 -25.2551 145.863 -23.0867 146.026C-22.5194 146.064 -21.8638 145.989 -21.5487 145.511C-21.2713 145.097 -21.3722 144.519 -21.6621 144.104C-21.9521 143.69 -22.3807 143.413 -22.7968 143.137C-29.9323 138.364 -35.0381 130.689 -36.6644 122.285C-37.2191 119.408 -37.32 116.205 -35.5929 113.743C-33.5379 112.16 -32.3655 109.522 -32.5672 106.947C-32.6554 105.842 -32.9706 104.774 -33.0588 103.668C-33.1471 102.563 -32.9832 101.37 -32.2394 100.553C-30.9787 99.1713 -28.6212 99.3849 -27.2344 98.1161C-26.4276 97.375 -25.9989 96.1816 -24.9778 95.8048C-23.8179 95.3777 -22.5951 96.2444 -21.3596 96.3324C-20.1871 96.4203 -19.1029 95.8174 -18.0313 95.3526C-16.9597 94.8878 -15.6738 94.5486 -14.4762 95.3023C-10.2906 96.772 -6.60939 99.6361 -4.17624 103.342C-3.82325 103.882 -3.53329 104.673 -4.03757 105.075C-4.35275 105.314 -4.8066 105.239 -5.15959 105.05C-6.2564 104.422 -6.48332 102.789 -5.80255 101.734C-5.12177 100.679 -3.74761 100.201 -2.49952 100.302C-1.23882 100.402 -0.0789765 101.005 0.967403 101.721C2.00118 102.437 2.9467 103.292 3.99308 103.982C7.05658 106.017 10.8513 106.646 14.5325 106.846C15.5537 106.897 16.5875 106.934 17.533 107.299C18.4785 107.663 19.3358 108.454 19.4871 109.447C19.714 111.067 18.1129 112.323 16.6253 113.002C15.8436 113.366 14.6586 113.529 14.3182 112.738C13.9778 111.947 14.9107 111.218 15.705 110.879C18.3272 109.736 21.4538 108.894 23.9752 110.251C26.0301 111.356 27.1395 113.718 27.4043 116.029C27.669 118.34 27.2152 120.664 26.8748 122.963C26.5344 125.262 26.2948 127.649 27.0387 129.872C27.1773 131.216 26.6604 132.56 25.8914 133.653C25.1224 134.759 24.0886 135.65 23.0548 136.53C20.3191 138.866 17.4069 141.152 13.9652 142.208C13.4357 142.371 12.7171 142.434 12.4524 141.944C12.2507 141.567 12.4776 141.102 12.7549 140.763C13.6122 139.695 14.8981 139.055 16.2093 138.64C17.5204 138.238 18.8819 138.037 20.2057 137.685C22.3993 137.12 24.492 136.128 26.2948 134.758C27.8203 133.59 29.1692 132.095 29.7996 130.274C30.4299 128.453 30.2408 126.292 29.0179 124.81C28.0472 123.629 26.4713 122.9 25.9166 121.481C25.4376 120.25 25.9671 118.705 27.1017 118.026C28.2363 117.348 29.85 117.612 30.5812 118.855C33.5565 120.488 35.8005 123.415 36.5947 126.719C37.2629 129.47 36.9477 132.409 37.8428 135.098C38.574 137.334 40.0869 139.243 40.9946 141.416C41.9023 143.589 42.0662 146.391 40.3642 148.036C39.6456 148.727 38.6875 149.129 38.0572 149.908C36.4813 151.842 37.7672 154.995 36.3804 157.068C35.2458 158.751 32.8505 158.99 31.2368 160.221C30.2156 161 29.5474 162.13 28.8415 163.198C28.1355 164.266 27.316 165.334 26.1436 165.861C24.9711 166.389 23.37 166.15 22.7271 165.045C22.3362 164.379 22.3615 163.512 21.895 162.897C21.0629 161.779 19.2854 162.118 18.0751 162.834C16.8774 163.55 15.705 164.567 14.3056 164.505C12.3515 164.404 11.0782 162.218 9.16194 161.816C8.50638 161.678 7.813 161.766 7.15743 161.59C5.41767 161.125 4.67386 159.078 4.50997 157.294C4.28304 154.782 4.66125 152.219 5.61938 149.895C6.9053 146.767 9.14934 144.142 10.9143 141.253C12.6793 138.364 13.9904 134.909 13.1205 131.643C12.818 130.5 12.2254 129.382 11.2673 128.666C10.3218 127.95 8.97284 127.686 7.90125 128.189C6.09845 129.018 5.51853 131.568 3.65269 132.158C0.967404 132.435 -1.54139 134.005 -2.96597 136.278C-3.16769 136.592 -3.30636 137.07 -3.00379 137.296C-2.73905 137.484 -2.37345 137.296 -2.1087 137.082C0.639623 134.859 2.26592 131.467 5.08989 129.332C6.47666 128.289 8.09035 127.598 9.60319 126.757C11.116 125.915 12.591 124.86 13.4357 123.34C14.6838 121.079 14.1417 118.001 12.2128 116.293C11.8598 115.991 11.469 115.715 11.0152 115.602C10.5613 115.489 10.0444 115.564 9.70404 115.878C9.13673 116.393 9.2628 117.423 9.89315 117.876C10.5109 118.328 11.4312 118.227 12.0363 117.75C12.6415 117.273 12.944 116.494 12.9945 115.728C13.0449 114.961 12.8558 114.195 12.6163 113.466C12.175 111.708 10.5991 110.288 8.79634 110.037C7.77517 109.899 6.69098 110.087 5.74545 109.685C4.48475 109.158 3.79137 107.701 2.50546 107.223C1.20694 106.733 -0.268081 107.412 -1.64224 107.198C-2.54995 107.047 -3.35679 106.52 -4.20146 106.168C-6.69764 105.138 -9.81157 105.766 -11.6774 107.801C-13.1776 109.082 -14.6905 110.376 -15.8503 111.959C-17.0102 113.542 -17.817 115.476 -17.6783 117.436C-17.527 119.71 -16.1403 121.757 -14.3879 123.214C-12.6355 124.671 -10.5176 125.614 -8.4248 126.518C-6.33204 127.422 -4.20146 128.327 -2.39866 129.721C-2.12131 129.935 -1.81874 130.249 -1.9196 130.588C-2.05827 131.053 -2.73905 130.99 -3.1929 130.814C-6.88675 129.344 -9.97546 126.405 -11.6144 122.787C-11.8539 122.247 -12.0682 121.682 -12.0304 121.091C-11.9926 120.501 -11.627 119.898 -11.0597 119.76C-10.4167 119.597 -9.76114 120.049 -9.35772 120.564C-8.57608 121.569 -8.28612 122.938 -8.6013 124.156C-9.93764 122.75 -10.8075 120.916 -11.0597 119.006C-11.1731 118.165 -11.1605 117.285 -10.8327 116.494C-10.505 115.715 -9.79896 115.049 -8.95429 114.949C-8.27352 114.873 -7.59274 115.15 -6.89935 115.087C-5.81515 114.986 -4.9957 114.095 -4.02496 113.58C-2.96598 113.027 -1.73049 112.939 -0.532826 112.876C0.954798 112.788 2.46764 112.7 3.90483 113.102C6.48927 113.818 8.48117 116.13 9.06109 118.742C9.64101 121.355 8.90981 124.156 7.34654 126.33C5.78327 128.503 3.43837 130.048 0.916974 130.915C0.236197 131.153 -0.59586 131.304 -1.11275 130.802C-1.80613 130.123 -1.22621 128.942 -0.507612 128.302C0.715266 127.222 2.29114 126.593 3.4888 125.501C4.87557 124.232 5.68242 122.335 5.61938 120.451C5.55635 118.567 4.64865 116.733 3.18624 115.539C2.41721 114.924 1.39604 114.459 0.450517 114.748C-0.911037 115.15 -1.42792 116.908 -1.07493 118.278C-0.721931 119.647 0.248804 120.765 1.00522 121.958C1.77425 123.152 2.35417 124.634 1.87511 125.965C1.23215 127.724 -1.13796 128.377 -2.89033 127.674C-4.6427 126.983 -5.82776 125.325 -6.622 123.629C-7.11368 122.586 -7.50449 121.468 -7.47928 120.313C-7.45406 119.157 -6.93717 117.976 -5.95383 117.361C-4.93266 116.733 -3.60893 116.82 -2.4743 117.21C-0.217653 117.989 1.61036 119.873 2.31635 122.147C3.02234 124.42 2.55588 127.008 1.1313 128.905C-0.419364 130.965 -3.0164 132.221 -4.11321 134.545C-4.69313 135.776 -4.83181 137.246 -5.78994 138.226C-6.57157 139.017 -7.75663 139.306 -8.86604 139.218C-9.97546 139.13 -11.0344 138.715 -12.0682 138.301C-13.3793 137.761 -14.7787 137.133 -15.4847 135.914C-16.4428 134.269 -15.8503 132.196 -15.9512 130.299C-16.0646 128.088 -17.2371 125.965 -19.0273 124.671C-19.7459 124.156 -20.5527 123.767 -21.1957 123.177C-21.8386 122.586 -22.3303 121.707 -22.1286 120.853C-21.9521 120.086 -21.2461 119.521 -20.4771 119.358C-19.7081 119.195 -18.9012 119.408 -18.2078 119.785C-17.8422 119.986 -17.4892 120.25 -17.3253 120.639C-17.1614 121.029 -17.2749 121.544 -17.6657 121.719C-18.1196 121.933 -18.6365 121.569 -18.9768 121.192C-21.0822 118.893 -21.7126 115.439 -20.8301 112.462C-19.9476 109.484 -17.6657 106.997 -14.8922 105.59C-12.1186 104.171 -8.87865 103.781 -5.77733 104.158C0.11013 104.887 5.56895 108.329 11.7086 107.927C17.4321 108.718 23.4835 106.558 27.3916 102.324C30.9468 98.4679 32.8 93.0789 37.036 89.9762C26.7991 85.0897 14.1291 86.5092 4.52257 92.5513C2.5811 93.7698 0.576589 95.4908 0.551375 97.777C0.526161 99.8496 2.31635 101.633 4.32086 102.186C6.32537 102.739 8.48117 102.287 10.4479 101.571C17.5078 98.9578 23.2439 92.8277 30.7325 91.986C26.1057 91.2323 21.6429 93.7447 17.6212 96.1314C13.587 98.5181 9.07369 100.968 4.47214 100.063C2.80802 99.7366 1.13129 98.8698 0.374873 97.3499C-0.520223 95.5284 0.185773 93.2297 1.61036 91.7725C3.03495 90.3153 5.02685 89.5742 6.99354 89.0466C8.96023 88.5316 10.99 88.1924 12.8558 87.3634C17.8103 85.1902 20.7478 79.9771 22.1598 74.764C23.5717 69.5509 23.7987 64.0866 25.198 58.8735C26.5974 53.6604 29.497 48.4348 34.4263 46.2114C34.8802 46.0104 35.4727 45.8596 35.8005 46.2239C36.0905 46.5505 35.9518 47.1032 35.5988 47.3796C35.2458 47.6559 34.7919 47.7188 34.3507 47.769C31.552 48.0328 28.6902 47.6559 25.9671 46.1611C23.0422 45.3446 20.4326 43.4101 18.8189 40.8475C17.1926 38.2849 16.5749 35.1068 17.0917 32.1172C17.8103 28.0221 20.5839 24.2661 20.1552 20.1333C19.8401 17.1185 17.8608 14.5434 16.9026 11.6542C16.6253 10.8 16.4362 9.88303 16.7009 9.02884C16.9657 8.17464 17.8229 7.44607 18.7054 7.59681C20.0418 7.82292 20.3569 9.5313 20.6343 10.8503C21.6555 15.5986 25.904 19.0279 27.5808 23.5878C29.2953 28.2859 27.8581 33.9512 24.1012 37.2675C23.4709 37.8202 22.601 38.3478 21.8194 38.0212C20.9369 37.6569 20.7856 36.4007 21.2142 35.5591C21.6429 34.7174 22.4749 34.1522 23.1809 33.5115C26.547 30.4716 27.4547 25.4092 26.5848 20.9624C25.7149 16.5156 23.3448 12.521 20.9621 8.66455C20.3317 7.63449 19.6636 6.51651 19.7266 5.31059C19.7896 4.10467 20.9495 2.88619 22.1093 3.25047C22.6262 3.41378 23.0675 3.85343 23.6096 3.85343C24.5803 3.85343 24.9711 2.54702 25.8158 2.06968C26.6352 1.6049 27.669 2.03199 28.4758 2.53446C29.2827 3.03693 30.1274 3.63989 31.0729 3.52683C32.9765 3.28816 33.5565 0.386415 35.4475 0.0346886C36.9856 -0.25423 38.2967 1.35366 39.86 1.45416C40.6794 1.5044 41.4737 1.12755 42.2931 1.0145C44.3228 0.72558 46.2391 2.05712 47.6133 3.57708C48.9874 5.09704 50.0842 6.90592 51.7483 8.09927C52.7821 8.84041 54.0176 9.33032 54.9631 10.1971C55.9086 11.0638 56.5138 12.521 55.8582 13.6138C55.417 14.3675 54.4967 14.757 54.0932 15.5232C53.5007 16.6538 54.2445 18.0481 53.9041 19.2792C53.4125 21.088 51.118 21.5151 49.5043 22.4698C47.3611 23.7511 46.2769 26.276 45.8609 28.7381C45.4449 31.2002 45.5457 33.7251 45.0792 36.1746C44.3607 39.918 42.2805 43.385 39.2926 45.7717C38.7001 46.2365 37.8176 46.6636 37.2629 46.1611C36.8847 45.8219 36.8973 45.2064 37.1495 44.7668C37.389 44.3271 37.805 44.0131 38.1958 43.6865C41.2845 41.149 43.3395 37.3805 43.8059 33.4236C44.0329 31.4765 43.8942 29.4918 44.1211 27.5447C44.348 25.5977 45.0288 23.5878 46.5417 22.3316C47.0081 21.9548 47.5376 21.6282 47.8528 21.1132C48.168 20.5981 48.1049 19.7942 47.5628 19.5555C47.235 19.4173 46.8568 19.5053 46.5164 19.6183C37.3764 22.5075 30.3921 31.1876 29.5474 40.7093C29.497 41.3249 29.4718 41.9781 29.7365 42.5433C30.0013 43.1086 30.6569 43.5357 31.2494 43.3473C31.7663 43.184 32.0688 42.6313 32.0941 42.1037C32.1319 41.5761 31.9554 41.0485 31.7915 40.546C31.0603 38.2975 30.4678 35.9862 30.4173 33.6246C30.3669 31.263 30.909 28.8386 32.2579 26.9041C33.6321 24.9193 35.7501 23.5627 37.9563 22.5577C40.1499 21.5528 42.4822 20.8494 44.6758 19.8319C46.2769 19.1033 47.9158 18.0984 48.6092 16.4905C49.3026 14.8826 48.5714 12.5712 46.8316 12.2572C46.0248 12.1064 45.2053 12.3954 44.3985 12.32C43.5916 12.2446 42.7091 11.4784 43.0369 10.7372C43.3899 9.92072 44.6884 10.1845 45.2431 10.8628C46.2643 12.119 45.9113 14.1163 44.8019 15.2845C43.6925 16.4528 41.9905 16.9301 40.3768 17.0055C37.5907 17.1437 34.8172 16.2769 32.384 14.9203C29.9509 13.5636 27.8203 11.717 25.8032 9.7951C25.3745 9.38056 24.9207 8.95347 24.3534 8.80273C23.7861 8.65199 23.0548 8.86554 22.8657 9.43081C22.6136 10.1719 23.4583 10.888 24.2525 10.9005C25.0341 10.9256 25.7653 10.5362 26.5344 10.3729C28.9675 9.84535 31.2746 11.5286 33.2287 13.1616C34.4768 13.9028 35.7501 14.6439 37.1747 14.9203C38.5993 15.1966 40.213 14.9203 41.1963 13.8776C42.1292 12.8853 42.3309 11.4407 42.4192 10.0966C42.4696 9.39313 42.4948 8.68967 42.3183 8.01134C42.1544 7.33301 41.7636 6.67981 41.1585 6.32808C40.1625 5.76281 38.9018 6.15222 37.8933 6.69237C36.3426 7.54656 34.9937 8.7776 34.0103 10.2473C33.7204 10.6744 33.4556 11.2271 33.6825 11.7045C33.9473 12.2572 34.7541 12.32 35.2836 12.006C36.3174 11.3904 36.3804 9.7951 35.6492 8.84041C34.918 7.88573 33.6825 7.45863 32.4849 7.32045C31.8545 7.24508 31.1611 7.23252 30.6064 7.54656C30.0517 7.8606 29.6987 8.60174 30.0013 9.16702C30.3669 9.85791 31.4385 9.82022 32.0562 9.33032C32.6614 8.84041 32.9639 8.07415 33.3421 7.39582C34.0103 6.20246 35.0441 5.14728 36.3552 4.73275C37.6663 4.31821 39.2674 4.66994 40.0743 5.77537C40.6416 6.54163 40.7677 7.534 40.7803 8.47612C40.8181 12.4456 39.0153 16.2267 36.8091 19.5681C32.2958 25.0575 28.4254 31.0746 25.3115 37.4559C23.4583 41.2746 21.8446 45.3446 21.8698 49.5904C21.895 53.0575 23.0044 56.5747 22.1345 59.9287C21.895 60.8708 21.4033 61.8632 20.483 62.2149C19.7014 62.5164 18.7811 62.2526 18.1129 61.7376C17.4447 61.2351 16.9657 60.5191 16.7135 59.3132C3.38795 44.3773 -1.61703 23.0979 -16.2411 9.41825C-14.4762 12.3451 -12.7112 15.2594 -10.9588 18.1863C-6.73546 25.1831 -2.52473 32.1674 1.69861 39.1643C1.97596 39.629 2.36678 40.1566 2.90888 40.1315C3.55184 40.1064 3.87962 39.3653 4.0309 38.7497C5.95977 30.9364 3.38794 22.1935 -2.4617 16.6538C-7.07586 12.2949 -13.5054 9.7951 -16.9849 4.49408C-19.8845 15.7242 -16.0268 28.424 -7.3406 36.162C-4.42839 38.7497 -1.07493 40.7973 1.81207 43.4101C6.08584 47.2917 9.16194 52.2661 12.175 57.1902C14.1165 60.3558 16.0706 63.5339 17.6212 66.913C18.1885 68.144 18.718 69.5258 18.3146 70.8196C17.9112 72.1135 16.121 72.9803 15.1377 72.0507C14.1543 71.1211 15.0242 69.2369 16.3605 69.0485C17.6969 68.86 18.945 69.9655 19.3484 71.2467C19.7392 72.528 19.4745 73.9224 19.0836 75.2037C18.4659 77.2889 17.533 79.3113 16.0832 80.9443C13.3601 83.9968 8.83416 85.3284 4.88818 84.2104C0.94219 83.0924 -2.20955 79.5877 -2.91555 75.568C-3.23072 73.7716 -3.0164 71.7743 -1.81874 70.4051C-0.621076 69.0359 1.78686 68.6967 3.02234 70.0408C4.37129 71.5231 3.40055 74.2113 1.52211 74.9022C-0.356327 75.5931 -2.56255 74.5756 -3.7224 72.9551C-4.88224 71.3221 -5.1722 69.2243 -5.08395 67.227C-4.93267 63.4711 -3.25594 59.4262 0.185772 57.8937" stroke="#DAB7FF" stroke-width="1.19" stroke-linecap="round" stroke-linejoin="round"/>
</g>
<path d="M57.8796 95.8182V106H56.6467V97.1108H56.587L54.1012 98.7614V97.5085L56.6467 95.8182H57.8796Z" fill="#1F1F1F"/>
<path d="M100.316 106V105.105L103.676 101.426C104.071 100.995 104.396 100.621 104.651 100.303C104.906 99.9811 105.095 99.6795 105.218 99.3977C105.344 99.1127 105.407 98.8144 105.407 98.5028C105.407 98.1449 105.32 97.835 105.148 97.5732C104.979 97.3113 104.747 97.1091 104.452 96.9666C104.157 96.8241 103.826 96.7528 103.458 96.7528C103.067 96.7528 102.725 96.834 102.434 96.9964C102.145 97.1555 101.922 97.3793 101.762 97.6676C101.607 97.956 101.529 98.294 101.529 98.6818H100.355C100.355 98.0852 100.493 97.5616 100.768 97.1108C101.043 96.66 101.418 96.3087 101.892 96.0568C102.369 95.8049 102.904 95.679 103.498 95.679C104.094 95.679 104.623 95.8049 105.083 96.0568C105.544 96.3087 105.905 96.6484 106.167 97.076C106.429 97.5036 106.56 97.9792 106.56 98.5028C106.56 98.8774 106.492 99.2436 106.356 99.6016C106.224 99.9562 105.992 100.352 105.66 100.79C105.332 101.224 104.876 101.754 104.293 102.381L102.006 104.827V104.906H106.739V106H100.316Z" fill="#1F1F1F"/>
<path d="M151.704 106.139C151.048 106.139 150.463 106.027 149.949 105.801C149.439 105.576 149.033 105.263 148.731 104.862C148.433 104.457 148.27 103.988 148.244 103.455H149.497C149.523 103.783 149.636 104.066 149.835 104.305C150.034 104.54 150.294 104.722 150.615 104.852C150.937 104.981 151.293 105.045 151.684 105.045C152.122 105.045 152.509 104.969 152.847 104.817C153.186 104.664 153.451 104.452 153.643 104.18C153.835 103.909 153.931 103.594 153.931 103.236C153.931 102.861 153.838 102.531 153.653 102.246C153.467 101.958 153.195 101.733 152.837 101.57C152.48 101.408 152.042 101.327 151.525 101.327H150.71V100.233H151.525C151.929 100.233 152.284 100.16 152.589 100.014C152.897 99.8684 153.137 99.6629 153.31 99.3977C153.485 99.1326 153.573 98.821 153.573 98.4631C153.573 98.1184 153.497 97.8184 153.345 97.5632C153.192 97.308 152.977 97.1091 152.698 96.9666C152.423 96.8241 152.098 96.7528 151.724 96.7528C151.373 96.7528 151.041 96.8175 150.73 96.9467C150.421 97.0727 150.169 97.2566 149.974 97.4986C149.778 97.7372 149.672 98.0256 149.656 98.3636H148.462C148.482 97.83 148.643 97.3627 148.945 96.9616C149.246 96.5573 149.641 96.2424 150.128 96.017C150.619 95.7917 151.157 95.679 151.744 95.679C152.373 95.679 152.914 95.8066 153.364 96.0618C153.815 96.3137 154.162 96.6468 154.404 97.0611C154.645 97.4754 154.766 97.9228 154.766 98.4034C154.766 98.9768 154.616 99.4657 154.314 99.87C154.016 100.274 153.61 100.554 153.096 100.71V100.79C153.739 100.896 154.241 101.169 154.602 101.61C154.964 102.048 155.144 102.589 155.144 103.236C155.144 103.789 154.994 104.286 154.692 104.727C154.394 105.165 153.986 105.509 153.469 105.761C152.952 106.013 152.364 106.139 151.704 106.139Z" fill="#1F1F1F"/>
<path d="M196.158 103.912V102.898L200.632 95.8182H201.368V97.3892H200.871L197.49 102.739V102.818H203.515V103.912H196.158ZM200.95 106V103.604V103.131V95.8182H202.123V106H200.95Z" fill="#1F1F1F"/>
<path d="M247.977 106.139C247.394 106.139 246.868 106.023 246.401 105.791C245.934 105.559 245.559 105.241 245.277 104.837C244.996 104.432 244.842 103.972 244.815 103.455H246.008C246.055 103.915 246.263 104.296 246.635 104.598C247.009 104.896 247.457 105.045 247.977 105.045C248.395 105.045 248.766 104.948 249.091 104.752C249.419 104.557 249.676 104.288 249.861 103.947C250.05 103.602 250.145 103.213 250.145 102.778C250.145 102.334 250.047 101.938 249.851 101.59C249.659 101.239 249.394 100.962 249.056 100.76C248.718 100.558 248.332 100.455 247.897 100.452C247.586 100.448 247.266 100.496 246.938 100.596C246.61 100.692 246.34 100.816 246.128 100.969L244.974 100.83L245.591 95.8182H250.88V96.9119H246.625L246.267 99.9148H246.326C246.535 99.7491 246.797 99.6115 247.112 99.5021C247.427 99.3928 247.755 99.3381 248.096 99.3381C248.719 99.3381 249.275 99.4872 249.762 99.7855C250.252 100.08 250.637 100.485 250.915 100.999C251.197 101.512 251.338 102.099 251.338 102.759C251.338 103.408 251.192 103.988 250.9 104.499C250.612 105.006 250.214 105.407 249.707 105.702C249.2 105.993 248.623 106.139 247.977 106.139Z" fill="#1F1F1F"/>
<path d="M296.233 106.139C295.816 106.133 295.398 106.053 294.98 105.901C294.563 105.748 294.182 105.491 293.837 105.13C293.492 104.765 293.215 104.273 293.007 103.653C292.798 103.03 292.693 102.248 292.693 101.307C292.693 100.405 292.778 99.6065 292.947 98.9105C293.116 98.2112 293.361 97.6229 293.683 97.1456C294.004 96.665 294.392 96.3004 294.846 96.0518C295.303 95.8033 295.819 95.679 296.392 95.679C296.962 95.679 297.469 95.7933 297.914 96.022C298.361 96.2474 298.726 96.5623 299.007 96.9666C299.289 97.371 299.471 97.8366 299.554 98.3636H298.341C298.228 97.9062 298.01 97.5268 297.685 97.2251C297.36 96.9235 296.929 96.7727 296.392 96.7727C295.603 96.7727 294.982 97.1158 294.528 97.8018C294.077 98.4879 293.85 99.4508 293.847 100.69H293.926C294.112 100.409 294.332 100.168 294.588 99.9695C294.846 99.7673 295.131 99.6115 295.443 99.5021C295.754 99.3928 296.084 99.3381 296.432 99.3381C297.015 99.3381 297.549 99.4839 298.033 99.7756C298.517 100.064 298.905 100.463 299.196 100.974C299.488 101.481 299.634 102.062 299.634 102.719C299.634 103.348 299.493 103.925 299.211 104.449C298.929 104.969 298.533 105.384 298.023 105.692C297.516 105.997 296.919 106.146 296.233 106.139ZM296.233 105.045C296.651 105.045 297.025 104.941 297.357 104.732C297.692 104.523 297.955 104.243 298.147 103.892C298.343 103.541 298.441 103.15 298.441 102.719C298.441 102.298 298.346 101.915 298.157 101.57C297.972 101.222 297.715 100.946 297.387 100.74C297.062 100.535 296.691 100.432 296.273 100.432C295.958 100.432 295.665 100.495 295.393 100.621C295.121 100.743 294.883 100.912 294.677 101.128C294.475 101.343 294.316 101.59 294.2 101.869C294.084 102.144 294.026 102.434 294.026 102.739C294.026 103.143 294.12 103.521 294.309 103.872C294.501 104.223 294.763 104.507 295.095 104.722C295.429 104.938 295.809 105.045 296.233 105.045Z" fill="#1F1F1F"/>
<path d="M341.207 106L345.76 96.9915V96.9119H340.51V95.8182H347.033V96.9716L342.499 106H341.207Z" fill="#1F1F1F"/>
<path d="M56.5019 154.139C55.8191 154.139 55.2159 154.018 54.6922 153.776C54.1718 153.531 53.7658 153.195 53.4742 152.767C53.1825 152.336 53.0383 151.846 53.0416 151.295C53.0383 150.865 53.1228 150.467 53.2952 150.102C53.4675 149.734 53.7029 149.428 54.0012 149.183C54.3028 148.934 54.6392 148.777 55.0104 148.71V148.651C54.5232 148.525 54.1354 148.251 53.847 147.83C53.5587 147.406 53.4162 146.924 53.4195 146.384C53.4162 145.866 53.5471 145.404 53.8122 144.996C54.0774 144.589 54.442 144.267 54.906 144.032C55.3733 143.797 55.9053 143.679 56.5019 143.679C57.0918 143.679 57.6188 143.797 58.0828 144.032C58.5468 144.267 58.9114 144.589 59.1766 144.996C59.445 145.404 59.5809 145.866 59.5843 146.384C59.5809 146.924 59.4334 147.406 59.1418 147.83C58.8534 148.251 58.4706 148.525 57.9933 148.651V148.71C58.3612 148.777 58.6927 148.934 58.9877 149.183C59.2826 149.428 59.518 149.734 59.6936 150.102C59.8693 150.467 59.9588 150.865 59.9621 151.295C59.9588 151.846 59.8096 152.336 59.5146 152.767C59.223 153.195 58.817 153.531 58.2966 153.776C57.7796 154.018 57.1813 154.139 56.5019 154.139ZM56.5019 153.045C56.9626 153.045 57.3603 152.971 57.695 152.822C58.0298 152.673 58.2883 152.462 58.4706 152.19C58.6529 151.919 58.7457 151.6 58.749 151.236C58.7457 150.851 58.6463 150.512 58.4507 150.217C58.2552 149.922 57.9884 149.69 57.6503 149.521C57.3155 149.352 56.9327 149.267 56.5019 149.267C56.0677 149.267 55.6799 149.352 55.3385 149.521C55.0004 149.69 54.7336 149.922 54.5381 150.217C54.3459 150.512 54.2514 150.851 54.2547 151.236C54.2514 151.6 54.3392 151.919 54.5182 152.19C54.7005 152.462 54.9607 152.673 55.2987 152.822C55.6368 152.971 56.0378 153.045 56.5019 153.045ZM56.5019 148.213C56.8664 148.213 57.1896 148.14 57.4713 147.994C57.7564 147.848 57.9801 147.645 58.1425 147.383C58.3049 147.121 58.3878 146.814 58.3911 146.463C58.3878 146.118 58.3066 145.818 58.1475 145.563C57.9884 145.305 57.768 145.106 57.4862 144.967C57.2045 144.824 56.8764 144.753 56.5019 144.753C56.1207 144.753 55.7876 144.824 55.5026 144.967C55.2175 145.106 54.9971 145.305 54.8414 145.563C54.6856 145.818 54.6093 146.118 54.6127 146.463C54.6093 146.814 54.6872 147.121 54.8463 147.383C55.0087 147.645 55.2325 147.848 55.5175 147.994C55.8025 148.14 56.1307 148.213 56.5019 148.213Z" fill="#1F1F1F"/>
<path d="M104.427 143.679C104.845 143.682 105.263 143.762 105.68 143.918C106.098 144.073 106.479 144.332 106.824 144.693C107.168 145.051 107.445 145.54 107.654 146.16C107.863 146.78 107.967 147.557 107.967 148.491C107.967 149.396 107.881 150.2 107.709 150.903C107.54 151.602 107.294 152.192 106.973 152.673C106.655 153.153 106.267 153.518 105.809 153.766C105.355 154.015 104.842 154.139 104.268 154.139C103.698 154.139 103.189 154.027 102.742 153.801C102.298 153.572 101.933 153.256 101.648 152.852C101.366 152.444 101.186 151.972 101.106 151.435H102.319C102.429 151.902 102.646 152.288 102.971 152.593C103.299 152.895 103.731 153.045 104.268 153.045C105.054 153.045 105.674 152.702 106.128 152.016C106.585 151.33 106.814 150.361 106.814 149.108H106.734C106.549 149.386 106.328 149.627 106.073 149.829C105.818 150.031 105.534 150.187 105.223 150.296C104.911 150.406 104.58 150.46 104.228 150.46C103.645 150.46 103.11 150.316 102.623 150.028C102.139 149.736 101.751 149.337 101.459 148.83C101.171 148.319 101.027 147.736 101.027 147.08C101.027 146.456 101.166 145.886 101.444 145.369C101.726 144.849 102.12 144.435 102.628 144.126C103.138 143.818 103.738 143.669 104.427 143.679ZM104.427 144.773C104.01 144.773 103.633 144.877 103.299 145.086C102.967 145.291 102.704 145.57 102.508 145.921C102.316 146.269 102.22 146.655 102.22 147.08C102.22 147.504 102.313 147.89 102.498 148.238C102.687 148.583 102.944 148.858 103.269 149.063C103.597 149.265 103.97 149.366 104.388 149.366C104.702 149.366 104.996 149.305 105.267 149.183C105.539 149.057 105.776 148.886 105.978 148.67C106.184 148.452 106.345 148.205 106.461 147.93C106.577 147.651 106.635 147.361 106.635 147.06C106.635 146.662 106.539 146.289 106.346 145.941C106.157 145.593 105.896 145.311 105.561 145.096C105.229 144.88 104.852 144.773 104.427 144.773Z" fill="#1F1F1F"/>
<path d="M149.005 143.818V154H147.772V145.111H147.712L145.226 146.761V145.509L147.772 143.818H149.005ZM155.254 154.139C154.505 154.139 153.867 153.935 153.34 153.528C152.813 153.117 152.41 152.522 152.132 151.743C151.853 150.961 151.714 150.016 151.714 148.909C151.714 147.809 151.853 146.869 152.132 146.09C152.413 145.308 152.818 144.711 153.345 144.3C153.875 143.886 154.511 143.679 155.254 143.679C155.996 143.679 156.631 143.886 157.158 144.3C157.688 144.711 158.093 145.308 158.371 146.09C158.653 146.869 158.794 147.809 158.794 148.909C158.794 150.016 158.654 150.961 158.376 151.743C158.098 152.522 157.695 153.117 157.168 153.528C156.641 153.935 156.003 154.139 155.254 154.139ZM155.254 153.045C155.996 153.045 156.573 152.687 156.984 151.972C157.395 151.256 157.6 150.235 157.6 148.909C157.6 148.027 157.506 147.277 157.317 146.657C157.132 146.037 156.863 145.565 156.512 145.24C156.164 144.915 155.744 144.753 155.254 144.753C154.518 144.753 153.943 145.116 153.529 145.842C153.114 146.564 152.907 147.587 152.907 148.909C152.907 149.791 153 150.54 153.186 151.156C153.371 151.773 153.638 152.242 153.986 152.563C154.337 152.885 154.76 153.045 155.254 153.045Z" fill="#1F1F1F"/>
<path d="M198.126 143.818V154H196.893V145.111H196.833L194.347 146.761V145.509L196.893 143.818H198.126ZM204.634 143.818V154H203.401V145.111H203.341L200.855 146.761V145.509L203.401 143.818H204.634Z" fill="#1F1F1F"/>
<path d="M245.641 143.818V154H244.408V145.111H244.349L241.863 146.761V145.509L244.408 143.818H245.641ZM248.57 154V153.105L251.93 149.426C252.325 148.995 252.65 148.621 252.905 148.303C253.16 147.981 253.349 147.679 253.472 147.398C253.598 147.113 253.661 146.814 253.661 146.503C253.661 146.145 253.574 145.835 253.402 145.573C253.233 145.311 253.001 145.109 252.706 144.967C252.411 144.824 252.08 144.753 251.712 144.753C251.321 144.753 250.979 144.834 250.688 144.996C250.399 145.156 250.175 145.379 250.016 145.668C249.861 145.956 249.783 146.294 249.783 146.682H248.609C248.609 146.085 248.747 145.562 249.022 145.111C249.297 144.66 249.672 144.309 250.146 144.057C250.623 143.805 251.158 143.679 251.751 143.679C252.348 143.679 252.877 143.805 253.337 144.057C253.798 144.309 254.159 144.648 254.421 145.076C254.683 145.504 254.814 145.979 254.814 146.503C254.814 146.877 254.746 147.244 254.61 147.602C254.478 147.956 254.246 148.352 253.914 148.79C253.586 149.224 253.13 149.754 252.547 150.381L250.26 152.827V152.906H254.993V154H248.57Z" fill="#1F1F1F"/>
<path d="M292.923 143.818V154H291.69V145.111H291.63L289.144 146.761V145.509L291.69 143.818H292.923ZM299.291 154.139C298.635 154.139 298.05 154.027 297.536 153.801C297.026 153.576 296.62 153.263 296.318 152.862C296.02 152.457 295.857 151.988 295.831 151.455H297.084C297.11 151.783 297.223 152.066 297.422 152.305C297.621 152.54 297.881 152.722 298.202 152.852C298.524 152.981 298.88 153.045 299.271 153.045C299.709 153.045 300.097 152.969 300.435 152.817C300.773 152.664 301.038 152.452 301.23 152.18C301.422 151.909 301.518 151.594 301.518 151.236C301.518 150.861 301.426 150.531 301.24 150.246C301.054 149.958 300.783 149.733 300.425 149.57C300.067 149.408 299.629 149.327 299.112 149.327H298.297V148.233H299.112C299.517 148.233 299.871 148.16 300.176 148.014C300.484 147.868 300.725 147.663 300.897 147.398C301.073 147.133 301.161 146.821 301.161 146.463C301.161 146.118 301.084 145.818 300.932 145.563C300.779 145.308 300.564 145.109 300.286 144.967C300.01 144.824 299.686 144.753 299.311 144.753C298.96 144.753 298.628 144.817 298.317 144.947C298.009 145.073 297.757 145.257 297.561 145.499C297.366 145.737 297.259 146.026 297.243 146.364H296.05C296.07 145.83 296.23 145.363 296.532 144.962C296.834 144.557 297.228 144.242 297.715 144.017C298.206 143.792 298.744 143.679 299.331 143.679C299.961 143.679 300.501 143.807 300.952 144.062C301.402 144.314 301.749 144.647 301.991 145.061C302.233 145.475 302.354 145.923 302.354 146.403C302.354 146.977 302.203 147.466 301.901 147.87C301.603 148.274 301.197 148.554 300.683 148.71V148.79C301.326 148.896 301.828 149.169 302.19 149.61C302.551 150.048 302.732 150.589 302.732 151.236C302.732 151.789 302.581 152.286 302.279 152.727C301.981 153.165 301.573 153.509 301.056 153.761C300.539 154.013 299.951 154.139 299.291 154.139Z" fill="#1F1F1F"/>
<path d="M340.888 143.818V154H339.655V145.111H339.596L337.11 146.761V145.509L339.655 143.818H340.888ZM343.578 151.912V150.898L348.052 143.818H348.788V145.389H348.291L344.91 150.739V150.818H350.936V151.912H343.578ZM348.371 154V151.604V151.131V143.818H349.544V154H348.371Z" fill="#1F1F1F"/>
<path d="M53.1208 191.818V202H51.8879V193.111H51.8282L49.3424 194.761V193.509L51.8879 191.818H53.1208ZM59.2309 202.139C58.6476 202.139 58.1222 202.023 57.6549 201.791C57.1876 201.559 56.8131 201.241 56.5313 200.837C56.2496 200.432 56.0955 199.972 56.069 199.455H57.2622C57.3086 199.915 57.5174 200.296 57.8886 200.598C58.2631 200.896 58.7106 201.045 59.2309 201.045C59.6485 201.045 60.0197 200.948 60.3445 200.752C60.6727 200.557 60.9295 200.288 61.1151 199.947C61.3041 199.602 61.3985 199.213 61.3985 198.778C61.3985 198.334 61.3008 197.938 61.1052 197.59C60.913 197.239 60.6478 196.962 60.3097 196.76C59.9717 196.558 59.5856 196.455 59.1514 196.452C58.8398 196.448 58.52 196.496 58.1919 196.596C57.8637 196.692 57.5936 196.816 57.3815 196.969L56.2281 196.83L56.8445 191.818H62.1343V192.912H57.8786L57.5207 195.915H57.5803C57.7892 195.749 58.051 195.612 58.3659 195.502C58.6807 195.393 59.0088 195.338 59.3502 195.338C59.9733 195.338 60.5285 195.487 61.0157 195.786C61.5062 196.08 61.8907 196.485 62.1691 196.999C62.4508 197.512 62.5917 198.099 62.5917 198.759C62.5917 199.408 62.4459 199.988 62.1542 200.499C61.8659 201.006 61.4681 201.407 60.961 201.702C60.4539 201.993 59.8772 202.139 59.2309 202.139Z" fill="#1F1F1F"/>
<path d="M101.011 191.818V202H99.7785V193.111H99.7188L97.233 194.761V193.509L99.7785 191.818H101.011ZM107.32 202.139C106.903 202.133 106.485 202.053 106.068 201.901C105.65 201.748 105.269 201.491 104.924 201.13C104.579 200.765 104.303 200.273 104.094 199.653C103.885 199.03 103.781 198.248 103.781 197.307C103.781 196.405 103.865 195.607 104.034 194.911C104.203 194.211 104.448 193.623 104.77 193.146C105.091 192.665 105.479 192.3 105.933 192.052C106.391 191.803 106.906 191.679 107.479 191.679C108.05 191.679 108.557 191.793 109.001 192.022C109.448 192.247 109.813 192.562 110.095 192.967C110.376 193.371 110.559 193.837 110.641 194.364H109.428C109.316 193.906 109.097 193.527 108.772 193.225C108.447 192.924 108.016 192.773 107.479 192.773C106.691 192.773 106.069 193.116 105.615 193.802C105.164 194.488 104.937 195.451 104.934 196.69H105.014C105.199 196.409 105.42 196.168 105.675 195.969C105.933 195.767 106.218 195.612 106.53 195.502C106.841 195.393 107.171 195.338 107.519 195.338C108.103 195.338 108.636 195.484 109.12 195.776C109.604 196.064 109.992 196.463 110.283 196.974C110.575 197.481 110.721 198.062 110.721 198.719C110.721 199.348 110.58 199.925 110.298 200.449C110.017 200.969 109.621 201.384 109.11 201.692C108.603 201.997 108.006 202.146 107.32 202.139ZM107.32 201.045C107.738 201.045 108.113 200.941 108.444 200.732C108.779 200.523 109.042 200.243 109.234 199.892C109.43 199.541 109.528 199.15 109.528 198.719C109.528 198.298 109.433 197.915 109.244 197.57C109.059 197.222 108.802 196.946 108.474 196.74C108.149 196.535 107.778 196.432 107.36 196.432C107.045 196.432 106.752 196.495 106.48 196.621C106.208 196.743 105.97 196.912 105.764 197.128C105.562 197.343 105.403 197.59 105.287 197.869C105.171 198.144 105.113 198.434 105.113 198.739C105.113 199.143 105.207 199.521 105.396 199.872C105.589 200.223 105.85 200.507 106.182 200.722C106.517 200.938 106.896 201.045 107.32 201.045Z" fill="#1F1F1F"/>
<path d="M149.881 191.818V202H148.648V193.111H148.588L146.102 194.761V193.509L148.648 191.818H149.881ZM153.127 202L157.681 192.991V192.912H152.431V191.818H158.954V192.972L154.42 202H153.127Z" fill="#1F1F1F"/>
<path d="M197.066 191.818V202H195.833V193.111H195.774L193.288 194.761V193.509L195.833 191.818H197.066ZM203.256 202.139C202.573 202.139 201.97 202.018 201.446 201.776C200.926 201.531 200.52 201.195 200.228 200.767C199.936 200.336 199.792 199.846 199.796 199.295C199.792 198.865 199.877 198.467 200.049 198.102C200.221 197.734 200.457 197.428 200.755 197.183C201.057 196.934 201.393 196.777 201.764 196.71V196.651C201.277 196.525 200.889 196.251 200.601 195.83C200.313 195.406 200.17 194.924 200.173 194.384C200.17 193.866 200.301 193.404 200.566 192.996C200.831 192.589 201.196 192.267 201.66 192.032C202.127 191.797 202.659 191.679 203.256 191.679C203.846 191.679 204.373 191.797 204.837 192.032C205.301 192.267 205.665 192.589 205.93 192.996C206.199 193.404 206.335 193.866 206.338 194.384C206.335 194.924 206.187 195.406 205.896 195.83C205.607 196.251 205.225 196.525 204.747 196.651V196.71C205.115 196.777 205.447 196.934 205.742 197.183C206.037 197.428 206.272 197.734 206.448 198.102C206.623 198.467 206.713 198.865 206.716 199.295C206.713 199.846 206.564 200.336 206.269 200.767C205.977 201.195 205.571 201.531 205.051 201.776C204.533 202.018 203.935 202.139 203.256 202.139ZM203.256 201.045C203.716 201.045 204.114 200.971 204.449 200.822C204.784 200.673 205.042 200.462 205.225 200.19C205.407 199.919 205.5 199.6 205.503 199.236C205.5 198.851 205.4 198.512 205.205 198.217C205.009 197.922 204.742 197.69 204.404 197.521C204.069 197.352 203.687 197.267 203.256 197.267C202.822 197.267 202.434 197.352 202.092 197.521C201.754 197.69 201.488 197.922 201.292 198.217C201.1 198.512 201.005 198.851 201.009 199.236C201.005 199.6 201.093 199.919 201.272 200.19C201.454 200.462 201.715 200.673 202.053 200.822C202.391 200.971 202.792 201.045 203.256 201.045ZM203.256 196.213C203.62 196.213 203.944 196.14 204.225 195.994C204.51 195.848 204.734 195.645 204.896 195.383C205.059 195.121 205.142 194.814 205.145 194.463C205.142 194.118 205.06 193.818 204.901 193.563C204.742 193.305 204.522 193.106 204.24 192.967C203.958 192.824 203.63 192.753 203.256 192.753C202.875 192.753 202.542 192.824 202.256 192.967C201.971 193.106 201.751 193.305 201.595 193.563C201.439 193.818 201.363 194.118 201.367 194.463C201.363 194.814 201.441 195.121 201.6 195.383C201.763 195.645 201.986 195.848 202.271 195.994C202.556 196.14 202.885 196.213 203.256 196.213Z" fill="#1F1F1F"/>
<path d="M245.011 191.818V202H243.778V193.111H243.719L241.233 194.761V193.509L243.778 191.818H245.011ZM251.181 191.679C251.599 191.682 252.016 191.762 252.434 191.918C252.852 192.073 253.233 192.332 253.578 192.693C253.922 193.051 254.199 193.54 254.408 194.16C254.617 194.78 254.721 195.557 254.721 196.491C254.721 197.396 254.635 198.2 254.462 198.903C254.293 199.602 254.048 200.192 253.727 200.673C253.408 201.153 253.021 201.518 252.563 201.766C252.109 202.015 251.595 202.139 251.022 202.139C250.452 202.139 249.943 202.027 249.496 201.801C249.052 201.572 248.687 201.256 248.402 200.852C248.12 200.444 247.94 199.972 247.86 199.435H249.073C249.183 199.902 249.4 200.288 249.725 200.593C250.053 200.895 250.485 201.045 251.022 201.045C251.808 201.045 252.427 200.702 252.881 200.016C253.339 199.33 253.568 198.361 253.568 197.108H253.488C253.302 197.386 253.082 197.627 252.827 197.829C252.572 198.031 252.288 198.187 251.977 198.296C251.665 198.406 251.334 198.46 250.982 198.46C250.399 198.46 249.864 198.316 249.377 198.028C248.893 197.736 248.505 197.337 248.213 196.83C247.925 196.319 247.781 195.736 247.781 195.08C247.781 194.456 247.92 193.886 248.198 193.369C248.48 192.849 248.874 192.435 249.381 192.126C249.892 191.818 250.492 191.669 251.181 191.679ZM251.181 192.773C250.764 192.773 250.387 192.877 250.053 193.086C249.721 193.291 249.458 193.57 249.262 193.921C249.07 194.269 248.974 194.655 248.974 195.08C248.974 195.504 249.067 195.89 249.252 196.238C249.441 196.583 249.698 196.858 250.023 197.063C250.351 197.265 250.724 197.366 251.141 197.366C251.456 197.366 251.75 197.305 252.021 197.183C252.293 197.057 252.53 196.886 252.732 196.67C252.938 196.452 253.099 196.205 253.215 195.93C253.331 195.651 253.389 195.361 253.389 195.06C253.389 194.662 253.292 194.289 253.1 193.941C252.911 193.593 252.649 193.311 252.315 193.096C251.983 192.88 251.605 192.773 251.181 192.773Z" fill="#1F1F1F"/>
<path d="M275 196.989C275 184.845 284.845 175 296.989 175H321V219H297.011C284.855 219 275 209.145 275 196.989V196.989Z" fill="white"/>
<path d="M288.441 202V201.105L291.801 197.426C292.196 196.995 292.521 196.621 292.776 196.303C293.031 195.981 293.22 195.679 293.343 195.398C293.469 195.113 293.532 194.814 293.532 194.503C293.532 194.145 293.445 193.835 293.273 193.573C293.104 193.311 292.872 193.109 292.577 192.967C292.282 192.824 291.951 192.753 291.583 192.753C291.192 192.753 290.85 192.834 290.559 192.996C290.27 193.156 290.047 193.379 289.887 193.668C289.732 193.956 289.654 194.294 289.654 194.682H288.48C288.48 194.085 288.618 193.562 288.893 193.111C289.168 192.66 289.543 192.309 290.017 192.057C290.494 191.805 291.029 191.679 291.623 191.679C292.219 191.679 292.748 191.805 293.208 192.057C293.669 192.309 294.03 192.648 294.292 193.076C294.554 193.504 294.685 193.979 294.685 194.503C294.685 194.877 294.617 195.244 294.481 195.602C294.349 195.956 294.117 196.352 293.785 196.79C293.457 197.224 293.001 197.754 292.418 198.381L290.131 200.827V200.906H294.864V202H288.441ZM300.238 202.139C299.489 202.139 298.851 201.935 298.324 201.528C297.797 201.117 297.395 200.522 297.116 199.743C296.838 198.961 296.699 198.016 296.699 196.909C296.699 195.809 296.838 194.869 297.116 194.09C297.398 193.308 297.802 192.711 298.329 192.3C298.859 191.886 299.496 191.679 300.238 191.679C300.981 191.679 301.615 191.886 302.142 192.3C302.673 192.711 303.077 193.308 303.355 194.09C303.637 194.869 303.778 195.809 303.778 196.909C303.778 198.016 303.639 198.961 303.36 199.743C303.082 200.522 302.679 201.117 302.152 201.528C301.625 201.935 300.987 202.139 300.238 202.139ZM300.238 201.045C300.981 201.045 301.557 200.687 301.968 199.972C302.379 199.256 302.585 198.235 302.585 196.909C302.585 196.027 302.49 195.277 302.301 194.657C302.116 194.037 301.847 193.565 301.496 193.24C301.148 192.915 300.729 192.753 300.238 192.753C299.502 192.753 298.927 193.116 298.513 193.842C298.099 194.564 297.892 195.587 297.892 196.909C297.892 197.791 297.984 198.54 298.17 199.156C298.356 199.773 298.623 200.242 298.971 200.563C299.322 200.885 299.744 201.045 300.238 201.045Z" fill="#1F1F1F"/>
<rect x="321" y="175" width="48" height="44" fill="white"/>
<path d="M338.062 202V201.105L341.423 197.426C341.817 196.995 342.142 196.621 342.397 196.303C342.652 195.981 342.841 195.679 342.964 195.398C343.09 195.113 343.153 194.814 343.153 194.503C343.153 194.145 343.067 193.835 342.894 193.573C342.725 193.311 342.493 193.109 342.198 192.967C341.903 192.824 341.572 192.753 341.204 192.753C340.813 192.753 340.471 192.834 340.18 192.996C339.891 193.156 339.668 193.379 339.509 193.668C339.353 193.956 339.275 194.294 339.275 194.682H338.102C338.102 194.085 338.239 193.562 338.514 193.111C338.789 192.66 339.164 192.309 339.638 192.057C340.115 191.805 340.65 191.679 341.244 191.679C341.84 191.679 342.369 191.805 342.83 192.057C343.29 192.309 343.652 192.648 343.913 193.076C344.175 193.504 344.306 193.979 344.306 194.503C344.306 194.877 344.238 195.244 344.102 195.602C343.97 195.956 343.738 196.352 343.406 196.79C343.078 197.224 342.622 197.754 342.039 198.381L339.752 200.827V200.906H344.485V202H338.062ZM350.118 191.818V202H348.885V193.111H348.825L346.339 194.761V193.509L348.885 191.818H350.118Z" fill="#1F1F1F"/>
<path d="M33 223H57C69.1503 223 79 232.85 79 245V245C79 257.15 69.1503 267 57 267H33V223Z" fill="white"/>
<path d="M49.0774 250V249.105L52.4382 245.426C52.8326 244.995 53.1574 244.621 53.4126 244.303C53.6679 243.981 53.8568 243.679 53.9794 243.398C54.1054 243.113 54.1683 242.814 54.1683 242.503C54.1683 242.145 54.0821 241.835 53.9098 241.573C53.7408 241.311 53.5088 241.109 53.2138 240.967C52.9188 240.824 52.5874 240.753 52.2195 240.753C51.8284 240.753 51.487 240.834 51.1953 240.996C50.907 241.156 50.6832 241.379 50.5241 241.668C50.3684 241.956 50.2905 242.294 50.2905 242.682H49.1172C49.1172 242.085 49.2547 241.562 49.5298 241.111C49.8049 240.66 50.1795 240.309 50.6534 240.057C51.1307 239.805 51.666 239.679 52.2592 239.679C52.8558 239.679 53.3845 239.805 53.8452 240.057C54.3059 240.309 54.6671 240.648 54.929 241.076C55.1908 241.504 55.3217 241.979 55.3217 242.503C55.3217 242.877 55.2538 243.244 55.1179 243.602C54.9853 243.956 54.7533 244.352 54.4219 244.79C54.0938 245.224 53.638 245.754 53.0547 246.381L50.7678 248.827V248.906H55.5007V250H49.0774ZM57.554 250V249.105L60.9148 245.426C61.3092 244.995 61.634 244.621 61.8892 244.303C62.1444 243.981 62.3333 243.679 62.456 243.398C62.5819 243.113 62.6449 242.814 62.6449 242.503C62.6449 242.145 62.5587 241.835 62.3864 241.573C62.2173 241.311 61.9853 241.109 61.6903 240.967C61.3954 240.824 61.0639 240.753 60.696 240.753C60.3049 240.753 59.9635 240.834 59.6719 240.996C59.3835 241.156 59.1598 241.379 59.0007 241.668C58.8449 241.956 58.767 242.294 58.767 242.682H57.5938C57.5938 242.085 57.7313 241.562 58.0064 241.111C58.2815 240.66 58.656 240.309 59.13 240.057C59.6072 239.805 60.1425 239.679 60.7358 239.679C61.3324 239.679 61.861 239.805 62.3217 240.057C62.7824 240.309 63.1437 240.648 63.4055 241.076C63.6674 241.504 63.7983 241.979 63.7983 242.503C63.7983 242.877 63.7304 243.244 63.5945 243.602C63.4619 243.956 63.2299 244.352 62.8984 244.79C62.5703 245.224 62.1146 245.754 61.5312 246.381L59.2443 248.827V248.906H63.9773V250H57.554Z" fill="#1F1F1F"/>
<path d="M96.3587 250V249.105L99.7195 245.426C100.114 244.995 100.439 244.621 100.694 244.303C100.949 243.981 101.138 243.679 101.261 243.398C101.387 243.113 101.45 242.814 101.45 242.503C101.45 242.145 101.363 241.835 101.191 241.573C101.022 241.311 100.79 241.109 100.495 240.967C100.2 240.824 99.8686 240.753 99.5007 240.753C99.1096 240.753 98.7682 240.834 98.4766 240.996C98.1882 241.156 97.9645 241.379 97.8054 241.668C97.6496 241.956 97.5717 242.294 97.5717 242.682H96.3984C96.3984 242.085 96.536 241.562 96.8111 241.111C97.0862 240.66 97.4607 240.309 97.9347 240.057C98.4119 239.805 98.9472 239.679 99.5405 239.679C100.137 239.679 100.666 239.805 101.126 240.057C101.587 240.309 101.948 240.648 102.21 241.076C102.472 241.504 102.603 241.979 102.603 242.503C102.603 242.877 102.535 243.244 102.399 243.602C102.267 243.956 102.035 244.352 101.703 244.79C101.375 245.224 100.919 245.754 100.336 246.381L98.049 248.827V248.906H102.782V250H96.3587ZM108.276 250.139C107.619 250.139 107.034 250.027 106.521 249.801C106.01 249.576 105.604 249.263 105.303 248.862C105.004 248.457 104.842 247.988 104.815 247.455H106.068C106.095 247.783 106.207 248.066 106.406 248.305C106.605 248.54 106.865 248.722 107.187 248.852C107.508 248.981 107.865 249.045 108.256 249.045C108.693 249.045 109.081 248.969 109.419 248.817C109.757 248.664 110.022 248.452 110.214 248.18C110.407 247.909 110.503 247.594 110.503 247.236C110.503 246.861 110.41 246.531 110.224 246.246C110.039 245.958 109.767 245.733 109.409 245.57C109.051 245.408 108.614 245.327 108.097 245.327H107.281V244.233H108.097C108.501 244.233 108.856 244.16 109.161 244.014C109.469 243.868 109.709 243.663 109.881 243.398C110.057 243.133 110.145 242.821 110.145 242.463C110.145 242.118 110.069 241.818 109.916 241.563C109.764 241.308 109.548 241.109 109.27 240.967C108.995 240.824 108.67 240.753 108.295 240.753C107.944 240.753 107.613 240.817 107.301 240.947C106.993 241.073 106.741 241.257 106.545 241.499C106.35 241.737 106.244 242.026 106.227 242.364H105.034C105.054 241.83 105.215 241.363 105.516 240.962C105.818 240.557 106.212 240.242 106.7 240.017C107.19 239.792 107.729 239.679 108.315 239.679C108.945 239.679 109.485 239.807 109.936 240.062C110.387 240.314 110.733 240.647 110.975 241.061C111.217 241.475 111.338 241.923 111.338 242.403C111.338 242.977 111.187 243.466 110.886 243.87C110.587 244.274 110.181 244.554 109.668 244.71V244.79C110.311 244.896 110.813 245.169 111.174 245.61C111.535 246.048 111.716 246.589 111.716 247.236C111.716 247.789 111.565 248.286 111.263 248.727C110.965 249.165 110.558 249.509 110.04 249.761C109.523 250.013 108.935 250.139 108.276 250.139Z" fill="#1F1F1F"/>
<path d="M144.434 250V249.105L147.795 245.426C148.189 244.995 148.514 244.621 148.769 244.303C149.024 243.981 149.213 243.679 149.336 243.398C149.462 243.113 149.525 242.814 149.525 242.503C149.525 242.145 149.439 241.835 149.266 241.573C149.097 241.311 148.865 241.109 148.57 240.967C148.275 240.824 147.944 240.753 147.576 240.753C147.185 240.753 146.843 240.834 146.552 240.996C146.263 241.156 146.04 241.379 145.881 241.668C145.725 241.956 145.647 242.294 145.647 242.682H144.474C144.474 242.085 144.611 241.562 144.886 241.111C145.161 240.66 145.536 240.309 146.01 240.057C146.487 239.805 147.022 239.679 147.616 239.679C148.212 239.679 148.741 239.805 149.202 240.057C149.662 240.309 150.024 240.648 150.285 241.076C150.547 241.504 150.678 241.979 150.678 242.503C150.678 242.877 150.61 243.244 150.474 243.602C150.342 243.956 150.11 244.352 149.778 244.79C149.45 245.224 148.994 245.754 148.411 246.381L146.124 248.827V248.906H150.857V250H144.434ZM152.453 247.912V246.898L156.927 239.818H157.663V241.389H157.166L153.785 246.739V246.818H159.811V247.912H152.453ZM157.246 250V247.604V247.131V239.818H158.419V250H157.246Z" fill="#1F1F1F"/>
<path d="M193.057 250V249.105L196.418 245.426C196.812 244.995 197.137 244.621 197.392 244.303C197.647 243.981 197.836 243.679 197.959 243.398C198.085 243.113 198.148 242.814 198.148 242.503C198.148 242.145 198.062 241.835 197.889 241.573C197.72 241.311 197.488 241.109 197.193 240.967C196.898 240.824 196.567 240.753 196.199 240.753C195.808 240.753 195.466 240.834 195.175 240.996C194.886 241.156 194.663 241.379 194.504 241.668C194.348 241.956 194.27 242.294 194.27 242.682H193.097C193.097 242.085 193.234 241.562 193.509 241.111C193.784 240.66 194.159 240.309 194.633 240.057C195.11 239.805 195.645 239.679 196.239 239.679C196.835 239.679 197.364 239.805 197.825 240.057C198.285 240.309 198.647 240.648 198.908 241.076C199.17 241.504 199.301 241.979 199.301 242.503C199.301 242.877 199.233 243.244 199.097 243.602C198.965 243.956 198.733 244.352 198.401 244.79C198.073 245.224 197.618 245.754 197.034 246.381L194.747 248.827V248.906H199.48V250H193.057ZM204.715 250.139C204.132 250.139 203.607 250.023 203.139 249.791C202.672 249.559 202.297 249.241 202.016 248.837C201.734 248.432 201.58 247.972 201.553 247.455H202.747C202.793 247.915 203.002 248.296 203.373 248.598C203.747 248.896 204.195 249.045 204.715 249.045C205.133 249.045 205.504 248.948 205.829 248.752C206.157 248.557 206.414 248.288 206.6 247.947C206.788 247.602 206.883 247.213 206.883 246.778C206.883 246.334 206.785 245.938 206.59 245.59C206.397 245.239 206.132 244.962 205.794 244.76C205.456 244.558 205.07 244.455 204.636 244.452C204.324 244.448 204.004 244.496 203.676 244.596C203.348 244.692 203.078 244.816 202.866 244.969L201.712 244.83L202.329 239.818H207.619V240.912H203.363L203.005 243.915H203.065C203.274 243.749 203.535 243.612 203.85 243.502C204.165 243.393 204.493 243.338 204.835 243.338C205.458 243.338 206.013 243.487 206.5 243.786C206.991 244.08 207.375 244.485 207.653 244.999C207.935 245.512 208.076 246.099 208.076 246.759C208.076 247.408 207.93 247.988 207.639 248.499C207.35 249.006 206.953 249.407 206.445 249.702C205.938 249.993 205.362 250.139 204.715 250.139Z" fill="#1F1F1F"/>
<path d="M240.448 250V249.105L243.808 245.426C244.203 244.995 244.528 244.621 244.783 244.303C245.038 243.981 245.227 243.679 245.35 243.398C245.475 243.113 245.538 242.814 245.538 242.503C245.538 242.145 245.452 241.835 245.28 241.573C245.111 241.311 244.879 241.109 244.584 240.967C244.289 240.824 243.957 240.753 243.59 240.753C243.198 240.753 242.857 240.834 242.565 240.996C242.277 241.156 242.053 241.379 241.894 241.668C241.738 241.956 241.661 242.294 241.661 242.682H240.487C240.487 242.085 240.625 241.562 240.9 241.111C241.175 240.66 241.55 240.309 242.024 240.057C242.501 239.805 243.036 239.679 243.629 239.679C244.226 239.679 244.755 239.805 245.215 240.057C245.676 240.309 246.037 240.648 246.299 241.076C246.561 241.504 246.692 241.979 246.692 242.503C246.692 242.877 246.624 243.244 246.488 243.602C246.355 243.956 246.123 244.352 245.792 244.79C245.464 245.224 245.008 245.754 244.425 246.381L242.138 248.827V248.906H246.871V250H240.448ZM252.305 250.139C251.887 250.133 251.47 250.053 251.052 249.901C250.634 249.748 250.253 249.491 249.908 249.13C249.564 248.765 249.287 248.273 249.078 247.653C248.869 247.03 248.765 246.248 248.765 245.307C248.765 244.405 248.85 243.607 249.019 242.911C249.188 242.211 249.433 241.623 249.754 241.146C250.076 240.665 250.464 240.3 250.918 240.052C251.375 239.803 251.89 239.679 252.464 239.679C253.034 239.679 253.541 239.793 253.985 240.022C254.433 240.247 254.797 240.562 255.079 240.967C255.361 241.371 255.543 241.837 255.626 242.364H254.413C254.3 241.906 254.081 241.527 253.756 241.225C253.432 240.924 253.001 240.773 252.464 240.773C251.675 240.773 251.054 241.116 250.6 241.802C250.149 242.488 249.922 243.451 249.918 244.69H249.998C250.184 244.409 250.404 244.168 250.659 243.969C250.918 243.767 251.203 243.612 251.514 243.502C251.826 243.393 252.156 243.338 252.504 243.338C253.087 243.338 253.621 243.484 254.104 243.776C254.588 244.064 254.976 244.463 255.268 244.974C255.56 245.481 255.705 246.062 255.705 246.719C255.705 247.348 255.564 247.925 255.283 248.449C255.001 248.969 254.605 249.384 254.095 249.692C253.587 249.997 252.991 250.146 252.305 250.139ZM252.305 249.045C252.722 249.045 253.097 248.941 253.428 248.732C253.763 248.523 254.027 248.243 254.219 247.892C254.414 247.541 254.512 247.15 254.512 246.719C254.512 246.298 254.418 245.915 254.229 245.57C254.043 245.222 253.786 244.946 253.458 244.74C253.133 244.535 252.762 244.432 252.345 244.432C252.03 244.432 251.736 244.495 251.465 244.621C251.193 244.743 250.954 244.912 250.749 245.128C250.546 245.343 250.387 245.59 250.271 245.869C250.155 246.144 250.097 246.434 250.097 246.739C250.097 247.143 250.192 247.521 250.381 247.872C250.573 248.223 250.835 248.507 251.166 248.722C251.501 248.938 251.881 249.045 252.305 249.045Z" fill="#1F1F1F"/>
<path d="M289.317 250V249.105L292.677 245.426C293.072 244.995 293.397 244.621 293.652 244.303C293.907 243.981 294.096 243.679 294.219 243.398C294.345 243.113 294.408 242.814 294.408 242.503C294.408 242.145 294.321 241.835 294.149 241.573C293.98 241.311 293.748 241.109 293.453 240.967C293.158 240.824 292.827 240.753 292.459 240.753C292.068 240.753 291.726 240.834 291.435 240.996C291.146 241.156 290.922 241.379 290.763 241.668C290.608 241.956 290.53 242.294 290.53 242.682H289.356C289.356 242.085 289.494 241.562 289.769 241.111C290.044 240.66 290.419 240.309 290.893 240.057C291.37 239.805 291.905 239.679 292.498 239.679C293.095 239.679 293.624 239.805 294.084 240.057C294.545 240.309 294.906 240.648 295.168 241.076C295.43 241.504 295.561 241.979 295.561 242.503C295.561 242.877 295.493 243.244 295.357 243.602C295.225 243.956 294.993 244.352 294.661 244.79C294.333 245.224 293.877 245.754 293.294 246.381L291.007 248.827V248.906H295.74V250H289.317ZM298.111 250L302.665 240.991V240.912H297.415V239.818H303.938V240.972L299.404 250H298.111Z" fill="#1F1F1F"/>
<path d="M336.502 250V249.105L339.863 245.426C340.257 244.995 340.582 244.621 340.837 244.303C341.093 243.981 341.282 243.679 341.404 243.398C341.53 243.113 341.593 242.814 341.593 242.503C341.593 242.145 341.507 241.835 341.335 241.573C341.166 241.311 340.934 241.109 340.639 240.967C340.344 240.824 340.012 240.753 339.644 240.753C339.253 240.753 338.912 240.834 338.62 240.996C338.332 241.156 338.108 241.379 337.949 241.668C337.793 241.956 337.715 242.294 337.715 242.682H336.542C336.542 242.085 336.68 241.562 336.955 241.111C337.23 240.66 337.604 240.309 338.078 240.057C338.555 239.805 339.091 239.679 339.684 239.679C340.281 239.679 340.809 239.805 341.27 240.057C341.731 240.309 342.092 240.648 342.354 241.076C342.616 241.504 342.747 241.979 342.747 242.503C342.747 242.877 342.679 243.244 342.543 243.602C342.41 243.956 342.178 244.352 341.847 244.79C341.519 245.224 341.063 245.754 340.479 246.381L338.193 248.827V248.906H342.926V250H336.502ZM348.24 250.139C347.557 250.139 346.954 250.018 346.43 249.776C345.91 249.531 345.504 249.195 345.212 248.767C344.921 248.336 344.777 247.846 344.78 247.295C344.777 246.865 344.861 246.467 345.033 246.102C345.206 245.734 345.441 245.428 345.739 245.183C346.041 244.934 346.377 244.777 346.749 244.71V244.651C346.261 244.525 345.874 244.251 345.585 243.83C345.297 243.406 345.154 242.924 345.158 242.384C345.154 241.866 345.285 241.404 345.551 240.996C345.816 240.589 346.18 240.267 346.644 240.032C347.112 239.797 347.644 239.679 348.24 239.679C348.83 239.679 349.357 239.797 349.821 240.032C350.285 240.267 350.65 240.589 350.915 240.996C351.183 241.404 351.319 241.866 351.323 242.384C351.319 242.924 351.172 243.406 350.88 243.83C350.592 244.251 350.209 244.525 349.732 244.651V244.71C350.1 244.777 350.431 244.934 350.726 245.183C351.021 245.428 351.256 245.734 351.432 246.102C351.608 246.467 351.697 246.865 351.7 247.295C351.697 247.846 351.548 248.336 351.253 248.767C350.961 249.195 350.555 249.531 350.035 249.776C349.518 250.018 348.92 250.139 348.24 250.139ZM348.24 249.045C348.701 249.045 349.099 248.971 349.433 248.822C349.768 248.673 350.027 248.462 350.209 248.19C350.391 247.919 350.484 247.6 350.487 247.236C350.484 246.851 350.385 246.512 350.189 246.217C349.993 245.922 349.727 245.69 349.389 245.521C349.054 245.352 348.671 245.267 348.24 245.267C347.806 245.267 347.418 245.352 347.077 245.521C346.739 245.69 346.472 245.922 346.276 246.217C346.084 246.512 345.99 246.851 345.993 247.236C345.99 247.6 346.078 247.919 346.256 248.19C346.439 248.462 346.699 248.673 347.037 248.822C347.375 248.971 347.776 249.045 348.24 249.045ZM348.24 244.213C348.605 244.213 348.928 244.14 349.21 243.994C349.495 243.848 349.718 243.645 349.881 243.383C350.043 243.121 350.126 242.814 350.129 242.463C350.126 242.118 350.045 241.818 349.886 241.563C349.727 241.305 349.506 241.106 349.225 240.967C348.943 240.824 348.615 240.753 348.24 240.753C347.859 240.753 347.526 240.824 347.241 240.967C346.956 241.106 346.735 241.305 346.58 241.563C346.424 241.818 346.348 242.118 346.351 242.463C346.348 242.814 346.426 243.121 346.585 243.383C346.747 243.645 346.971 243.848 347.256 243.994C347.541 244.14 347.869 244.213 348.24 244.213Z" fill="#1F1F1F"/>
<path d="M48.4475 298V297.105L51.8083 293.426C52.2027 292.995 52.5276 292.621 52.7828 292.303C53.038 291.981 53.2269 291.679 53.3495 291.398C53.4755 291.113 53.5384 290.814 53.5384 290.503C53.5384 290.145 53.4523 289.835 53.2799 289.573C53.1109 289.311 52.8789 289.109 52.5839 288.967C52.2889 288.824 51.9575 288.753 51.5896 288.753C51.1985 288.753 50.8571 288.834 50.5654 288.996C50.2771 289.156 50.0534 289.379 49.8943 289.668C49.7385 289.956 49.6606 290.294 49.6606 290.682H48.4873C48.4873 290.085 48.6249 289.562 48.8999 289.111C49.175 288.66 49.5496 288.309 50.0235 288.057C50.5008 287.805 51.0361 287.679 51.6294 287.679C52.2259 287.679 52.7546 287.805 53.2153 288.057C53.676 288.309 54.0373 288.648 54.2991 289.076C54.5609 289.504 54.6919 289.979 54.6919 290.503C54.6919 290.877 54.6239 291.244 54.488 291.602C54.3554 291.956 54.1234 292.352 53.792 292.79C53.4639 293.224 53.0081 293.754 52.4248 294.381L50.1379 296.827V296.906H54.8708V298H48.4475ZM60.1656 287.679C60.5832 287.682 61.0008 287.762 61.4184 287.918C61.836 288.073 62.2172 288.332 62.5619 288.693C62.9066 289.051 63.1833 289.54 63.3921 290.16C63.6009 290.78 63.7053 291.557 63.7053 292.491C63.7053 293.396 63.6192 294.2 63.4468 294.903C63.2778 295.602 63.0325 296.192 62.711 296.673C62.3928 297.153 62.0051 297.518 61.5477 297.766C61.0936 298.015 60.5799 298.139 60.0065 298.139C59.4364 298.139 58.9276 298.027 58.4802 297.801C58.0361 297.572 57.6715 297.256 57.3865 296.852C57.1047 296.444 56.9241 295.972 56.8445 295.435H58.0576C58.167 295.902 58.3841 296.288 58.7089 296.593C59.037 296.895 59.4695 297.045 60.0065 297.045C60.792 297.045 61.4118 296.702 61.8659 296.016C62.3232 295.33 62.5519 294.361 62.5519 293.108H62.4724C62.2868 293.386 62.0664 293.627 61.8112 293.829C61.556 294.031 61.2726 294.187 60.961 294.296C60.6495 294.406 60.318 294.46 59.9667 294.46C59.3834 294.46 58.8481 294.316 58.3609 294.028C57.877 293.736 57.4892 293.337 57.1975 292.83C56.9092 292.319 56.765 291.736 56.765 291.08C56.765 290.456 56.9042 289.886 57.1826 289.369C57.4643 288.849 57.8588 288.435 58.3659 288.126C58.8763 287.818 59.4762 287.669 60.1656 287.679ZM60.1656 288.773C59.748 288.773 59.3718 288.877 59.037 289.086C58.7056 289.291 58.4421 289.57 58.2465 289.921C58.0543 290.269 57.9582 290.655 57.9582 291.08C57.9582 291.504 58.051 291.89 58.2366 292.238C58.4255 292.583 58.6824 292.858 59.0072 293.063C59.3353 293.265 59.7082 293.366 60.1258 293.366C60.4407 293.366 60.734 293.305 61.0058 293.183C61.2776 293.057 61.5145 292.886 61.7167 292.67C61.9222 292.452 62.0829 292.205 62.199 291.93C62.315 291.651 62.373 291.361 62.373 291.06C62.373 290.662 62.2768 290.289 62.0846 289.941C61.8957 289.593 61.6338 289.311 61.2991 289.096C60.9677 288.88 60.5898 288.773 60.1656 288.773Z" fill="#1F1F1F"/>
<path d="M99.6623 298.139C99.006 298.139 98.421 298.027 97.9073 297.801C97.3969 297.576 96.9909 297.263 96.6893 296.862C96.391 296.457 96.2286 295.988 96.2021 295.455H97.4549C97.4814 295.783 97.5941 296.066 97.793 296.305C97.9918 296.54 98.252 296.722 98.5735 296.852C98.895 296.981 99.2513 297.045 99.6424 297.045C100.08 297.045 100.468 296.969 100.806 296.817C101.144 296.664 101.409 296.452 101.601 296.18C101.793 295.909 101.89 295.594 101.89 295.236C101.89 294.861 101.797 294.531 101.611 294.246C101.426 293.958 101.154 293.733 100.796 293.57C100.438 293.408 100 293.327 99.4833 293.327H98.668V292.233H99.4833C99.8877 292.233 100.242 292.16 100.547 292.014C100.855 291.868 101.096 291.663 101.268 291.398C101.444 291.133 101.532 290.821 101.532 290.463C101.532 290.118 101.455 289.818 101.303 289.563C101.15 289.308 100.935 289.109 100.657 288.967C100.382 288.824 100.057 288.753 99.6822 288.753C99.3308 288.753 98.9994 288.817 98.6879 288.947C98.3796 289.073 98.1277 289.257 97.9322 289.499C97.7366 289.737 97.6306 290.026 97.614 290.364H96.4208C96.4407 289.83 96.6014 289.363 96.9031 288.962C97.2047 288.557 97.5991 288.242 98.0863 288.017C98.5768 287.792 99.1154 287.679 99.7021 287.679C100.332 287.679 100.872 287.807 101.323 288.062C101.774 288.314 102.12 288.647 102.362 289.061C102.604 289.475 102.725 289.923 102.725 290.403C102.725 290.977 102.574 291.466 102.272 291.87C101.974 292.274 101.568 292.554 101.054 292.71V292.79C101.697 292.896 102.199 293.169 102.561 293.61C102.922 294.048 103.103 294.589 103.103 295.236C103.103 295.789 102.952 296.286 102.65 296.727C102.352 297.165 101.944 297.509 101.427 297.761C100.91 298.013 100.322 298.139 99.6623 298.139ZM108.457 298.139C107.708 298.139 107.07 297.935 106.543 297.528C106.016 297.117 105.613 296.522 105.335 295.743C105.056 294.961 104.917 294.016 104.917 292.909C104.917 291.809 105.056 290.869 105.335 290.09C105.617 289.308 106.021 288.711 106.548 288.3C107.078 287.886 107.715 287.679 108.457 287.679C109.199 287.679 109.834 287.886 110.361 288.3C110.891 288.711 111.296 289.308 111.574 290.09C111.856 290.869 111.997 291.809 111.997 292.909C111.997 294.016 111.858 294.961 111.579 295.743C111.301 296.522 110.898 297.117 110.371 297.528C109.844 297.935 109.206 298.139 108.457 298.139ZM108.457 297.045C109.199 297.045 109.776 296.687 110.187 295.972C110.598 295.256 110.804 294.235 110.804 292.909C110.804 292.027 110.709 291.277 110.52 290.657C110.335 290.037 110.066 289.565 109.715 289.24C109.367 288.915 108.948 288.753 108.457 288.753C107.721 288.753 107.146 289.116 106.732 289.842C106.318 290.564 106.11 291.587 106.11 292.909C106.11 293.791 106.203 294.54 106.389 295.156C106.574 295.773 106.841 296.242 107.189 296.563C107.541 296.885 107.963 297.045 108.457 297.045Z" fill="#1F1F1F"/>
<g clip-path="url(#clip1_72_75)">
<path d="M322.204 94.6245C322.204 94.6245 322.204 94.628 322.204 94.6315C322.201 94.3189 322.197 94.5437 322.204 94.6245Z" fill="#C681A7"/>
<path d="M365.232 87.314C364.377 85.0306 362.919 82.972 360.863 81.623C358.8 80.267 356.212 79.7541 353.776 80.1089C351.322 80.4672 349.121 81.6406 347.364 83.3689C345.621 85.0798 344.378 87.2789 343.636 89.5904C343.621 89.6326 343.611 89.6747 343.597 89.7134C341.981 86.4217 339.28 83.5586 335.728 82.4169C333.636 81.7424 331.429 81.6862 329.309 82.2588C327.264 82.8139 325.429 83.9697 324.046 85.5751C321.074 89.0283 320.194 94.1503 321.775 98.408C323.271 102.437 326.549 105.399 330.101 107.665C331.932 108.834 333.844 109.871 335.678 111.034C336.587 111.61 337.481 112.21 338.33 112.871C338.534 113.029 338.734 113.187 338.932 113.352C338.932 113.352 339.023 113.429 339.037 113.44C339.08 113.475 339.122 113.514 339.164 113.549C339.27 113.64 339.375 113.732 339.477 113.826C339.879 114.188 340.263 114.564 340.629 114.961C341.002 115.362 341.35 115.78 341.681 116.215C342.009 116.647 342.407 116.117 342.495 115.79C342.636 115.27 342.622 114.613 342.28 114.167C339.668 110.731 335.826 108.631 332.186 106.463C331.309 105.943 330.439 105.413 329.594 104.84C329.193 104.57 328.799 104.285 328.411 103.997C328.218 103.85 328.024 103.702 327.834 103.551C327.746 103.481 327.661 103.414 327.573 103.344C327.521 103.302 327.471 103.259 327.418 103.217C327.397 103.2 327.373 103.182 327.352 103.161C327.345 103.154 327.33 103.143 327.306 103.122C326.559 102.48 325.845 101.798 325.197 101.053C324.873 100.681 324.56 100.294 324.271 99.894C324.141 99.7148 324.014 99.5357 323.894 99.3495C323.887 99.3389 323.88 99.3249 323.873 99.3178C323.838 99.2616 323.803 99.2054 323.767 99.1492C323.7 99.0368 323.634 98.9244 323.567 98.812C323.317 98.3764 323.091 97.9267 322.894 97.463C322.852 97.3611 322.813 97.2592 322.771 97.1574C322.88 97.4138 322.789 97.203 322.771 97.1503C322.75 97.0871 322.725 97.0274 322.704 96.9642C322.623 96.7358 322.553 96.5004 322.489 96.2651C322.454 96.1351 322.419 96.0051 322.391 95.8751C322.38 95.8365 322.373 95.7943 322.363 95.7557C322.313 95.4922 322.267 95.2287 322.236 94.9618C322.222 94.8529 322.211 94.744 322.201 94.635C322.201 94.6491 322.201 94.6596 322.201 94.6737C322.201 94.6175 322.194 94.5613 322.19 94.5051C322.179 94.2486 322.176 93.9887 322.183 93.7322C322.183 93.6479 322.186 93.5601 322.19 93.4758C322.19 93.4687 322.19 93.4582 322.19 93.4442C322.197 93.3774 322.201 93.3107 322.208 93.2439C322.236 92.9769 322.271 92.7099 322.317 92.4465C322.331 92.3727 322.348 92.2989 322.363 92.2251C322.363 92.197 322.37 92.1619 322.373 92.1408C322.373 92.1408 322.373 92.1338 322.373 92.1303C322.373 92.1268 322.373 92.1233 322.373 92.1162C322.373 92.1198 322.373 92.1233 322.373 92.1268C322.384 92.0881 322.391 92.046 322.401 92.0073C322.465 91.7474 322.535 91.4874 322.616 91.2345C322.651 91.1291 322.683 91.0237 322.722 90.9183C322.743 90.8551 322.767 90.7919 322.789 90.7286C322.796 90.704 322.81 90.6584 322.817 90.6267C322.884 90.416 323 90.2087 323.091 90.0155C323.299 89.5764 323.521 89.1021 323.81 88.7087C323.679 88.8878 323.877 88.6103 323.908 88.5646C323.982 88.4557 324.06 88.3503 324.137 88.2449C324.281 88.0517 324.429 87.8655 324.584 87.6829C324.905 87.3035 325.257 86.9487 325.63 86.6184C325.63 86.6184 325.669 86.5833 325.7 86.5587C325.728 86.5341 325.785 86.4885 325.785 86.4885C325.89 86.4042 325.996 86.3198 326.105 86.239C326.309 86.088 326.517 85.944 326.732 85.8069C327.176 85.5259 327.644 85.28 328.126 85.0692C329.084 84.6547 329.943 84.4263 330.982 84.3069C331.971 84.191 332.978 84.2156 333.96 84.3737C334.932 84.5317 335.809 84.8057 336.735 85.2449C337.608 85.6594 338.425 86.1863 339.171 86.7941C339.21 86.8257 339.245 86.8573 339.284 86.8854C339.305 86.903 339.372 86.9592 339.379 86.9662C339.46 87.0365 339.541 87.1103 339.622 87.184C339.815 87.3597 340.002 87.5424 340.185 87.7321C340.523 88.0798 340.843 88.4417 341.143 88.8211C341.294 89.0108 341.442 89.2075 341.583 89.4042C341.646 89.4956 341.71 89.5869 341.773 89.6782C341.812 89.7345 341.847 89.7907 341.886 89.8434C341.889 89.8504 341.893 89.8539 341.896 89.8609C341.903 89.8715 341.914 89.889 341.928 89.9136C342.195 90.3387 342.445 90.7778 342.667 91.2275C342.776 91.4488 342.882 91.6736 342.981 91.8984C343.026 92.0003 343.069 92.1057 343.114 92.2076C343.139 92.2708 343.164 92.3341 343.192 92.3938C343.192 92.3938 343.192 92.4008 343.192 92.4043C343.283 92.6502 343.445 93.0612 343.783 92.9699C344.125 92.8786 344.216 92.4184 344.276 92.1268C344.29 92.0636 344.304 92.0003 344.319 91.9371C344.354 91.7825 344.392 91.6279 344.435 91.4734C344.509 91.1994 344.59 90.9289 344.678 90.6584C344.72 90.5284 344.766 90.4019 344.811 90.2719C344.836 90.2087 344.857 90.1455 344.882 90.0822C344.892 90.0506 344.907 90.019 344.917 89.9874C344.914 89.9979 344.91 90.012 344.907 90.0225C344.907 90.019 344.91 90.012 344.914 90.0085C345.019 89.7485 345.132 89.4885 345.252 89.2356C345.495 88.7192 345.766 88.2168 346.068 87.7321C346.075 87.7215 346.097 87.6829 346.118 87.6513C346.128 87.6372 346.188 87.5424 346.202 87.5248C346.29 87.3948 346.378 87.2683 346.466 87.1419C346.628 86.917 346.794 86.6992 346.97 86.4849C347.322 86.0529 347.702 85.6418 348.107 85.2589C348.202 85.1711 348.297 85.0798 348.396 84.9954C348.445 84.9533 348.494 84.9111 348.544 84.8655C348.544 84.8655 348.547 84.862 348.551 84.8584C348.582 84.8303 348.618 84.8022 348.649 84.7776C348.857 84.609 349.072 84.4439 349.294 84.2893C350.251 83.6149 351.314 83.0949 352.438 82.7612C352.916 82.6207 353.54 82.4977 354.103 82.4345C354.695 82.3677 355.293 82.3502 355.885 82.3853C357.092 82.4556 358.156 82.7085 359.247 83.2038C359.779 83.4427 360.286 83.7343 360.761 84.068C360.867 84.1418 360.969 84.2156 361.071 84.2929C361.12 84.3315 361.173 84.3701 361.222 84.4123C361.247 84.4334 361.271 84.4509 361.296 84.472C361.303 84.479 361.363 84.5282 361.384 84.5458C361.412 84.5704 361.458 84.6125 361.472 84.6231C361.521 84.6652 361.567 84.7074 361.617 84.7531C361.719 84.8479 361.821 84.9428 361.919 85.0446C362.31 85.4346 362.666 85.8561 362.99 86.3058C363.067 86.4112 363.141 86.5201 363.215 86.629C363.218 86.636 363.226 86.643 363.229 86.6501C363.229 86.6536 363.233 86.6571 363.236 86.6641C363.282 86.7379 363.328 86.8117 363.373 86.8889C363.514 87.1243 363.648 87.3632 363.775 87.6091C363.905 87.8655 364.025 88.1255 364.134 88.389C364.155 88.4452 364.176 88.5014 364.201 88.5576C364.201 88.5646 364.208 88.5752 364.211 88.5822C364.261 88.7157 364.306 88.8527 364.352 88.9897C364.44 89.2637 364.518 89.5412 364.585 89.8223C364.595 89.8679 364.606 89.9136 364.616 89.9593C364.616 89.9698 364.62 89.9804 364.623 89.9909C364.651 90.1314 364.676 90.2754 364.697 90.416C364.718 90.5495 364.736 90.6794 364.75 90.8129C364.757 90.8797 364.764 90.9464 364.771 91.0132C364.775 91.0624 364.782 91.1748 364.782 91.2099C364.789 91.4277 364.796 91.6455 364.792 91.8668C364.792 91.9336 364.792 92.0003 364.785 92.0671C364.785 92.0881 364.782 92.1514 364.778 92.1935C364.778 92.2076 364.778 92.2181 364.778 92.2251C364.771 92.3235 364.761 92.4184 364.75 92.5167C364.715 92.8118 364.641 93.1069 364.609 93.402V93.409C364.592 93.4793 364.578 93.5495 364.56 93.6198C364.521 93.7814 364.475 93.9465 364.43 94.1046C364.349 94.3751 364.257 94.6386 364.162 94.902C364.152 94.9266 364.141 94.9582 364.134 94.9828C364.106 95.0496 364.081 95.1163 364.053 95.1831C363.99 95.3376 363.919 95.4922 363.849 95.6433C363.722 95.9138 363.588 96.1808 363.444 96.4442C363.296 96.7182 363.138 96.9887 362.976 97.2522C362.937 97.3119 362.898 97.3752 362.859 97.4349C362.937 97.3084 362.859 97.4384 362.824 97.4911C362.74 97.6211 362.652 97.7475 362.56 97.8775C362.212 98.3729 361.838 98.8506 361.444 99.3108C359.705 101.341 357.599 103.01 355.575 104.742C353.853 106.214 352.159 107.731 350.526 109.302C348.959 110.805 347.47 112.393 346.185 114.146C344.745 116.106 343.59 118.228 342.727 120.498C342.509 121.074 342.312 121.657 342.136 122.247C342.051 122.532 342.034 122.869 342.076 123.16C342.107 123.375 342.185 123.705 342.35 123.87C342.727 124.249 343.051 123.821 343.164 123.445C343.255 123.136 343.354 122.827 343.459 122.521C343.512 122.37 343.565 122.219 343.618 122.071C343.667 121.934 343.755 121.776 343.783 121.632C343.79 121.611 343.801 121.59 343.808 121.569C343.836 121.502 343.861 121.436 343.889 121.369C343.949 121.228 344.005 121.084 344.069 120.944C344.192 120.656 344.322 120.368 344.459 120.087C344.713 119.553 344.988 119.033 345.28 118.52C345.424 118.27 345.572 118.021 345.723 117.775C345.797 117.652 345.875 117.533 345.952 117.41C345.959 117.399 345.963 117.392 345.966 117.389C345.966 117.385 345.973 117.382 345.973 117.375C346.016 117.311 346.058 117.248 346.1 117.181C347.343 115.323 348.822 113.637 350.406 112.063C352.001 110.475 353.688 108.979 355.378 107.493C357.441 105.676 359.638 103.997 361.511 101.97C363.282 100.056 364.739 97.7897 365.472 95.2744C366.225 92.6889 366.172 89.8609 365.225 87.3316L365.232 87.314ZM363.254 86.6536C363.268 86.6711 363.282 86.6887 363.289 86.7063C363.289 86.7063 363.268 86.6747 363.254 86.6536Z" fill="#DAB7FF"/>
<path d="M344.931 90.0225C344.892 90.1174 344.907 90.0963 344.931 90.0225V90.0225Z" fill="#C681A7"/>
<path d="M322.377 92.2251C322.37 92.2954 322.377 92.334 322.391 92.1268C322.391 92.1584 322.384 92.19 322.377 92.2216V92.2251Z" fill="#C681A7"/>
</g>
<defs>
<clipPath id="clip0_72_75">
<rect width="109" height="219" fill="white" transform="matrix(-1 0 0 1 88 0)"/>
</clipPath>
<clipPath id="clip1_72_75">
<rect width="45" height="44" fill="white" transform="translate(321 79)"/>
</clipPath>
</defs>
</svg>
