<svg width="50" height="50" viewBox="0 0 50 50" fill="none" xmlns="http://www.w3.org/2000/svg">
<g clip-path="url(#clip0_54_194)">
<path d="M44.4692 29.0632C36.4842 25.3904 29.9914 21.3036 27.5246 18.398C27.5158 18.3876 27.5061 18.3784 27.4969 18.3686L27.4945 18.3658C26.281 17.0807 26.2316 15.0505 26.2313 15.031C26.1917 12.1014 25.3983 11.1871 24.3653 10.2962C24.0418 10.0175 23.7628 9.77671 23.5273 9.39091C22.8031 8.20522 22.505 5.91862 22.4511 5.13808C22.4317 4.92256 22.3287 4.72321 22.1641 4.58274C21.9994 4.44226 21.7864 4.37182 21.5705 4.38651C21.3546 4.40119 21.153 4.49984 21.009 4.66131C20.8649 4.82278 20.7898 5.03425 20.7997 5.25042C20.8076 5.36671 20.9842 7.82994 21.7869 9.62304C20.8266 10.5583 20.1114 11.7158 19.7046 12.9932C18.4404 12.5469 17.0858 12.4188 15.7604 12.6204C14.8148 10.8985 12.9572 9.27183 12.8691 9.19542C12.7033 9.05257 12.4876 8.98121 12.2693 8.99696C12.051 9.0127 11.8478 9.11427 11.7042 9.27945C11.5606 9.44462 11.4882 9.65995 11.503 9.87834C11.5177 10.0967 11.6183 10.3004 11.7828 10.4448C12.3732 10.9589 14.0171 12.5761 14.5254 13.8692C14.6907 14.2894 14.714 14.6574 14.7417 15.0837C14.8288 16.4451 15.0793 17.6293 17.3931 19.4294C17.4092 19.4417 18.9984 20.7157 19.2892 22.4479C19.2903 22.4549 19.2924 22.4615 19.2937 22.4685C19.295 22.4754 19.2958 22.4833 19.2975 22.4908C20.1263 26.2113 19.468 33.8551 17.5792 42.4387C17.5551 42.5484 17.5535 42.6619 17.5746 42.7722C17.5957 42.8825 17.6391 42.9874 17.702 43.0804C17.7649 43.1735 17.8462 43.2527 17.9407 43.3134C18.0352 43.374 18.1411 43.4148 18.252 43.4332C18.3771 43.4542 21.3557 43.9369 24.9773 43.4969C27.2109 43.2255 29.195 42.6574 30.8925 41.813C32.9105 40.8093 34.5231 39.4149 35.6653 37.6656L35.6665 37.6645C39.349 31.9985 44.2855 30.6298 44.333 30.6173C44.4982 30.5743 44.646 30.4812 44.7562 30.3508C44.8665 30.2204 44.9337 30.0592 44.9487 29.8891C44.9637 29.719 44.9258 29.5485 44.8401 29.4008C44.7544 29.2531 44.6251 29.1356 44.47 29.0642L44.4692 29.0632ZM34.2787 36.7598C32.431 39.5892 29.2479 41.3011 24.8174 41.8478C23.0146 42.0602 21.1942 42.0792 19.3873 41.9044C21.2011 33.3539 21.7733 26.0128 20.915 22.142C20.5017 19.7682 18.4922 18.1865 18.4077 18.121C16.4993 16.6364 16.4524 15.9039 16.3931 14.9771C16.378 14.7407 16.3612 14.4887 16.32 14.2184C17.5509 14.0936 18.792 14.3195 19.9 14.87C20.0145 14.9272 20.1408 14.957 20.2688 14.9571C20.3968 14.9572 20.5231 14.9276 20.6377 14.8705C20.7524 14.8135 20.8522 14.7307 20.9293 14.6285C21.0065 14.5264 21.0589 14.4077 21.0824 14.2818C21.3119 13.0661 21.8806 11.94 22.7228 11.0337C22.9136 11.2299 23.1044 11.3952 23.2836 11.5498C23.9872 12.1565 24.5428 12.6357 24.5754 15.0516C24.5767 15.1606 24.6257 17.7394 26.2904 19.5022L26.2939 19.5056C28.776 22.4038 34.5847 26.1742 42.0355 29.7491C40.0652 30.6996 36.8971 32.7312 34.2787 36.7598Z" fill="#DAB7FF"/>
</g>
<defs>
<clipPath id="clip0_54_194">
<rect width="37" height="37" fill="white" transform="translate(0 16.2023) rotate(-25.9699)"/>
</clipPath>
</defs>
</svg>
