<svg width="54" height="88" viewBox="0 0 54 88" fill="none" xmlns="http://www.w3.org/2000/svg">
<g clip-path="url(#clip0_72_74)">
<path d="M64.8241 70H63.7745C63.677 70 63.5986 69.9202 63.5986 69.8209C63.5986 69.7216 63.677 69.6418 63.7745 69.6418H64.8241C64.9216 69.6418 65 69.7216 65 69.8209C65 69.9202 64.9216 70 64.8241 70ZM62.0251 69.9981C61.6733 69.9981 61.3234 69.9981 60.9755 69.9961C60.878 69.9961 60.8015 69.9163 60.8015 69.817C60.8015 69.7197 60.8799 69.6398 60.9774 69.6398C61.3254 69.6398 61.6752 69.6398 62.027 69.6418C62.1245 69.6418 62.201 69.7216 62.201 69.8209C62.201 69.9202 62.1226 69.9981 62.0251 69.9981ZM59.2242 69.9883C58.8724 69.9864 58.5206 69.9844 58.1746 69.9805C58.077 69.9805 58.0006 69.8988 58.0006 69.8014C58.0006 69.7041 58.079 69.6243 58.1765 69.6243C58.5244 69.6282 58.8743 69.6301 59.2261 69.6321C59.3236 69.6321 59.4001 69.7138 59.4001 69.8112C59.4001 69.9085 59.3217 69.9883 59.2242 69.9883ZM56.4252 69.9611H56.4233C56.0715 69.9552 55.7197 69.9494 55.3736 69.9435C55.2761 69.9435 55.1997 69.8598 55.2016 69.7625C55.2016 69.6651 55.2819 69.5873 55.3755 69.5873C55.3755 69.5873 55.3775 69.5873 55.3794 69.5873C55.7273 69.5931 56.0772 69.599 56.429 69.6048C56.5265 69.6048 56.603 69.6866 56.6011 69.7859C56.6011 69.8832 56.5208 69.9611 56.4252 69.9611ZM53.6262 69.9046H53.6223C53.2648 69.8949 52.913 69.8851 52.5727 69.8735C52.4752 69.8696 52.4006 69.7878 52.4026 69.6905C52.4064 69.5912 52.4867 69.5152 52.5823 69.5172C52.9226 69.5289 53.2744 69.5386 53.63 69.5483C53.7275 69.5503 53.8021 69.632 53.8001 69.7313C53.7982 69.8287 53.7198 69.9046 53.6262 69.9046ZM50.8272 69.8073C50.8272 69.8073 50.8214 69.8073 50.8195 69.8073C50.4639 69.7917 50.1102 69.7742 49.7699 69.7566C49.6743 69.7508 49.5997 69.6671 49.6035 69.5698C49.6093 69.4724 49.6915 69.3945 49.7871 69.4004C50.1274 69.4179 50.4811 69.4354 50.8348 69.451C50.9323 69.4549 51.0069 69.5386 51.0031 69.6359C50.9992 69.7313 50.9208 69.8073 50.8291 69.8073H50.8272ZM48.032 69.6535C48.032 69.6535 48.0243 69.6535 48.0205 69.6535C47.6668 69.6301 47.315 69.6048 46.9709 69.5775C46.8753 69.5698 46.8026 69.4841 46.8103 69.3867C46.8179 69.2894 46.902 69.2154 46.9976 69.2232C47.3399 69.2505 47.6917 69.2758 48.0434 69.2991C48.139 69.305 48.2136 69.3906 48.206 69.488C48.2002 69.5814 48.1237 69.6554 48.032 69.6554V69.6535ZM45.2406 69.4257C45.2406 69.4257 45.2291 69.4257 45.2234 69.4257C44.8678 69.3906 44.516 69.3537 44.1776 69.3167C44.082 69.305 44.0132 69.2174 44.0227 69.12C44.0342 69.0227 44.1202 68.9526 44.2158 68.9623C44.5542 68.9993 44.9041 69.0363 45.2578 69.0714C45.3534 69.0811 45.4242 69.1687 45.4146 69.266C45.405 69.3575 45.3305 69.4276 45.2406 69.4276V69.4257ZM42.4607 69.0986C42.4607 69.0986 42.4454 69.0986 42.4378 69.0986C42.0879 69.0499 41.7361 68.9993 41.3958 68.9448C41.3002 68.9292 41.2352 68.8397 41.2486 68.7424C41.2639 68.645 41.3518 68.5788 41.4474 68.5924C41.7858 68.645 42.1357 68.6976 42.4837 68.7443C42.5793 68.7579 42.6462 68.8475 42.6328 68.9448C42.6213 69.0344 42.5449 69.0986 42.4588 69.0986H42.4607ZM39.6961 68.6489C39.6847 68.6489 39.6751 68.6489 39.6636 68.645C39.3157 68.5788 38.9677 68.5087 38.6293 68.4386C38.5337 68.4192 38.4744 68.3238 38.4936 68.2284C38.5127 68.1311 38.6064 68.0707 38.7 68.0902C39.0365 68.1622 39.3807 68.2303 39.7267 68.2965C39.8223 68.314 39.8854 68.4075 39.8663 68.5048C39.851 68.5905 39.7764 68.6509 39.6942 68.6509L39.6961 68.6489ZM36.9602 68.0473C36.9468 68.0473 36.9315 68.0473 36.9182 68.0415C36.5759 67.9539 36.2318 67.8624 35.8991 67.7689C35.8054 67.7436 35.7519 67.6443 35.7768 67.5489C35.8016 67.4536 35.8991 67.399 35.9928 67.4244C36.3236 67.5178 36.6639 67.6074 37.0042 67.695C37.0979 67.7183 37.1552 67.8157 37.1323 67.9111C37.1132 67.9928 37.0405 68.0454 36.9621 68.0454L36.9602 68.0473ZM34.2683 67.2647C34.2511 67.2647 34.232 67.2628 34.2147 67.255C33.9127 67.1537 33.6087 67.0486 33.3123 66.9415C33.2798 66.9299 33.2492 66.9182 33.2167 66.9065C33.125 66.8734 33.0791 66.7702 33.1116 66.6787C33.1441 66.5853 33.2454 66.5385 33.3353 66.5716C33.3659 66.5833 33.3984 66.595 33.429 66.6067C33.7215 66.7118 34.0236 66.8169 34.3218 66.9162C34.4136 66.9474 34.4633 67.0467 34.4346 67.1401C34.4098 67.216 34.3428 67.2628 34.2683 67.2628V67.2647ZM31.6662 66.2212C31.6394 66.2212 31.6146 66.2154 31.5897 66.2037C31.2743 66.046 30.9588 65.8766 30.6529 65.6975C30.5688 65.6488 30.5401 65.5398 30.5879 65.4542C30.6357 65.3685 30.7428 65.3393 30.8269 65.388C31.127 65.5632 31.4368 65.7287 31.7446 65.8825C31.8306 65.9253 31.8669 66.0324 31.8249 66.12C31.7943 66.1823 31.7331 66.2193 31.6681 66.2193L31.6662 66.2212ZM29.2649 64.7592C29.2304 64.7592 29.1941 64.7475 29.1635 64.7261C28.8767 64.5177 28.5938 64.2978 28.3204 64.0719C28.2458 64.0096 28.2343 63.8967 28.2955 63.8208C28.3567 63.7449 28.4676 63.7332 28.5422 63.7955C28.8098 64.0174 29.0871 64.2335 29.3681 64.4379C29.4465 64.4944 29.4656 64.6073 29.4082 64.6871C29.3738 64.7358 29.3203 64.7611 29.2649 64.7611V64.7592ZM27.1293 62.9174C27.0853 62.9174 27.0394 62.8999 27.005 62.8649C26.7545 62.6099 26.5098 62.3451 26.2785 62.0784C26.2154 62.0044 26.2211 61.8915 26.2938 61.8272C26.3664 61.763 26.4773 61.7688 26.5404 61.8428C26.7679 62.1056 27.0069 62.3646 27.2516 62.6137C27.3205 62.6838 27.3205 62.7967 27.2516 62.8649C27.2172 62.8999 27.1733 62.9174 27.1274 62.9174H27.1293ZM25.3264 60.7429C25.2709 60.7429 25.2174 60.7175 25.183 60.6669C24.9784 60.371 24.7834 60.0673 24.6018 59.7636C24.552 59.6799 24.5788 59.5689 24.661 59.5183C24.7432 59.4677 24.8522 59.493 24.9019 59.5786C25.0797 59.8765 25.2709 60.1744 25.4717 60.4625C25.5271 60.5423 25.508 60.6533 25.4296 60.7117C25.399 60.7331 25.3646 60.7448 25.3283 60.7448L25.3264 60.7429ZM23.9326 58.2743C23.8657 58.2743 23.8026 58.2353 23.7739 58.1691C23.6267 57.8401 23.491 57.5033 23.3705 57.1665C23.338 57.075 23.3839 56.9718 23.4757 56.9388C23.5655 56.9057 23.6668 56.9524 23.6993 57.0458C23.816 57.3729 23.9479 57.7019 24.0913 58.0231C24.1314 58.1127 24.0913 58.2178 24.0033 58.2587C23.9804 58.2704 23.9555 58.2743 23.9307 58.2743H23.9326ZM23.0436 55.5779C22.9633 55.5779 22.8906 55.5215 22.8734 55.4378C22.7969 55.0854 22.7338 54.7252 22.688 54.3709C22.6746 54.2735 22.7415 54.184 22.839 54.1704C22.9346 54.1567 23.0225 54.2249 23.0359 54.3242C23.0818 54.6688 23.143 55.0192 23.2156 55.3618C23.2367 55.4572 23.1774 55.5526 23.0818 55.574C23.0684 55.576 23.057 55.5779 23.0436 55.5779ZM22.753 52.7472C22.6555 52.7472 22.579 52.6655 22.579 52.5681C22.5828 52.2099 22.6019 51.8459 22.6344 51.4857C22.644 51.3884 22.7281 51.3163 22.8256 51.3241C22.9212 51.3338 22.9919 51.4195 22.9843 51.5188C22.9518 51.8692 22.9327 52.2235 22.9308 52.5701C22.9308 52.6674 22.8524 52.7472 22.7549 52.7472H22.753ZM23.0895 49.9243C23.0761 49.9243 23.0627 49.9243 23.0493 49.9204C22.9556 49.899 22.8964 49.8017 22.9174 49.7063C22.9958 49.3598 23.0895 49.0093 23.1946 48.6628C23.2233 48.5694 23.3208 48.5168 23.4145 48.546C23.5062 48.5752 23.5579 48.6745 23.5292 48.7699C23.4259 49.1086 23.3342 49.4513 23.2577 49.7881C23.2386 49.8698 23.1678 49.9263 23.0875 49.9263L23.0895 49.9243ZM23.9766 47.2241C23.9536 47.2241 23.9288 47.2202 23.9058 47.2085C23.8179 47.1696 23.7777 47.0645 23.816 46.973C23.9555 46.6478 24.1085 46.3208 24.271 45.9976C24.315 45.91 24.4201 45.8749 24.5062 45.9197C24.5922 45.9645 24.6266 46.0716 24.5826 46.1592C24.424 46.4765 24.2729 46.7977 24.1353 47.1151C24.1066 47.1813 24.0416 47.2221 23.9747 47.2221L23.9766 47.2241ZM25.2996 44.7127C25.2671 44.7127 25.2346 44.703 25.2059 44.6854C25.1237 44.6329 25.1008 44.5219 25.1524 44.4401C25.3378 44.1423 25.5367 43.8405 25.7432 43.5446C25.7986 43.4648 25.9076 43.4453 25.9879 43.5018C26.0663 43.5582 26.0854 43.6692 26.0299 43.751C25.8273 44.041 25.6323 44.337 25.4487 44.6309C25.4162 44.6835 25.3589 44.7127 25.3015 44.7127H25.2996ZM26.9515 42.4115C26.9113 42.4115 26.8731 42.3979 26.8406 42.3707C26.766 42.3084 26.7565 42.1954 26.8176 42.1195C27.0394 41.847 27.2727 41.5725 27.5097 41.3057C27.5747 41.2318 27.6856 41.2279 27.7564 41.2921C27.829 41.3583 27.8329 41.4712 27.7698 41.5433C27.5365 41.8061 27.3071 42.0767 27.0872 42.3454C27.0528 42.3882 27.0031 42.4096 26.9515 42.4096V42.4115ZM28.8538 40.3207C28.8079 40.3207 28.762 40.3031 28.7276 40.2661C28.6607 40.1961 28.6626 40.0831 28.7314 40.015C28.9819 39.7678 29.2419 39.5205 29.5038 39.2791C29.5765 39.2129 29.6855 39.2187 29.7505 39.2927C29.8155 39.3667 29.8097 39.4777 29.7371 39.5439C29.479 39.7814 29.2228 40.0247 28.9743 40.27C28.9398 40.3031 28.8959 40.3207 28.8519 40.3207H28.8538ZM30.955 38.4361C30.9033 38.4361 30.8536 38.4128 30.8192 38.3699C30.758 38.294 30.7714 38.1811 30.846 38.1188C31.1117 37.9007 31.3909 37.6788 31.6777 37.4569C31.7541 37.3965 31.865 37.4121 31.9224 37.49C31.9817 37.5678 31.9664 37.6808 31.8899 37.7392C31.6069 37.9592 31.3297 38.1791 31.0659 38.3952C31.0334 38.4225 30.9951 38.4342 30.9569 38.4342L30.955 38.4361ZM33.1938 36.7249C33.1383 36.7249 33.0848 36.6996 33.0504 36.6489C32.995 36.5691 33.0122 36.4581 33.0925 36.3997C33.3659 36.2012 33.6565 35.9968 33.9566 35.7865C34.0369 35.73 34.1459 35.7515 34.1994 35.8332C34.2549 35.915 34.2339 36.026 34.1536 36.0805C33.8553 36.2888 33.5666 36.4932 33.2951 36.6898C33.2645 36.7112 33.2282 36.7229 33.1938 36.7229V36.7249ZM35.5091 35.1207C35.4517 35.1207 35.3963 35.0934 35.3619 35.0409C35.3083 34.9591 35.3313 34.8481 35.4116 34.7936C35.6793 34.6145 35.9679 34.4218 36.2911 34.2076C36.3714 34.1531 36.4803 34.1784 36.5339 34.2602C36.5874 34.342 36.5625 34.4529 36.4822 34.5074C36.1591 34.7216 35.8724 34.9124 35.6047 35.0915C35.5741 35.1109 35.5416 35.1207 35.5091 35.1207ZM37.8569 33.5691C37.7995 33.5691 37.7441 33.5399 37.7097 33.4873C37.6581 33.4055 37.681 33.2946 37.7613 33.24C38.0557 33.0473 38.3502 32.8526 38.6427 32.6599C38.723 32.6054 38.832 32.6307 38.8855 32.7125C38.939 32.7942 38.9142 32.9052 38.8339 32.9597C38.5394 33.1544 38.2469 33.3471 37.9525 33.5399C37.9238 33.5593 37.8894 33.5691 37.8569 33.5691ZM40.2028 32.0097C40.1454 32.0097 40.09 31.9824 40.0575 31.9298C40.0039 31.8481 40.025 31.7371 40.1053 31.6826C40.4131 31.4743 40.6961 31.2777 40.9733 31.0849C41.0536 31.0285 41.1626 31.0499 41.2161 31.1316C41.2715 31.2134 41.2505 31.3244 41.1702 31.3789C40.8911 31.5736 40.6062 31.7702 40.2984 31.9785C40.2678 31.998 40.2353 32.0077 40.2009 32.0077L40.2028 32.0097ZM42.5028 30.3841C42.4493 30.3841 42.3957 30.3587 42.3613 30.3101C42.304 30.2303 42.3212 30.1193 42.3995 30.0609C42.6882 29.8467 42.9712 29.6326 43.2389 29.4243C43.3153 29.3639 43.4262 29.3795 43.4836 29.4574C43.5429 29.5352 43.5276 29.6482 43.4511 29.7066C43.1815 29.9168 42.8966 30.131 42.606 30.3471C42.5754 30.3704 42.5391 30.3821 42.5028 30.3821V30.3841ZM44.7129 28.6358C44.6632 28.6358 44.6135 28.6144 44.5791 28.5716C44.5179 28.4956 44.5275 28.3827 44.602 28.3204C44.7168 28.2231 44.8334 28.1238 44.9443 28.0265C45.0972 27.8941 45.2464 27.7597 45.3897 27.6254C45.4605 27.5592 45.5714 27.5651 45.6364 27.6371C45.7014 27.7091 45.6956 27.822 45.6249 27.8882C45.4796 28.0245 45.3267 28.1608 45.1718 28.2951C45.059 28.3925 44.9424 28.4937 44.8257 28.593C44.7932 28.6202 44.7531 28.6339 44.7129 28.6339V28.6358ZM46.7395 26.6695C46.6975 26.6695 46.6573 26.6539 46.6229 26.6247C46.5503 26.5605 46.5426 26.4476 46.6076 26.3736C46.8428 26.101 47.0626 25.8265 47.2577 25.554C47.315 25.4742 47.424 25.4586 47.5024 25.517C47.5808 25.5754 47.5961 25.6864 47.5387 25.7662C47.336 26.0465 47.1104 26.3288 46.8695 26.6092C46.8351 26.65 46.7873 26.6695 46.7376 26.6695H46.7395ZM48.2996 24.3139C48.2748 24.3139 48.2499 24.308 48.2251 24.2963C48.1371 24.2555 48.0989 24.1484 48.141 24.0588C48.2901 23.7337 48.4086 23.4066 48.4985 23.0854C48.5252 22.99 48.6208 22.9355 48.7145 22.9628C48.8082 22.99 48.8617 23.0874 48.835 23.1828C48.7413 23.5215 48.6151 23.868 48.4583 24.2107C48.4277 24.2749 48.3646 24.3139 48.2996 24.3139ZM48.8617 21.5513C48.77 21.5513 48.6935 21.4773 48.6878 21.3839C48.682 21.2924 48.6744 21.1989 48.6648 21.1074C48.6361 20.8621 48.5883 20.6129 48.5214 20.3696C48.4947 20.2742 48.5501 20.1769 48.6419 20.1496C48.7356 20.1223 48.8311 20.1788 48.8579 20.2722C48.9306 20.5351 48.9822 20.8018 49.0128 21.0666C49.0242 21.1639 49.0319 21.2651 49.0376 21.3625C49.0434 21.4598 48.9688 21.5455 48.8732 21.5513C48.8694 21.5513 48.8656 21.5513 48.8636 21.5513H48.8617ZM18.1759 21.3333C18.0784 21.3333 18 21.2534 18 21.1542C18 21.0549 18.0784 20.975 18.1759 20.975C18.5239 20.975 18.8756 20.9673 19.2179 20.9536C19.3154 20.9497 19.3957 21.0257 19.3995 21.125C19.4033 21.2242 19.3288 21.306 19.2313 21.3099C18.8852 21.3235 18.5296 21.3313 18.1759 21.3313V21.3333ZM20.9673 21.1775C20.8793 21.1775 20.8028 21.1094 20.7933 21.0198C20.7818 20.9225 20.8525 20.8329 20.9481 20.8232C21.2923 20.7843 21.6402 20.7375 21.9806 20.683C22.0762 20.6675 22.166 20.7336 22.1813 20.831C22.1966 20.9283 22.1316 21.0198 22.036 21.0354C21.6899 21.0899 21.3382 21.1386 20.9883 21.1775C20.9825 21.1775 20.9749 21.1775 20.9692 21.1775H20.9673ZM23.7242 20.6967C23.6439 20.6967 23.5732 20.6402 23.554 20.5584C23.533 20.463 23.5904 20.3676 23.6841 20.3443C24.0186 20.2645 24.357 20.1769 24.6935 20.0815C24.7872 20.0542 24.8828 20.1107 24.9096 20.2061C24.9363 20.3014 24.8809 20.3988 24.7872 20.426C24.4469 20.5234 24.1028 20.6129 23.7643 20.6928C23.751 20.6967 23.7376 20.6967 23.7242 20.6967ZM26.4085 19.8985C26.3358 19.8985 26.2689 19.8517 26.2441 19.7797C26.2116 19.6863 26.2613 19.585 26.3511 19.5519C26.6685 19.439 26.9974 19.3164 27.33 19.1859C27.4199 19.1509 27.5212 19.1957 27.5556 19.2872C27.59 19.3787 27.5461 19.4818 27.4562 19.5169C27.1197 19.6493 26.787 19.7739 26.4659 19.8868C26.4467 19.8926 26.4276 19.8965 26.4085 19.8965V19.8985ZM47.9479 18.8939C47.8924 18.8939 47.837 18.8666 47.8025 18.816C47.6152 18.5337 47.4011 18.2612 47.164 18.0042C47.0971 17.9322 47.1009 17.8192 47.1716 17.7531C47.2424 17.6849 47.3533 17.6888 47.4183 17.7608C47.6687 18.0315 47.8943 18.3196 48.0912 18.6174C48.1448 18.6992 48.1237 18.8102 48.0434 18.8647C48.0129 18.8861 47.9804 18.8958 47.9459 18.8958L47.9479 18.8939ZM29.0106 18.853C28.9437 18.853 28.8787 18.8121 28.85 18.7459C28.8117 18.6564 28.8519 18.5513 28.9417 18.5123C29.2343 18.3838 29.5383 18.2475 29.8996 18.0821C29.9876 18.0412 30.0908 18.0821 30.1309 18.1716C30.1711 18.2612 30.1309 18.3663 30.043 18.4072C29.6797 18.5727 29.3738 18.7109 29.0813 18.8394C29.0584 18.8491 29.0354 18.855 29.0125 18.855L29.0106 18.853ZM31.5649 17.6869C31.4979 17.6869 31.4349 17.6479 31.4043 17.5817C31.3641 17.4922 31.4043 17.3871 31.4922 17.3462C31.8631 17.1768 32.169 17.0386 32.4539 16.912C32.5418 16.8731 32.6451 16.914 32.6833 17.0055C32.7216 17.095 32.6814 17.2002 32.5915 17.2391C32.3086 17.3637 32.0046 17.5019 31.6337 17.6713C31.6107 17.681 31.5859 17.6869 31.563 17.6869H31.5649ZM45.9442 16.9295C45.9117 16.9295 45.8792 16.9198 45.8505 16.9023C45.5656 16.7154 45.2636 16.5421 44.9538 16.3883C44.8678 16.3455 44.8315 16.2384 44.8735 16.1489C44.9156 16.0613 45.0208 16.0243 45.1087 16.0671C45.4299 16.2287 45.7434 16.4078 46.0398 16.6025C46.122 16.655 46.1449 16.766 46.0933 16.8478C46.0608 16.9003 46.0035 16.9295 45.9461 16.9295H45.9442ZM34.144 16.5811C34.0733 16.5811 34.0063 16.5363 33.9796 16.4662C33.9452 16.3747 33.9911 16.2715 34.0809 16.2365C34.427 16.1041 34.752 15.9853 35.077 15.8783C35.1688 15.8471 35.2682 15.8977 35.2988 15.9912C35.3294 16.0846 35.2797 16.1859 35.1879 16.217C34.8686 16.3241 34.5474 16.4389 34.2071 16.5713C34.1861 16.5791 34.165 16.583 34.1459 16.583L34.144 16.5811ZM43.3976 15.7673C43.3823 15.7673 43.3651 15.7653 43.3498 15.7595C43.0209 15.6641 42.6825 15.5843 42.3441 15.5239C42.2485 15.5064 42.1854 15.4149 42.2026 15.3176C42.2198 15.2202 42.3097 15.156 42.4053 15.1735C42.7552 15.2358 43.105 15.3176 43.4454 15.4169C43.539 15.4441 43.5926 15.5434 43.5658 15.6369C43.5448 15.7147 43.474 15.7653 43.3976 15.7653V15.7673ZM36.8168 15.7459C36.7365 15.7459 36.6639 15.6894 36.6467 15.6077C36.6256 15.5123 36.6849 15.4169 36.7786 15.3935C37.1266 15.3137 37.4764 15.2436 37.8187 15.1891C37.9143 15.1735 38.0041 15.2397 38.0194 15.337C38.0347 15.4344 37.9697 15.5259 37.8741 15.5415C37.5395 15.596 37.1954 15.6622 36.857 15.742C36.8436 15.7459 36.8302 15.7459 36.8187 15.7459H36.8168ZM39.5833 15.3682C39.4896 15.3682 39.4132 15.2923 39.4093 15.1969C39.4055 15.0976 39.4801 15.0158 39.5776 15.0119C39.9275 14.9983 40.285 14.9963 40.6387 15.0061C40.7362 15.008 40.8108 15.0917 40.8089 15.1891C40.8069 15.2864 40.7286 15.3624 40.6349 15.3624C40.6349 15.3624 40.631 15.3624 40.6291 15.3624C40.2831 15.3526 39.9351 15.3546 39.591 15.3682C39.5891 15.3682 39.5852 15.3682 39.5833 15.3682Z" fill="black"/>
</g>
<path d="M20.3494 5.36249C18.995 2.52311 16.2037 0.728738 13.0619 0.687488C9.91311 0.646238 7.12186 2.37874 5.71936 5.22499C4.26186 8.17436 4.60561 11.5912 6.62686 14.1556L11.845 20.7831C12.1131 21.12 12.5119 21.3125 12.9381 21.3125C13.3644 21.3125 13.7631 21.12 14.0312 20.7831L19.3869 13.9769C21.3325 11.5019 21.6969 8.20874 20.3494 5.36936V5.36249ZM18.3144 13.1244L12.9312 19.9306L7.71311 13.3031C6.02874 11.165 5.73999 8.29811 6.95686 5.83686C8.12561 3.47186 10.36 2.06936 12.945 2.06936H13.0481C15.7019 2.11061 17.9706 3.56124 19.1119 5.96061C20.2531 8.35999 19.9575 11.0344 18.3144 13.1244Z" fill="#DAB7FF"/>
<path d="M12.9381 4.92249C10.8688 4.92249 9.18439 6.60686 9.18439 8.67624C9.18439 10.7456 10.8688 12.43 12.9381 12.43C15.0075 12.43 16.6919 10.7456 16.6919 8.67624C16.6919 6.60686 15.0075 4.92249 12.9381 4.92249ZM12.9381 11.0481C11.625 11.0481 10.5594 9.98249 10.5594 8.66936C10.5594 7.35624 11.625 6.29061 12.9381 6.29061C14.2513 6.29061 15.3169 7.35624 15.3169 8.66936C15.3169 9.98249 14.2513 11.0481 12.9381 11.0481Z" fill="#DAB7FF"/>
<defs>
<clipPath id="clip0_72_74">
<rect width="54" height="77" fill="white" transform="translate(0 11)"/>
</clipPath>
</defs>
</svg>
