<svg width="88" height="219" viewBox="0 0 88 219" fill="none" xmlns="http://www.w3.org/2000/svg">
<g clip-path="url(#clip0_38_88)">
<path d="M-12.1186 182.317C-14.2492 182.731 -16.5311 181.563 -17.6531 179.704C-18.7751 177.845 -18.8508 175.471 -18.0944 173.436C-17.3379 171.401 -15.8503 169.705 -14.1106 168.411C-12.5599 167.256 -10.7067 166.376 -8.76519 166.389C-6.82372 166.389 -4.8192 167.457 -4.10061 169.253C-3.70979 170.233 -3.87368 171.577 -4.83181 172.004C-5.34869 172.23 -5.96644 172.117 -6.4329 171.803C-6.89935 171.489 -7.22714 170.999 -7.42885 170.484C-8.18527 168.6 -7.36581 166.213 -5.60084 165.195C-3.83586 164.178 -1.35228 164.63 -0.078974 166.213C1.18172 167.771 1.18172 170.007 0.765692 171.966C-0.835395 179.453 -7.55492 185.194 -8.48784 192.932C-9.49639 197.529 -9.00472 202.441 -7.07585 206.749C-5.48737 210.304 -2.90294 213.621 -2.76426 217.515C2.37939 214.374 6.45144 209.551 8.68288 203.986C10.9143 198.408 11.2799 192.115 9.76708 186.349C8.25424 182.267 5.79588 178.548 2.5811 175.458C2.2281 175.119 1.87511 174.767 1.52211 174.428C0.0218824 177.154 0.0723065 180.47 0.513551 183.561C0.916975 186.387 1.61036 189.201 1.57254 192.065C1.57254 192.58 1.54732 193.107 1.57254 193.622C1.74904 200.117 0.790908 206.636 -1.22621 212.804C2.11464 206.385 3.64008 199.049 3.14841 191.839C2.71977 185.671 0.853939 179.491 2.06421 173.386C2.20289 172.695 2.44242 172.029 2.87106 171.476C4.3839 169.517 6.5523 170.321 8.09035 171.439C10.8765 173.461 12.7675 176.513 13.9148 179.754C14.646 181.852 15.0872 184.025 15.2889 186.274C15.7302 191.424 17.3439 196.449 20.2309 200.745C25.0594 207.955 32.447 213.482 40.8559 215.769C39.3305 211.209 41.108 206.222 40.6038 201.448C40.1121 196.763 37.4646 192.605 34.7289 188.761C32.6866 185.872 30.4678 182.983 27.4547 181.136C23.3196 178.599 17.9112 178.159 14.5199 174.705C14.8729 177.832 16.2597 180.772 17.9868 183.397C19.7266 186.023 21.8068 188.409 23.7356 190.909C27.0765 195.243 29.9509 199.928 32.2958 204.878C33.0396 206.46 33.7456 208.068 34.7415 209.513C35.7375 210.958 37.0864 212.214 38.7505 212.766C33.8338 208.207 32.2075 201.197 28.7532 195.456C26.7991 192.216 24.2651 189.377 22.0211 186.337C16.9405 179.465 13.171 171.351 6.21191 166.2C4.37129 165.133 2.92149 163.399 2.20289 161.389C1.93814 160.636 1.81207 159.668 2.42981 159.166C2.82063 158.852 3.37534 158.839 3.8544 158.952C4.33347 159.065 4.78732 159.304 5.26639 159.442C6.76662 159.869 8.39292 159.317 9.64101 158.387C10.8891 157.457 11.8346 156.201 12.818 154.995C13.8013 153.789 14.8855 152.609 16.2723 151.918C19.1593 150.498 22.6388 151.516 25.778 150.825C27.4421 150.461 29.0432 149.556 29.9887 148.137C30.9342 146.717 31.1359 144.77 30.2786 143.3C29.144 141.378 26.5596 140.776 24.3534 141.09C22.1471 141.404 20.0922 142.434 17.9238 143.012C14.2552 144.004 10.2335 143.702 6.64055 142.17C4.43432 140.926 2.10203 139.658 -0.431973 139.67C-2.83991 139.67 -5.14698 140.863 -7.55492 140.738C-11.274 140.524 -14.3501 137.233 -18.0691 137.246C-18.9642 137.246 -19.8972 137.472 -20.5779 138.05C-21.2587 138.627 -21.6243 139.632 -21.2965 140.461C-20.8931 141.466 -19.7207 141.894 -18.8886 142.61C-17.9683 143.413 -17.5018 144.632 -17.2245 145.825C-16.9471 147.019 -16.8211 148.25 -16.4176 149.418C-15.4721 152.119 -13.1524 154.053 -10.9336 155.862C-7.69359 158.5 -4.15103 161.238 0.0218794 161.54C1.30779 161.628 2.78281 161.377 3.50141 160.296C3.77876 159.869 3.91744 159.354 4.18218 158.915C4.79993 157.935 6.02281 157.558 7.0944 157.131C8.55681 156.553 9.91836 155.762 11.1412 154.782C12.238 153.915 13.297 152.571 12.8432 151.265C12.4776 150.197 11.2673 149.669 10.1453 149.481C9.02327 149.292 7.83821 149.267 6.85487 148.702C5.63199 147.998 5.02685 146.592 4.2074 145.436C2.15246 142.547 -1.73049 141.064 -5.19741 141.868C-6.93718 142.27 -8.51305 143.162 -10.1646 143.815C-11.8287 144.456 -13.7071 144.846 -15.3712 144.192C-15.989 143.954 -16.5815 143.564 -17.2497 143.539C-18.523 143.489 -19.4685 144.871 -19.4559 146.139C-19.4433 147.408 -18.7499 148.564 -17.8296 149.506C-16.9849 151.729 -16.052 154.066 -14.1232 155.473C-12.9507 156.327 -11.5009 156.767 -10.4545 157.771C-8.90386 159.266 -8.66433 161.929 -9.95025 163.663C-11.2236 165.396 -13.8458 165.974 -15.7369 164.944C-16.9345 164.291 -17.8044 163.123 -19.0777 162.608C-20.9057 161.879 -22.9985 162.746 -24.9147 162.356C-26.4276 162.055 -27.7387 160.937 -28.2808 159.492C-28.7599 158.211 -28.6338 156.792 -28.949 155.46C-29.5919 152.734 -32.2898 150.649 -35.1012 150.687C-36.3745 150.699 -37.6226 151.114 -38.8959 151.202C-40.1692 151.29 -41.6064 150.95 -42.2872 149.87C-42.7536 149.129 -42.804 148.137 -43.4218 147.509C-44.0395 146.881 -45.0355 146.805 -45.691 146.227C-46.334 145.649 -46.4853 144.67 -46.2962 143.828C-46.1071 142.986 -45.6154 142.233 -45.1868 141.529C-44.7203 140.474 -45.565 139.293 -46.5231 138.653C-47.4812 138.012 -48.6411 137.597 -49.3219 136.668C-49.9648 135.789 -50.0405 134.62 -49.9018 133.54C-49.7631 132.46 -49.4479 131.405 -49.3849 130.324C-49.3093 128.993 -49.6118 127.636 -50.28 126.48C-50.6204 125.877 -51.049 125.325 -51.2507 124.659C-51.4524 124.006 -51.3516 123.177 -50.7969 122.787C-50.343 122.461 -49.7001 122.511 -49.1832 122.712C-48.6663 122.913 -48.1998 123.265 -47.7082 123.528C-46.5483 124.144 -45.1615 124.295 -43.9008 123.943C-42.9427 123.679 -42.0728 123.139 -41.0895 122.988C-39.3497 122.737 -37.6352 123.842 -36.6392 125.287C-35.6433 126.732 -35.202 128.478 -34.7482 130.173C-33.5001 134.771 -31.8864 139.431 -28.6338 142.924C-27.1588 144.519 -25.2551 145.863 -23.0867 146.026C-22.5194 146.064 -21.8638 145.989 -21.5487 145.511C-21.2713 145.097 -21.3722 144.519 -21.6621 144.104C-21.9521 143.69 -22.3807 143.413 -22.7968 143.137C-29.9323 138.364 -35.0381 130.689 -36.6644 122.285C-37.2191 119.408 -37.32 116.205 -35.5929 113.743C-33.5379 112.16 -32.3655 109.522 -32.5672 106.947C-32.6554 105.842 -32.9706 104.774 -33.0588 103.668C-33.1471 102.563 -32.9832 101.37 -32.2394 100.553C-30.9787 99.1713 -28.6212 99.3849 -27.2344 98.1161C-26.4276 97.375 -25.9989 96.1816 -24.9778 95.8048C-23.8179 95.3777 -22.5951 96.2444 -21.3596 96.3324C-20.1871 96.4203 -19.1029 95.8174 -18.0313 95.3526C-16.9597 94.8878 -15.6738 94.5486 -14.4762 95.3023C-10.2906 96.772 -6.60939 99.6361 -4.17624 103.342C-3.82325 103.882 -3.53329 104.673 -4.03757 105.075C-4.35275 105.314 -4.8066 105.239 -5.15959 105.05C-6.2564 104.422 -6.48332 102.789 -5.80255 101.734C-5.12177 100.679 -3.74761 100.201 -2.49952 100.302C-1.23882 100.402 -0.0789765 101.005 0.967403 101.721C2.00118 102.437 2.9467 103.292 3.99308 103.982C7.05658 106.017 10.8513 106.646 14.5325 106.846C15.5537 106.897 16.5875 106.934 17.533 107.299C18.4785 107.663 19.3358 108.454 19.4871 109.447C19.714 111.067 18.1129 112.323 16.6253 113.002C15.8436 113.366 14.6586 113.529 14.3182 112.738C13.9778 111.947 14.9107 111.218 15.705 110.879C18.3272 109.736 21.4538 108.894 23.9752 110.251C26.0301 111.356 27.1395 113.718 27.4043 116.029C27.669 118.34 27.2152 120.664 26.8748 122.963C26.5344 125.262 26.2948 127.649 27.0387 129.872C27.1773 131.216 26.6604 132.56 25.8914 133.653C25.1224 134.759 24.0886 135.65 23.0548 136.53C20.3191 138.866 17.4069 141.152 13.9652 142.208C13.4357 142.371 12.7171 142.434 12.4524 141.944C12.2507 141.567 12.4776 141.102 12.7549 140.763C13.6122 139.695 14.8981 139.055 16.2093 138.64C17.5204 138.238 18.8819 138.037 20.2057 137.685C22.3993 137.12 24.492 136.128 26.2948 134.758C27.8203 133.59 29.1692 132.095 29.7996 130.274C30.4299 128.453 30.2408 126.292 29.0179 124.81C28.0472 123.629 26.4713 122.9 25.9166 121.481C25.4376 120.25 25.9671 118.705 27.1017 118.026C28.2363 117.348 29.85 117.612 30.5812 118.855C33.5565 120.488 35.8005 123.415 36.5947 126.719C37.2629 129.47 36.9477 132.409 37.8428 135.098C38.574 137.334 40.0869 139.243 40.9946 141.416C41.9023 143.589 42.0662 146.391 40.3642 148.036C39.6456 148.727 38.6875 149.129 38.0572 149.908C36.4813 151.842 37.7672 154.995 36.3804 157.068C35.2458 158.751 32.8505 158.99 31.2368 160.221C30.2156 161 29.5474 162.13 28.8415 163.198C28.1355 164.266 27.316 165.334 26.1436 165.861C24.9711 166.389 23.37 166.15 22.7271 165.045C22.3362 164.379 22.3615 163.512 21.895 162.897C21.0629 161.779 19.2854 162.118 18.0751 162.834C16.8774 163.55 15.705 164.567 14.3056 164.505C12.3515 164.404 11.0782 162.218 9.16194 161.816C8.50638 161.678 7.813 161.766 7.15743 161.59C5.41767 161.125 4.67386 159.078 4.50997 157.294C4.28304 154.782 4.66125 152.219 5.61938 149.895C6.9053 146.767 9.14934 144.142 10.9143 141.253C12.6793 138.364 13.9904 134.909 13.1205 131.643C12.818 130.5 12.2254 129.382 11.2673 128.666C10.3218 127.95 8.97284 127.686 7.90125 128.189C6.09845 129.018 5.51853 131.568 3.65269 132.158C0.967404 132.435 -1.54139 134.005 -2.96597 136.278C-3.16769 136.592 -3.30636 137.07 -3.00379 137.296C-2.73905 137.484 -2.37345 137.296 -2.1087 137.082C0.639623 134.859 2.26592 131.467 5.08989 129.332C6.47666 128.289 8.09035 127.598 9.60319 126.757C11.116 125.915 12.591 124.86 13.4357 123.34C14.6838 121.079 14.1417 118.001 12.2128 116.293C11.8598 115.991 11.469 115.715 11.0152 115.602C10.5613 115.489 10.0444 115.564 9.70404 115.878C9.13673 116.393 9.2628 117.423 9.89315 117.876C10.5109 118.328 11.4312 118.227 12.0363 117.75C12.6415 117.273 12.944 116.494 12.9945 115.728C13.0449 114.961 12.8558 114.195 12.6163 113.466C12.175 111.708 10.5991 110.288 8.79634 110.037C7.77517 109.899 6.69098 110.087 5.74545 109.685C4.48475 109.158 3.79137 107.701 2.50546 107.223C1.20694 106.733 -0.268081 107.412 -1.64224 107.198C-2.54995 107.047 -3.35679 106.52 -4.20146 106.168C-6.69764 105.138 -9.81157 105.766 -11.6774 107.801C-13.1776 109.082 -14.6905 110.376 -15.8503 111.959C-17.0102 113.542 -17.817 115.476 -17.6783 117.436C-17.527 119.71 -16.1403 121.757 -14.3879 123.214C-12.6355 124.671 -10.5176 125.614 -8.4248 126.518C-6.33204 127.422 -4.20146 128.327 -2.39866 129.721C-2.12131 129.935 -1.81874 130.249 -1.9196 130.588C-2.05827 131.053 -2.73905 130.99 -3.1929 130.814C-6.88675 129.344 -9.97546 126.405 -11.6144 122.787C-11.8539 122.247 -12.0682 121.682 -12.0304 121.091C-11.9926 120.501 -11.627 119.898 -11.0597 119.76C-10.4167 119.597 -9.76114 120.049 -9.35772 120.564C-8.57608 121.569 -8.28612 122.938 -8.6013 124.156C-9.93764 122.75 -10.8075 120.916 -11.0597 119.006C-11.1731 118.165 -11.1605 117.285 -10.8327 116.494C-10.505 115.715 -9.79896 115.049 -8.95429 114.949C-8.27352 114.873 -7.59274 115.15 -6.89935 115.087C-5.81515 114.986 -4.9957 114.095 -4.02496 113.58C-2.96598 113.027 -1.73049 112.939 -0.532826 112.876C0.954798 112.788 2.46764 112.7 3.90483 113.102C6.48927 113.818 8.48117 116.13 9.06109 118.742C9.64101 121.355 8.90981 124.156 7.34654 126.33C5.78327 128.503 3.43837 130.048 0.916974 130.915C0.236197 131.153 -0.59586 131.304 -1.11275 130.802C-1.80613 130.123 -1.22621 128.942 -0.507612 128.302C0.715266 127.222 2.29114 126.593 3.4888 125.501C4.87557 124.232 5.68242 122.335 5.61938 120.451C5.55635 118.567 4.64865 116.733 3.18624 115.539C2.41721 114.924 1.39604 114.459 0.450517 114.748C-0.911037 115.15 -1.42792 116.908 -1.07493 118.278C-0.721931 119.647 0.248804 120.765 1.00522 121.958C1.77425 123.152 2.35417 124.634 1.87511 125.965C1.23215 127.724 -1.13796 128.377 -2.89033 127.674C-4.6427 126.983 -5.82776 125.325 -6.622 123.629C-7.11368 122.586 -7.50449 121.468 -7.47928 120.313C-7.45406 119.157 -6.93717 117.976 -5.95383 117.361C-4.93266 116.733 -3.60893 116.82 -2.4743 117.21C-0.217653 117.989 1.61036 119.873 2.31635 122.147C3.02234 124.42 2.55588 127.008 1.1313 128.905C-0.419364 130.965 -3.0164 132.221 -4.11321 134.545C-4.69313 135.776 -4.83181 137.246 -5.78994 138.226C-6.57157 139.017 -7.75663 139.306 -8.86604 139.218C-9.97546 139.13 -11.0344 138.715 -12.0682 138.301C-13.3793 137.761 -14.7787 137.133 -15.4847 135.914C-16.4428 134.269 -15.8503 132.196 -15.9512 130.299C-16.0646 128.088 -17.2371 125.965 -19.0273 124.671C-19.7459 124.156 -20.5527 123.767 -21.1957 123.177C-21.8386 122.586 -22.3303 121.707 -22.1286 120.853C-21.9521 120.086 -21.2461 119.521 -20.4771 119.358C-19.7081 119.195 -18.9012 119.408 -18.2078 119.785C-17.8422 119.986 -17.4892 120.25 -17.3253 120.639C-17.1614 121.029 -17.2749 121.544 -17.6657 121.719C-18.1196 121.933 -18.6365 121.569 -18.9768 121.192C-21.0822 118.893 -21.7126 115.439 -20.8301 112.462C-19.9476 109.484 -17.6657 106.997 -14.8922 105.59C-12.1186 104.171 -8.87865 103.781 -5.77733 104.158C0.11013 104.887 5.56895 108.329 11.7086 107.927C17.4321 108.718 23.4835 106.558 27.3916 102.324C30.9468 98.4679 32.8 93.0789 37.036 89.9762C26.7991 85.0897 14.1291 86.5092 4.52257 92.5513C2.5811 93.7698 0.576589 95.4908 0.551375 97.777C0.526161 99.8496 2.31635 101.633 4.32086 102.186C6.32537 102.739 8.48117 102.287 10.4479 101.571C17.5078 98.9578 23.2439 92.8277 30.7325 91.986C26.1057 91.2323 21.6429 93.7447 17.6212 96.1314C13.587 98.5181 9.07369 100.968 4.47214 100.063C2.80802 99.7366 1.13129 98.8698 0.374873 97.3499C-0.520223 95.5284 0.185773 93.2297 1.61036 91.7725C3.03495 90.3153 5.02685 89.5742 6.99354 89.0466C8.96023 88.5316 10.99 88.1924 12.8558 87.3634C17.8103 85.1902 20.7478 79.9771 22.1598 74.764C23.5717 69.5509 23.7987 64.0866 25.198 58.8735C26.5974 53.6604 29.497 48.4348 34.4263 46.2114C34.8802 46.0104 35.4727 45.8596 35.8005 46.2239C36.0905 46.5505 35.9518 47.1032 35.5988 47.3796C35.2458 47.6559 34.7919 47.7188 34.3507 47.769C31.552 48.0328 28.6902 47.6559 25.9671 46.1611C23.0422 45.3446 20.4326 43.4101 18.8189 40.8475C17.1926 38.2849 16.5749 35.1068 17.0917 32.1172C17.8103 28.0221 20.5839 24.2661 20.1552 20.1333C19.8401 17.1185 17.8608 14.5434 16.9026 11.6542C16.6253 10.8 16.4362 9.88303 16.7009 9.02884C16.9657 8.17464 17.8229 7.44607 18.7054 7.59681C20.0418 7.82292 20.3569 9.5313 20.6343 10.8503C21.6555 15.5986 25.904 19.0279 27.5808 23.5878C29.2953 28.2859 27.8581 33.9512 24.1012 37.2675C23.4709 37.8202 22.601 38.3478 21.8194 38.0212C20.9369 37.6569 20.7856 36.4007 21.2142 35.5591C21.6429 34.7174 22.4749 34.1522 23.1809 33.5115C26.547 30.4716 27.4547 25.4092 26.5848 20.9624C25.7149 16.5156 23.3448 12.521 20.9621 8.66455C20.3317 7.63449 19.6636 6.51651 19.7266 5.31059C19.7896 4.10467 20.9495 2.88619 22.1093 3.25047C22.6262 3.41378 23.0675 3.85343 23.6096 3.85343C24.5803 3.85343 24.9711 2.54702 25.8158 2.06968C26.6352 1.6049 27.669 2.03199 28.4758 2.53446C29.2827 3.03693 30.1274 3.63989 31.0729 3.52683C32.9765 3.28816 33.5565 0.386415 35.4475 0.0346886C36.9856 -0.25423 38.2967 1.35366 39.86 1.45416C40.6794 1.5044 41.4737 1.12755 42.2931 1.0145C44.3228 0.72558 46.2391 2.05712 47.6133 3.57708C48.9874 5.09704 50.0842 6.90592 51.7483 8.09927C52.7821 8.84041 54.0176 9.33032 54.9631 10.1971C55.9086 11.0638 56.5138 12.521 55.8582 13.6138C55.417 14.3675 54.4967 14.757 54.0932 15.5232C53.5007 16.6538 54.2445 18.0481 53.9041 19.2792C53.4125 21.088 51.118 21.5151 49.5043 22.4698C47.3611 23.7511 46.2769 26.276 45.8609 28.7381C45.4449 31.2002 45.5457 33.7251 45.0792 36.1746C44.3607 39.918 42.2805 43.385 39.2926 45.7717C38.7001 46.2365 37.8176 46.6636 37.2629 46.1611C36.8847 45.8219 36.8973 45.2064 37.1495 44.7668C37.389 44.3271 37.805 44.0131 38.1958 43.6865C41.2845 41.149 43.3395 37.3805 43.8059 33.4236C44.0329 31.4765 43.8942 29.4918 44.1211 27.5447C44.348 25.5977 45.0288 23.5878 46.5417 22.3316C47.0081 21.9548 47.5376 21.6282 47.8528 21.1132C48.168 20.5981 48.1049 19.7942 47.5628 19.5555C47.235 19.4173 46.8568 19.5053 46.5164 19.6183C37.3764 22.5075 30.3921 31.1876 29.5474 40.7093C29.497 41.3249 29.4718 41.9781 29.7365 42.5433C30.0013 43.1086 30.6569 43.5357 31.2494 43.3473C31.7663 43.184 32.0688 42.6313 32.0941 42.1037C32.1319 41.5761 31.9554 41.0485 31.7915 40.546C31.0603 38.2975 30.4678 35.9862 30.4173 33.6246C30.3669 31.263 30.909 28.8386 32.2579 26.9041C33.6321 24.9193 35.7501 23.5627 37.9563 22.5577C40.1499 21.5528 42.4822 20.8494 44.6758 19.8319C46.2769 19.1033 47.9158 18.0984 48.6092 16.4905C49.3026 14.8826 48.5714 12.5712 46.8316 12.2572C46.0248 12.1064 45.2053 12.3954 44.3985 12.32C43.5916 12.2446 42.7091 11.4784 43.0369 10.7372C43.3899 9.92072 44.6884 10.1845 45.2431 10.8628C46.2643 12.119 45.9113 14.1163 44.8019 15.2845C43.6925 16.4528 41.9905 16.9301 40.3768 17.0055C37.5907 17.1437 34.8172 16.2769 32.384 14.9203C29.9509 13.5636 27.8203 11.717 25.8032 9.7951C25.3745 9.38056 24.9207 8.95347 24.3534 8.80273C23.7861 8.65199 23.0548 8.86554 22.8657 9.43081C22.6136 10.1719 23.4583 10.888 24.2525 10.9005C25.0341 10.9256 25.7653 10.5362 26.5344 10.3729C28.9675 9.84535 31.2746 11.5286 33.2287 13.1616C34.4768 13.9028 35.7501 14.6439 37.1747 14.9203C38.5993 15.1966 40.213 14.9203 41.1963 13.8776C42.1292 12.8853 42.3309 11.4407 42.4192 10.0966C42.4696 9.39313 42.4948 8.68967 42.3183 8.01134C42.1544 7.33301 41.7636 6.67981 41.1585 6.32808C40.1625 5.76281 38.9018 6.15222 37.8933 6.69237C36.3426 7.54656 34.9937 8.7776 34.0103 10.2473C33.7204 10.6744 33.4556 11.2271 33.6825 11.7045C33.9473 12.2572 34.7541 12.32 35.2836 12.006C36.3174 11.3904 36.3804 9.7951 35.6492 8.84041C34.918 7.88573 33.6825 7.45863 32.4849 7.32045C31.8545 7.24508 31.1611 7.23252 30.6064 7.54656C30.0517 7.8606 29.6987 8.60174 30.0013 9.16702C30.3669 9.85791 31.4385 9.82022 32.0562 9.33032C32.6614 8.84041 32.9639 8.07415 33.3421 7.39582C34.0103 6.20246 35.0441 5.14728 36.3552 4.73275C37.6663 4.31821 39.2674 4.66994 40.0743 5.77537C40.6416 6.54163 40.7677 7.534 40.7803 8.47612C40.8181 12.4456 39.0153 16.2267 36.8091 19.5681C32.2958 25.0575 28.4254 31.0746 25.3115 37.4559C23.4583 41.2746 21.8446 45.3446 21.8698 49.5904C21.895 53.0575 23.0044 56.5747 22.1345 59.9287C21.895 60.8708 21.4033 61.8632 20.483 62.2149C19.7014 62.5164 18.7811 62.2526 18.1129 61.7376C17.4447 61.2351 16.9657 60.5191 16.7135 59.3132C3.38795 44.3773 -1.61703 23.0979 -16.2411 9.41825C-14.4762 12.3451 -12.7112 15.2594 -10.9588 18.1863C-6.73546 25.1831 -2.52473 32.1674 1.69861 39.1643C1.97596 39.629 2.36678 40.1566 2.90888 40.1315C3.55184 40.1064 3.87962 39.3653 4.0309 38.7497C5.95977 30.9364 3.38794 22.1935 -2.4617 16.6538C-7.07586 12.2949 -13.5054 9.7951 -16.9849 4.49408C-19.8845 15.7242 -16.0268 28.424 -7.3406 36.162C-4.42839 38.7497 -1.07493 40.7973 1.81207 43.4101C6.08584 47.2917 9.16194 52.2661 12.175 57.1902C14.1165 60.3558 16.0706 63.5339 17.6212 66.913C18.1885 68.144 18.718 69.5258 18.3146 70.8196C17.9112 72.1135 16.121 72.9803 15.1377 72.0507C14.1543 71.1211 15.0242 69.2369 16.3605 69.0485C17.6969 68.86 18.945 69.9655 19.3484 71.2467C19.7392 72.528 19.4745 73.9224 19.0836 75.2037C18.4659 77.2889 17.533 79.3113 16.0832 80.9443C13.3601 83.9968 8.83416 85.3284 4.88818 84.2104C0.94219 83.0924 -2.20955 79.5877 -2.91555 75.568C-3.23072 73.7716 -3.0164 71.7743 -1.81874 70.4051C-0.621076 69.0359 1.78686 68.6967 3.02234 70.0408C4.37129 71.5231 3.40055 74.2113 1.52211 74.9022C-0.356327 75.5931 -2.56255 74.5756 -3.7224 72.9551C-4.88224 71.3221 -5.1722 69.2243 -5.08395 67.227C-4.93267 63.4711 -3.25594 59.4262 0.185772 57.8937" stroke="#DAB7FF" stroke-width="1.19" stroke-linecap="round" stroke-linejoin="round"/>
</g>
<defs>
<clipPath id="clip0_38_88">
<rect width="109" height="219" fill="white" transform="matrix(-1 0 0 1 88 0)"/>
</clipPath>
</defs>
</svg>
