<svg width="91" height="219" viewBox="0 0 91 219" fill="none" xmlns="http://www.w3.org/2000/svg">
<g clip-path="url(#clip0_38_73)">
<path d="M100.119 182.317C102.249 182.731 104.531 181.563 105.653 179.704C106.775 177.845 106.851 175.471 106.094 173.436C105.338 171.401 103.85 169.705 102.111 168.411C100.56 167.256 98.7067 166.376 96.7652 166.389C94.8237 166.389 92.8192 167.457 92.1006 169.253C91.7098 170.233 91.8737 171.577 92.8318 172.004C93.3487 172.23 93.9664 172.117 94.4329 171.803C94.8994 171.489 95.2271 170.999 95.4288 170.484C96.1853 168.6 95.3658 166.213 93.6008 165.195C91.8359 164.178 89.3523 164.63 88.079 166.213C86.8183 167.771 86.8183 170.007 87.2343 171.966C88.8354 179.453 95.5549 185.194 96.4878 192.932C97.4964 197.529 97.0047 202.441 95.0759 206.749C93.4874 210.304 90.9029 213.621 90.7643 217.515C85.6206 214.374 81.5486 209.551 79.3171 203.986C77.0857 198.408 76.7201 192.115 78.2329 186.349C79.7458 182.267 82.2041 178.548 85.4189 175.458C85.7719 175.119 86.1249 174.767 86.4779 174.428C87.9781 177.154 87.9277 180.47 87.4864 183.561C87.083 186.387 86.3896 189.201 86.4275 192.065C86.4275 192.58 86.4527 193.107 86.4275 193.622C86.251 200.117 87.2091 206.636 89.2262 212.804C85.8854 206.385 84.3599 199.049 84.8516 191.839C85.2802 185.671 87.1461 179.491 85.9358 173.386C85.7971 172.695 85.5576 172.029 85.1289 171.476C83.6161 169.517 81.4477 170.321 79.9096 171.439C77.1235 173.461 75.2325 176.513 74.0852 179.754C73.354 181.852 72.9128 184.025 72.7111 186.274C72.2698 191.424 70.6561 196.449 67.7691 200.745C62.9406 207.955 55.553 213.482 47.1441 215.769C48.6695 211.209 46.892 206.222 47.3962 201.448C47.8879 196.763 50.5354 192.605 53.2711 188.761C55.3134 185.872 57.5322 182.983 60.5453 181.136C64.6804 178.599 70.0888 178.159 73.4801 174.705C73.1271 177.832 71.7403 180.772 70.0132 183.397C68.2734 186.023 66.1932 188.409 64.2644 190.909C60.9235 195.243 58.0491 199.928 55.7042 204.878C54.9604 206.46 54.2544 208.068 53.2585 209.513C52.2625 210.958 50.9136 212.214 49.2495 212.766C54.1662 208.207 55.7925 201.197 59.2468 195.456C61.2009 192.216 63.7349 189.377 65.9789 186.337C71.0595 179.465 74.829 171.351 81.7881 166.2C83.6287 165.133 85.0785 163.399 85.7971 161.389C86.0619 160.636 86.1879 159.668 85.5702 159.166C85.1794 158.852 84.6247 158.839 84.1456 158.952C83.6665 159.065 83.2127 159.304 82.7336 159.442C81.2334 159.869 79.6071 159.317 78.359 158.387C77.1109 157.457 76.1654 156.201 75.182 154.995C74.1987 153.789 73.1145 152.609 71.7277 151.918C68.8407 150.498 65.3612 151.516 62.222 150.825C60.5579 150.461 58.9568 149.556 58.0113 148.137C57.0658 146.717 56.8641 144.77 57.7214 143.3C58.856 141.378 61.4404 140.776 63.6466 141.09C65.8529 141.404 67.9078 142.434 70.0762 143.012C73.7448 144.004 77.7665 143.702 81.3595 142.17C83.5657 140.926 85.898 139.658 88.432 139.67C90.8399 139.67 93.147 140.863 95.5549 140.738C99.274 140.524 102.35 137.233 106.069 137.246C106.964 137.246 107.897 137.472 108.578 138.05C109.259 138.627 109.624 139.632 109.297 140.461C108.893 141.466 107.721 141.894 106.889 142.61C105.968 143.413 105.502 144.632 105.224 145.825C104.947 147.019 104.821 148.25 104.418 149.418C103.472 152.119 101.152 154.053 98.9336 155.862C95.6936 158.5 92.151 161.238 87.9781 161.54C86.6922 161.628 85.2172 161.377 84.4986 160.296C84.2212 159.869 84.0826 159.354 83.8178 158.915C83.2001 157.935 81.9772 157.558 80.9056 157.131C79.4432 156.553 78.0816 155.762 76.8588 154.782C75.762 153.915 74.703 152.571 75.1568 151.265C75.5224 150.197 76.7327 149.669 77.8547 149.481C78.9767 149.292 80.1618 149.267 81.1451 148.702C82.368 147.998 82.9731 146.592 83.7926 145.436C85.8475 142.547 89.7305 141.064 93.1974 141.868C94.9372 142.27 96.513 143.162 98.1646 143.815C99.8287 144.456 101.707 144.846 103.371 144.192C103.989 143.954 104.582 143.564 105.25 143.539C106.523 143.489 107.469 144.871 107.456 146.139C107.443 147.408 106.75 148.564 105.83 149.506C104.985 151.729 104.052 154.066 102.123 155.473C100.951 156.327 99.5009 156.767 98.4545 157.771C96.9039 159.266 96.6643 161.929 97.9502 163.663C99.2236 165.396 101.846 165.974 103.737 164.944C104.935 164.291 105.804 163.123 107.078 162.608C108.906 161.879 110.998 162.746 112.915 162.356C114.428 162.055 115.739 160.937 116.281 159.492C116.76 158.211 116.634 156.792 116.949 155.46C117.592 152.734 120.29 150.649 123.101 150.687C124.374 150.699 125.623 151.114 126.896 151.202C128.169 151.29 129.606 150.95 130.287 149.87C130.754 149.129 130.804 148.137 131.422 147.509C132.04 146.881 133.035 146.805 133.691 146.227C134.334 145.649 134.485 144.67 134.296 143.828C134.107 142.986 133.615 142.233 133.187 141.529C132.72 140.474 133.565 139.293 134.523 138.653C135.481 138.012 136.641 137.597 137.322 136.668C137.965 135.789 138.04 134.62 137.902 133.54C137.763 132.46 137.448 131.405 137.385 130.324C137.309 128.993 137.612 127.636 138.28 126.48C138.62 125.877 139.049 125.325 139.251 124.659C139.452 124.006 139.352 123.177 138.797 122.787C138.343 122.461 137.7 122.511 137.183 122.712C136.666 122.913 136.2 123.265 135.708 123.528C134.548 124.144 133.162 124.295 131.901 123.943C130.943 123.679 130.073 123.139 129.089 122.988C127.35 122.737 125.635 123.842 124.639 125.287C123.643 126.732 123.202 128.478 122.748 130.173C121.5 134.771 119.886 139.431 116.634 142.924C115.159 144.519 113.255 145.863 111.087 146.026C110.519 146.064 109.864 145.989 109.549 145.511C109.271 145.097 109.372 144.519 109.662 144.104C109.952 143.69 110.381 143.413 110.797 143.137C117.932 138.364 123.038 130.689 124.664 122.285C125.219 119.408 125.32 116.205 123.593 113.743C121.538 112.16 120.365 109.522 120.567 106.947C120.655 105.842 120.971 104.774 121.059 103.668C121.147 102.563 120.983 101.37 120.239 100.553C118.979 99.1713 116.621 99.3849 115.234 98.1161C114.428 97.375 113.999 96.1816 112.978 95.8048C111.818 95.3777 110.595 96.2444 109.36 96.3324C108.187 96.4203 107.103 95.8174 106.031 95.3526C104.96 94.8878 103.674 94.5486 102.476 95.3023C98.2906 96.772 94.6094 99.6361 92.1762 103.342C91.8232 103.882 91.5333 104.673 92.0376 105.075C92.3527 105.314 92.8066 105.239 93.1596 105.05C94.2564 104.422 94.4833 102.789 93.8025 101.734C93.1218 100.679 91.7476 100.201 90.4995 100.302C89.2388 100.402 88.079 101.005 87.0326 101.721C85.9988 102.437 85.0533 103.292 84.0069 103.982C80.9434 106.017 77.1487 106.646 73.4675 106.846C72.4463 106.897 71.4125 106.934 70.467 107.299C69.5215 107.663 68.6642 108.454 68.5129 109.447C68.286 111.067 69.8871 112.323 71.3747 113.002C72.1564 113.366 73.3414 113.529 73.6818 112.738C74.0222 111.947 73.0893 111.218 72.295 110.879C69.6728 109.736 66.5462 108.894 64.0248 110.251C61.9699 111.356 60.8605 113.718 60.5957 116.029C60.331 118.34 60.7848 120.664 61.1252 122.963C61.4656 125.262 61.7052 127.649 60.9613 129.872C60.8227 131.216 61.3396 132.56 62.1086 133.653C62.8776 134.759 63.9114 135.65 64.9452 136.53C67.6809 138.866 70.5931 141.152 74.0348 142.208C74.5643 142.371 75.2829 142.434 75.5476 141.944C75.7493 141.567 75.5224 141.102 75.2451 140.763C74.3878 139.695 73.1019 139.055 71.7907 138.64C70.4796 138.238 69.1181 138.037 67.7943 137.685C65.6007 137.12 63.508 136.128 61.7052 134.758C60.1797 133.59 58.8308 132.095 58.2004 130.274C57.5701 128.453 57.7592 126.292 58.9821 124.81C59.9528 123.629 61.5287 122.9 62.0834 121.481C62.5624 120.25 62.0329 118.705 60.8983 118.026C59.7637 117.348 58.15 117.612 57.4188 118.855C54.4435 120.488 52.1995 123.415 51.4053 126.719C50.7371 129.47 51.0523 132.409 50.1572 135.098C49.426 137.334 47.9131 139.243 47.0054 141.416C46.0977 143.589 45.9338 146.391 47.6358 148.036C48.3544 148.727 49.3125 149.129 49.9428 149.908C51.5187 151.842 50.2328 154.995 51.6196 157.068C52.7542 158.751 55.1495 158.99 56.7632 160.221C57.7844 161 58.4526 162.13 59.1585 163.198C59.8645 164.266 60.684 165.334 61.8564 165.861C63.0289 166.389 64.63 166.15 65.2729 165.045C65.6638 164.379 65.6385 163.512 66.105 162.897C66.9371 161.779 68.7146 162.118 69.9249 162.834C71.1226 163.55 72.295 164.567 73.6944 164.505C75.6485 164.404 76.9218 162.218 78.8381 161.816C79.4936 161.678 80.187 161.766 80.8426 161.59C82.5823 161.125 83.3261 159.078 83.49 157.294C83.717 154.782 83.3387 152.219 82.3806 149.895C81.0947 146.767 78.8507 144.142 77.0857 141.253C75.3207 138.364 74.0096 134.909 74.8795 131.643C75.182 130.5 75.7746 129.382 76.7327 128.666C77.6782 127.95 79.0272 127.686 80.0988 128.189C81.9016 129.018 82.4815 131.568 84.3473 132.158C87.0326 132.435 89.5414 134.005 90.966 136.278C91.1677 136.592 91.3064 137.07 91.0038 137.296C90.739 137.484 90.3734 137.296 90.1087 137.082C87.3604 134.859 85.7341 131.467 82.9101 129.332C81.5233 128.289 79.9096 127.598 78.3968 126.757C76.884 125.915 75.409 124.86 74.5643 123.34C73.3162 121.079 73.8583 118.001 75.7872 116.293C76.1402 115.991 76.531 115.715 76.9848 115.602C77.4387 115.489 77.9556 115.564 78.296 115.878C78.8633 116.393 78.7372 117.423 78.1068 117.876C77.4891 118.328 76.5688 118.227 75.9637 117.75C75.3585 117.273 75.056 116.494 75.0055 115.728C74.9551 114.961 75.1442 114.195 75.3837 113.466C75.825 111.708 77.4009 110.288 79.2037 110.037C80.2248 109.899 81.309 110.087 82.2545 109.685C83.5152 109.158 84.2086 107.701 85.4945 107.223C86.7931 106.733 88.2681 107.412 89.6422 107.198C90.5499 107.047 91.3568 106.52 92.2015 106.168C94.6976 105.138 97.8116 105.766 99.6774 107.801C101.178 109.082 102.69 110.376 103.85 111.959C105.01 113.542 105.817 115.476 105.678 117.436C105.527 119.71 104.14 121.757 102.388 123.214C100.636 124.671 98.5176 125.614 96.4248 126.518C94.332 127.422 92.2015 128.327 90.3987 129.721C90.1213 129.935 89.8187 130.249 89.9196 130.588C90.0583 131.053 90.739 130.99 91.1929 130.814C94.8867 129.344 97.9755 126.405 99.6144 122.787C99.8539 122.247 100.068 121.682 100.03 121.091C99.9926 120.501 99.627 119.898 99.0597 119.76C98.4167 119.597 97.7611 120.049 97.3577 120.564C96.5761 121.569 96.2861 122.938 96.6013 124.156C97.9376 122.75 98.8075 120.916 99.0597 119.006C99.1731 118.165 99.1605 117.285 98.8327 116.494C98.505 115.715 97.799 115.049 96.9543 114.949C96.2735 114.873 95.5927 115.15 94.8994 115.087C93.8152 114.986 92.9957 114.095 92.025 113.58C90.966 113.027 89.7305 112.939 88.5328 112.876C87.0452 112.788 85.5324 112.7 84.0952 113.102C81.5107 113.818 79.5188 116.13 78.9389 118.742C78.359 121.355 79.0902 124.156 80.6535 126.33C82.2167 128.503 84.5616 130.048 87.083 130.915C87.7638 131.153 88.5959 131.304 89.1127 130.802C89.8061 130.123 89.2262 128.942 88.5076 128.302C87.2847 127.222 85.7089 126.593 84.5112 125.501C83.1244 124.232 82.3176 122.335 82.3806 120.451C82.4437 118.567 83.3514 116.733 84.8138 115.539C85.5828 114.924 86.604 114.459 87.5495 114.748C88.911 115.15 89.4279 116.908 89.0749 118.278C88.7219 119.647 87.7512 120.765 86.9948 121.958C86.2258 123.152 85.6458 124.634 86.1249 125.965C86.7678 127.724 89.138 128.377 90.8903 127.674C92.6427 126.983 93.8278 125.325 94.622 123.629C95.1137 122.586 95.5045 121.468 95.4793 120.313C95.4541 119.157 94.9372 117.976 93.9538 117.361C92.9327 116.733 91.6089 116.82 90.4743 117.21C88.2177 117.989 86.3896 119.873 85.6836 122.147C84.9777 124.42 85.4441 127.008 86.8687 128.905C88.4194 130.965 91.0164 132.221 92.1132 134.545C92.6931 135.776 92.8318 137.246 93.7899 138.226C94.5716 139.017 95.7566 139.306 96.866 139.218C97.9755 139.13 99.0344 138.715 100.068 138.301C101.379 137.761 102.779 137.133 103.485 135.914C104.443 134.269 103.85 132.196 103.951 130.299C104.065 128.088 105.237 125.965 107.027 124.671C107.746 124.156 108.553 123.767 109.196 123.177C109.839 122.586 110.33 121.707 110.129 120.853C109.952 120.086 109.246 119.521 108.477 119.358C107.708 119.195 106.901 119.408 106.208 119.785C105.842 119.986 105.489 120.25 105.325 120.639C105.161 121.029 105.275 121.544 105.666 121.719C106.12 121.933 106.636 121.569 106.977 121.192C109.082 118.893 109.713 115.439 108.83 112.462C107.948 109.484 105.666 106.997 102.892 105.59C100.119 104.171 96.8787 103.781 93.7773 104.158C87.8899 104.887 82.431 108.329 76.2914 107.927C70.5679 108.718 64.5165 106.558 60.6084 102.324C57.0532 98.4679 55.2 93.0789 50.964 89.9762C61.2009 85.0897 73.8709 86.5092 83.4774 92.5513C85.4189 93.7698 87.4234 95.4908 87.4486 97.777C87.4738 99.8496 85.6836 101.633 83.6791 102.186C81.6746 102.739 79.5188 102.287 77.5521 101.571C70.4922 98.9578 64.7561 92.8277 57.2675 91.986C61.8943 91.2323 66.3571 93.7447 70.3788 96.1314C74.413 98.5181 78.9263 100.968 83.5279 100.063C85.192 99.7366 86.8687 98.8698 87.6251 97.3499C88.5202 95.5284 87.8142 93.2297 86.3896 91.7725C84.965 90.3153 82.9731 89.5742 81.0065 89.0466C79.0398 88.5316 77.01 88.1924 75.1442 87.3634C70.1897 85.1902 67.2522 79.9771 65.8402 74.764C64.4283 69.5509 64.2013 64.0866 62.802 58.8735C61.4026 53.6604 58.503 48.4348 53.5737 46.2114C53.1198 46.0104 52.5273 45.8596 52.1995 46.2239C51.9095 46.5505 52.0482 47.1032 52.4012 47.3796C52.7542 47.6559 53.2081 47.7188 53.6493 47.769C56.448 48.0328 59.3098 47.6559 62.0329 46.1611C64.9578 45.3446 67.5674 43.4101 69.1811 40.8475C70.8074 38.2849 71.4251 35.1068 70.9083 32.1172C70.1897 28.0221 67.4161 24.2661 67.8448 20.1333C68.1599 17.1185 70.1392 14.5434 71.0974 11.6542C71.3747 10.8 71.5638 9.88303 71.2991 9.02884C71.0343 8.17464 70.1771 7.44607 69.2946 7.59681C67.9582 7.82292 67.6431 9.5313 67.3657 10.8503C66.3445 15.5986 62.096 19.0279 60.4192 23.5878C58.7047 28.2859 60.1419 33.9512 63.8988 37.2675C64.5291 37.8202 65.399 38.3478 66.1806 38.0212C67.0631 37.6569 67.2144 36.4007 66.7858 35.5591C66.3571 34.7174 65.5251 34.1522 64.8191 33.5115C61.453 30.4716 60.5453 25.4092 61.4152 20.9624C62.2851 16.5156 64.6552 12.521 67.0379 8.66455C67.6683 7.63449 68.3364 6.51651 68.2734 5.31059C68.2104 4.10467 67.0505 2.88619 65.8907 3.25047C65.3738 3.41378 64.9325 3.85343 64.3904 3.85343C63.4197 3.85343 63.0289 2.54702 62.1842 2.06968C61.3648 1.6049 60.331 2.03199 59.5242 2.53446C58.7173 3.03693 57.8726 3.63989 56.9271 3.52683C55.0235 3.28816 54.4435 0.386415 52.5525 0.0346886C51.0144 -0.25423 49.7033 1.35366 48.14 1.45416C47.3206 1.5044 46.5263 1.12755 45.7069 1.0145C43.6772 0.72558 41.7609 2.05712 40.3867 3.57708C39.0126 5.09704 37.9158 6.90592 36.2517 8.09927C35.2179 8.84041 33.9824 9.33032 33.0369 10.1971C32.0914 11.0638 31.4862 12.521 32.1418 13.6138C32.583 14.3675 33.5033 14.757 33.9068 15.5232C34.4993 16.6538 33.7555 18.0481 34.0959 19.2792C34.5875 21.088 36.882 21.5151 38.4957 22.4698C40.6389 23.7511 41.7231 26.276 42.1391 28.7381C42.5551 31.2002 42.4543 33.7251 42.9208 36.1746C43.6393 39.918 45.7195 43.385 48.7074 45.7717C49.2999 46.2365 50.1824 46.6636 50.7371 46.1611C51.1153 45.8219 51.1027 45.2064 50.8505 44.7668C50.611 44.3271 50.195 44.0131 49.8042 43.6865C46.7155 41.149 44.6605 37.3805 44.1941 33.4236C43.9671 31.4765 44.1058 29.4918 43.8789 27.5447C43.652 25.5977 42.9712 23.5878 41.4583 22.3316C40.9919 21.9548 40.4624 21.6282 40.1472 21.1132C39.832 20.5981 39.8951 19.7942 40.4372 19.5555C40.765 19.4173 41.1432 19.5053 41.4836 19.6183C50.6236 22.5075 57.6079 31.1876 58.4526 40.7093C58.503 41.3249 58.5282 41.9781 58.2635 42.5433C57.9987 43.1086 57.3431 43.5357 56.7506 43.3473C56.2337 43.184 55.9312 42.6313 55.9059 42.1037C55.8681 41.5761 56.0446 41.0485 56.2085 40.546C56.9397 38.2975 57.5322 35.9862 57.5827 33.6246C57.6331 31.263 57.091 28.8386 55.7421 26.9041C54.3679 24.9193 52.2499 23.5627 50.0437 22.5577C47.8501 21.5528 45.5178 20.8494 43.3242 19.8319C41.7231 19.1033 40.0842 18.0984 39.3908 16.4905C38.6974 14.8826 39.4286 12.5712 41.1684 12.2572C41.9752 12.1064 42.7947 12.3954 43.6015 12.32C44.4084 12.2446 45.2909 11.4784 44.9631 10.7372C44.6101 9.92072 43.3116 10.1845 42.7569 10.8628C41.7357 12.119 42.0887 14.1163 43.1981 15.2845C44.3075 16.4528 46.0095 16.9301 47.6232 17.0055C50.4093 17.1437 53.1828 16.2769 55.616 14.9203C58.0491 13.5636 60.1797 11.717 62.1968 9.7951C62.6255 9.38056 63.0793 8.95347 63.6466 8.80273C64.2139 8.65199 64.9452 8.86554 65.1343 9.43081C65.3864 10.1719 64.5417 10.888 63.7475 10.9005C62.9659 10.9256 62.2347 10.5362 61.4656 10.3729C59.0325 9.84535 56.7254 11.5286 54.7713 13.1616C53.5232 13.9028 52.2499 14.6439 50.8253 14.9203C49.4007 15.1966 47.787 14.9203 46.8037 13.8776C45.8708 12.8853 45.6691 11.4407 45.5808 10.0966C45.5304 9.39313 45.5052 8.68967 45.6817 8.01134C45.8456 7.33301 46.2364 6.67981 46.8415 6.32808C47.8375 5.76281 49.0982 6.15222 50.1067 6.69237C51.6574 7.54656 53.0063 8.7776 53.9897 10.2473C54.2796 10.6744 54.5444 11.2271 54.3175 11.7045C54.0527 12.2572 53.2459 12.32 52.7164 12.006C51.6826 11.3904 51.6196 9.7951 52.3508 8.84041C53.082 7.88573 54.3175 7.45863 55.5151 7.32045C56.1455 7.24508 56.8389 7.23252 57.3936 7.54656C57.9483 7.8606 58.3013 8.60174 57.9987 9.16702C57.6331 9.85791 56.5615 9.82022 55.9438 9.33032C55.3386 8.84041 55.0361 8.07415 54.6579 7.39582C53.9897 6.20246 52.9559 5.14728 51.6448 4.73275C50.3337 4.31821 48.7326 4.66994 47.9257 5.77537C47.3584 6.54163 47.2323 7.534 47.2197 8.47612C47.1819 12.4456 48.9847 16.2267 51.1909 19.5681C55.7042 25.0575 59.5746 31.0746 62.6885 37.4559C64.5417 41.2746 66.1554 45.3446 66.1302 49.5904C66.105 53.0575 64.9956 56.5747 65.8655 59.9287C66.105 60.8708 66.5967 61.8632 67.517 62.2149C68.2986 62.5164 69.2189 62.2526 69.8871 61.7376C70.5553 61.2351 71.0343 60.5191 71.2865 59.3132C84.6121 44.3773 89.617 23.0979 104.241 9.41825C102.476 12.3451 100.711 15.2594 98.9588 18.1863C94.7355 25.1831 90.5247 32.1674 86.3014 39.1643C86.024 39.629 85.6332 40.1566 85.0911 40.1315C84.4482 40.1064 84.1204 39.3653 83.9691 38.7497C82.0402 30.9364 84.6121 22.1935 90.4617 16.6538C95.0759 12.2949 101.505 9.7951 104.985 4.49408C107.885 15.7242 104.027 28.424 95.3406 36.162C92.4284 38.7497 89.0749 40.7973 86.1879 43.4101C81.9142 47.2917 78.8381 52.2661 75.825 57.1902C73.8835 60.3558 71.9294 63.5339 70.3788 66.913C69.8115 68.144 69.282 69.5258 69.6854 70.8196C70.0888 72.1135 71.879 72.9803 72.8623 72.0507C73.8457 71.1211 72.9758 69.2369 71.6395 69.0485C70.3031 68.86 69.055 69.9655 68.6516 71.2467C68.2608 72.528 68.5255 73.9224 68.9164 75.2037C69.5341 77.2889 70.467 79.3113 71.9168 80.9443C74.6399 83.9968 79.1658 85.3284 83.1118 84.2104C87.0578 83.0924 90.2096 79.5877 90.9155 75.568C91.2307 73.7716 91.0164 71.7743 89.8187 70.4051C88.6211 69.0359 86.2131 68.6967 84.9777 70.0408C83.6287 71.5231 84.5994 74.2113 86.4779 74.9022C88.3563 75.5931 90.5626 74.5756 91.7224 72.9551C92.8822 71.3221 93.1722 69.2243 93.0839 67.227C92.9327 63.4711 91.2559 59.4262 87.8142 57.8937" stroke="#DAB7FF" stroke-width="1.19" stroke-linecap="round" stroke-linejoin="round"/>
</g>
<defs>
<clipPath id="clip0_38_73">
<rect width="109" height="219" fill="white"/>
</clipPath>
</defs>
</svg>
