<svg width="28" height="28" viewBox="0 0 28 28" fill="none" xmlns="http://www.w3.org/2000/svg">
<g clip-path="url(#clip0_54_185)">
<path d="M26.1223 25.7642L23.9911 6.5835C23.9652 6.35279 23.8788 6.13305 23.7404 5.9466C23.6021 5.76016 23.4169 5.61366 23.2036 5.52202L20.6098 4.41038C20.6036 4.4077 20.5971 4.40595 20.5908 4.4036L20.5911 4.40284L17.272 3.1582L16.4687 1.15002C16.4394 1.07679 16.3909 1.01284 16.3282 0.964934C16.2656 0.91703 16.1911 0.886958 16.1128 0.877898C16.0961 0.876137 16.0793 0.875352 16.0625 0.875547V0.875H9.9375V0.875547C9.92072 0.875352 9.90393 0.876137 9.88724 0.877898C9.80889 0.886958 9.73444 0.91703 9.67178 0.964934C9.60912 1.01284 9.56057 1.07679 9.53128 1.15002L8.65628 3.33752C8.63458 3.39178 8.62396 3.44983 8.62506 3.50825C8.62616 3.56667 8.63895 3.62428 8.66268 3.67768L10.4127 7.61518C10.4398 7.67634 10.4807 7.73046 10.532 7.77336C10.5834 7.81627 10.6439 7.84682 10.7089 7.86267C10.7739 7.87852 10.8417 7.87924 10.9071 7.86477C10.9724 7.85031 11.0336 7.82105 11.0858 7.77924L12.5624 6.59799V22.6789L11.3749 26.2413C10.5314 26.1939 9.70902 25.9597 8.96718 25.5555C8.22533 25.1513 7.58259 24.5873 7.08544 23.9043L6 19.2002V5.11569L8.04947 4.34716L7.74223 3.52784L5.40888 4.40284C5.39471 4.40858 5.38084 4.41504 5.36732 4.4222L5.36683 4.42121L3.00269 5.60323C2.74905 5.73074 2.54325 5.93658 2.41578 6.19024L0.0135781 10.9945C-0.077315 11.1769 -0.124747 11.3778 -0.125 11.5816V18.6059C-0.124759 18.8097 -0.0773268 19.0106 0.0135781 19.1929L3.85871 26.8832C3.88646 26.9387 3.92568 26.9876 3.97379 27.0268C4.0219 27.0659 4.07778 27.0944 4.13774 27.1103C4.1977 27.1263 4.26035 27.1292 4.32155 27.1191C4.38275 27.109 4.44109 27.0859 4.4927 27.0515L7.1177 25.3015C7.12394 25.2973 7.12919 25.2922 7.1352 25.2878C8.35847 26.465 9.98976 27.1234 11.6875 27.125C11.7793 27.125 11.8688 27.0961 11.9433 27.0424C12.0178 26.9887 12.0735 26.913 12.1026 26.8259L13 24.1336L13.8974 26.826C13.9265 26.9131 13.9822 26.9888 14.0567 27.0425C14.1312 27.0961 14.2207 27.125 14.3125 27.125C15.1743 27.1251 16.0277 26.9554 16.824 26.6256C17.6202 26.2959 18.3437 25.8125 18.9531 25.2031C19.5625 24.5937 20.0459 23.8702 20.3756 23.074C20.7054 22.2777 20.8751 21.4243 20.875 20.5625V20.4327L22.1967 26.7767C22.209 26.8356 22.2332 26.8913 22.268 26.9404C22.3028 26.9895 22.3473 27.0309 22.3987 27.062C22.4502 27.0931 22.5075 27.1132 22.5672 27.1212C22.6268 27.1291 22.6874 27.1247 22.7452 27.1082L25.8077 26.2332C25.9071 26.2048 25.9932 26.1421 26.0508 26.0562C26.1084 25.9704 26.1337 25.8669 26.1223 25.7642ZM4.41953 26.0486L0.796156 18.8016C0.76587 18.7408 0.750072 18.6738 0.75 18.6059V11.5816C0.750086 11.5136 0.765903 11.4467 0.796211 11.3859L3.19841 6.58148C3.24093 6.49695 3.30954 6.42835 3.39409 6.38586L5.125 5.52038V16.3406L4.23064 13.4338L3.39436 13.6912L5.13982 19.364L5.88062 22.5741L4.02496 23.6873L4.47509 24.4377L6.0875 23.4703L6.38079 24.7412L4.41953 26.0486ZM16.4627 3.49103L15.018 6.7416L13.5937 5.60219L15.9568 2.22633L16.4627 3.49103ZM13 4.92461L12.309 3.9375H13.691L13 4.92461ZM14.3035 3.0625H11.6965L10.7778 1.75H15.2222L14.3035 3.0625ZM10.982 6.7416L9.5373 3.49103L10.0432 2.22633L12.4063 5.60219L10.982 6.7416ZM20 20.5625C20.0002 22.0169 19.4431 23.4161 18.4434 24.4724C17.4437 25.5287 16.0772 26.1618 14.625 26.2416L13.4375 22.6789V6.59783L14.9141 7.77908C14.9663 7.82088 15.0275 7.85014 15.0928 7.86461C15.1582 7.87907 15.2259 7.87835 15.291 7.86251C15.356 7.84666 15.4165 7.81611 15.4679 7.7732C15.5192 7.7303 15.56 7.67618 15.5872 7.61502L17.1698 4.0542L20 5.11569V20.5625ZM22.9573 26.1376L20.875 16.1424V5.47597L22.859 6.32625C22.9301 6.35679 22.9919 6.40562 23.038 6.46777C23.0841 6.52992 23.1129 6.60317 23.1215 6.68008L25.0095 23.6715L23.394 24.0754L23.6061 24.9243L25.107 24.5491L25.2119 25.4932L22.9573 26.1376Z" fill="#DAB7FF"/>
<path d="M18.6875 10.5H15.1875C15.0715 10.5 14.9602 10.5461 14.8781 10.6281C14.7961 10.7102 14.75 10.8215 14.75 10.9375V14C14.75 14.0812 14.7726 14.1609 14.8153 14.23C14.8581 14.2991 14.9192 14.355 14.9918 14.3913L16.7418 15.2663C16.8026 15.2967 16.8696 15.3125 16.9375 15.3125C17.0054 15.3125 17.0724 15.2967 17.1332 15.2663L18.8832 14.3913C18.9558 14.355 19.0169 14.2991 19.0597 14.23C19.1024 14.1609 19.125 14.0812 19.125 14V10.9375C19.125 10.8215 19.0789 10.7102 18.9969 10.6281C18.9148 10.5461 18.8035 10.5 18.6875 10.5ZM18.25 13.7296L16.9375 14.3859L15.625 13.7296V11.375H18.25V13.7296Z" fill="#DAB7FF"/>
<path d="M10.8125 8.75H11.6875V9.625H10.8125V8.75Z" fill="#DAB7FF"/>
<path d="M10.8125 13.125H11.6875V14H10.8125V13.125Z" fill="#DAB7FF"/>
<path d="M10.8125 17.5H11.6875V18.375H10.8125V17.5Z" fill="#DAB7FF"/>
<path d="M10.8125 21.875H11.6875V22.75H10.8125V21.875Z" fill="#DAB7FF"/>
</g>
<defs>
<clipPath id="clip0_54_185">
<rect width="28" height="28" fill="white"/>
</clipPath>
</defs>
</svg>
